<?xml version="1.0" encoding="utf-8"?>
<!-- Generator: Adobe Illustrator 27.0.0, SVG Export Plug-In . SVG Version: 6.00 Build 0)  -->
<svg version="1.1" xmlns="http://www.w3.org/2000/svg" xmlns:xlink="http://www.w3.org/1999/xlink" x="0px" y="0px"
	 viewBox="0 0 500 500" style="enable-background:new 0 0 500 500;" xml:space="preserve">
<style type="text/css">
	.st0{fill:#2FB896;stroke:#263238;stroke-linecap:round;stroke-linejoin:round;stroke-miterlimit:10;}
	.st1{opacity:0.7;}
	.st2{fill:#FFFFFF;}
	.st3{opacity:0.5;fill:#FFFFFF;}
	.st4{opacity:0.5;}
	.st5{fill:#FFFFFF;stroke:#263238;stroke-linecap:round;stroke-linejoin:round;stroke-miterlimit:10;}
	.st6{fill:#263238;}
	.st7{fill:#263238;stroke:#263238;stroke-linecap:round;stroke-linejoin:round;stroke-miterlimit:10;}
	.st8{fill:none;stroke:#FFFFFF;stroke-linecap:round;stroke-linejoin:round;stroke-miterlimit:10;}
	.st9{fill:none;stroke:#263238;stroke-linecap:round;stroke-linejoin:round;stroke-miterlimit:10;}
	.st10{fill:none;stroke:#263238;stroke-width:0.75;stroke-linecap:round;stroke-linejoin:round;stroke-miterlimit:10;}
</style>
<g id="Background_Simple">
	<g>
		<g>
			<rect x="217.89" y="271.25" class="st0" width="51.36" height="44.12"/>
			<rect x="217.89" y="218.8" class="st0" width="51.36" height="44.12"/>
			<rect x="217.89" y="113" class="st0" width="51.36" height="45.02"/>
			<rect x="217.89" y="166.35" class="st0" width="51.36" height="44.12"/>
			<path class="st0" d="M416.38,169.18h-43.57v-60c-1.9-1.74-3.84-3.42-5.82-5.07v72.07h52.38
				C418.43,173.83,417.43,171.5,416.38,169.18z"/>
			<path class="st0" d="M387.01,123.65c-3.82-4.35-7.84-8.51-12.04-12.47h-0.15v56h40.66C408.06,151.36,398.41,136.66,387.01,123.65
				z"/>
			<rect x="278.48" y="323.7" class="st0" width="51.36" height="45.93"/>
			<path class="st0" d="M169,114.64c-1.94,1.56-3.87,3.1-5.82,4.64v49.9h-52.37v-17.07c-1.97,1.12-3.92,2.24-5.82,3.36v20.71h64
				V114.64z"/>
			<path class="st0" d="M161.18,120.85c-10.1,7.88-20.4,15.28-31.52,21.07c-5.85,3.05-11.47,6.05-16.85,9.06v16.2h48.37V120.85z"/>
			<path class="st0" d="M217.89,341.83c17.42,6.22,33.08,17.99,49.86,27.8h1.49V323.7h-51.36V341.83z"/>
			<rect x="278.48" y="166.35" class="st0" width="51.36" height="44.12"/>
			<rect x="278.48" y="218.8" class="st0" width="51.36" height="44.12"/>
			<path class="st0" d="M337.98,103.95H209.76V339.4c2.07,0.5,4.12,1.09,6.14,1.75V321.7h55.36v49.93h0
				c4.61,2.58,9.31,4.98,14.17,7.04h52.56V103.95z M271.25,317.37h-55.36v-48.12h55.36V317.37z M271.25,264.92h-55.36V216.8h55.36
				V264.92z M271.25,212.47h-55.36v-48.12h55.36V212.47z M271.25,160.02h-55.36V111h55.36V160.02z M331.84,371.63h-55.36V321.7
				h55.36V371.63z M331.84,317.37h-55.36v-48.12h55.36V317.37z M331.84,264.92h-55.36V216.8h55.36V264.92z M331.84,212.47h-55.36
				v-48.12h55.36V212.47z M331.84,160.02h-55.36V111h55.36V160.02z"/>
			<rect x="278.48" y="271.25" class="st0" width="51.36" height="44.12"/>
			<path class="st0" d="M365,178.18v-75.72c-26.38-21.4-58.52-34.85-92.68-35.95c-43.35-1.4-72.28,23.1-101.32,46.51v65.15h-68
				v-21.51c-32.34,19.47-53.96,40.81-58.54,78.98c-5.74,47.89-0.96,92.72,38.29,115.13c39.25,22.42,63.19-15.28,113.93-13.25
				c3.8,0.15,7.48,0.64,11.07,1.4V101.95h132.22v278.72h-49.48c14.96,5.45,31.51,7.4,51.23,1.72
				c41.89-12.08,72.94-56.32,84.62-98.89c9.91-36.11,6.56-72.71-6.16-105.32H365z"/>
			<rect x="278.48" y="113" class="st0" width="51.36" height="45.02"/>
		</g>
		<g class="st1">
			<rect x="217.89" y="271.25" class="st2" width="51.36" height="44.12"/>
			<rect x="217.89" y="218.8" class="st2" width="51.36" height="44.12"/>
			<rect x="217.89" y="113" class="st2" width="51.36" height="45.02"/>
			<rect x="217.89" y="166.35" class="st2" width="51.36" height="44.12"/>
			<path class="st2" d="M416.38,169.18h-43.57v-60c-1.9-1.74-3.84-3.42-5.82-5.07v72.07h52.38
				C418.43,173.83,417.43,171.5,416.38,169.18z"/>
			<path class="st2" d="M387.01,123.65c-3.82-4.35-7.84-8.51-12.04-12.47h-0.15v56h40.66C408.06,151.36,398.41,136.66,387.01,123.65
				z"/>
			<rect x="278.48" y="323.7" class="st2" width="51.36" height="45.93"/>
			<path class="st2" d="M169,114.64c-1.94,1.56-3.87,3.1-5.82,4.64v49.9h-52.37v-17.07c-1.97,1.12-3.92,2.24-5.82,3.36v20.71h64
				V114.64z"/>
			<path class="st2" d="M161.18,120.85c-10.1,7.88-20.4,15.28-31.52,21.07c-5.85,3.05-11.47,6.05-16.85,9.06v16.2h48.37V120.85z"/>
			<path class="st2" d="M217.89,341.83c17.42,6.22,33.08,17.99,49.86,27.8h1.49V323.7h-51.36V341.83z"/>
			<rect x="278.48" y="166.35" class="st2" width="51.36" height="44.12"/>
			<rect x="278.48" y="218.8" class="st2" width="51.36" height="44.12"/>
			<path class="st2" d="M337.98,103.95H209.76V339.4c2.07,0.5,4.12,1.09,6.14,1.75V321.7h55.36v49.93h0
				c4.61,2.58,9.31,4.98,14.17,7.04h52.56V103.95z M271.25,317.37h-55.36v-48.12h55.36V317.37z M271.25,264.92h-55.36V216.8h55.36
				V264.92z M271.25,212.47h-55.36v-48.12h55.36V212.47z M271.25,160.02h-55.36V111h55.36V160.02z M331.84,371.63h-55.36V321.7
				h55.36V371.63z M331.84,317.37h-55.36v-48.12h55.36V317.37z M331.84,264.92h-55.36V216.8h55.36V264.92z M331.84,212.47h-55.36
				v-48.12h55.36V212.47z M331.84,160.02h-55.36V111h55.36V160.02z"/>
			<rect x="278.48" y="271.25" class="st2" width="51.36" height="44.12"/>
			<path class="st2" d="M365,178.18v-75.72c-26.38-21.4-58.52-34.85-92.68-35.95c-43.35-1.4-72.28,23.1-101.32,46.51v65.15h-68
				v-21.51c-32.34,19.47-53.96,40.81-58.54,78.98c-5.74,47.89-0.96,92.72,38.29,115.13c39.25,22.42,63.19-15.28,113.93-13.25
				c3.8,0.15,7.48,0.64,11.07,1.4V101.95h132.22v278.72h-49.48c14.96,5.45,31.51,7.4,51.23,1.72
				c41.89-12.08,72.94-56.32,84.62-98.89c9.91-36.11,6.56-72.71-6.16-105.32H365z"/>
			<rect x="278.48" y="113" class="st2" width="51.36" height="45.02"/>
		</g>
	</g>
</g>
<g id="Ground">
	<g>
		<ellipse class="st0" cx="249.45" cy="413.14" rx="209.8" ry="24.42"/>
		<ellipse class="st3" cx="249.45" cy="412.42" rx="209.8" ry="24.42"/>
	</g>
</g>
<g id="Plants">
	<g>
		<g>
			<path class="st0" d="M388.37,262.88c2,0.88,6.91,0.77,6.91,0.76c0.05,0-1.05-3.21-1.15-3.4c-1.08-2.25-4.48-5.96-7.24-5.59
				c-1.99,0.27-3.1,2.26-2.65,4.14C384.7,260.71,386.66,262.14,388.37,262.88z"/>
			<path class="st0" d="M452.58,246.2c-2.78-0.3-6.08,3.51-7.09,5.78c-0.09,0.2-1.1,3.43-1.05,3.43c0,0,0.05,0,0.06,0
				c-0.53,0.6-1.08,1.24-1.68,1.96c-1.09,1.33-2.3,2.85-3.51,4.59c-1.21,1.74-2.49,3.66-3.64,5.8c-1.16,2.15-2.27,4.47-3.11,7
				c-0.01,0.03-0.02,0.06-0.02,0.09c0.01-0.82-0.02-3.11-0.04-3.28c-0.32-2.47-2.39-7.06-5.14-7.57c-1.98-0.37-3.65,1.18-3.81,3.11
				c-0.16,1.96,1.26,3.93,2.65,5.17c1.57,1.4,5.91,2.75,6.26,2.86c-0.77,2.42-1.37,4.97-1.84,7.59c-0.27,1.49-0.49,3.01-0.69,4.53
				c-0.01-0.71-0.02-1.34-0.04-1.43c-0.32-2.47-2.39-7.06-5.14-7.57c-1.98-0.37-3.65,1.18-3.81,3.11c-0.16,1.96,1.26,3.93,2.65,5.17
				c1.41,1.26,5.09,2.49,6.07,2.8c-0.07,0.58-0.15,1.17-0.22,1.75c-0.34,2.8-0.66,5.6-1.06,8.34c-0.14,0.96-0.31,1.91-0.48,2.85
				c-0.01-0.63-0.02-1.16-0.03-1.24c-0.32-2.47-2.39-7.06-5.14-7.57c-1.98-0.37-3.65,1.18-3.81,3.11c-0.16,1.96,1.26,3.93,2.65,5.17
				c1.34,1.2,4.74,2.37,5.9,2.74c-0.2,0.96-0.41,1.93-0.65,2.85c-0.18,0.63-0.31,1.24-0.52,1.86c-0.2,0.62-0.4,1.23-0.59,1.84
				c-0.42,1.15-0.85,2.35-1.28,3.46c-0.3,0.78-0.6,1.51-0.9,2.25c0.15-0.96,0.41-2.84,0.41-3c0.04-1.66-0.55-4.35-1.72-6.24
				c0.01-0.24-0.01-0.49-0.05-0.73c-0.31-1.91-2.1-3.32-4.04-2.8c-2.7,0.72-4.41,5.46-4.54,7.95c-0.01,0.15,0.09,1.75,0.17,2.76
				c-0.14-0.59-0.26-1.16-0.41-1.76c-0.28-1.19-0.6-2.38-0.94-3.65c-0.18-0.61-0.37-1.22-0.56-1.85c-0.17-0.62-0.44-1.25-0.65-1.89
				c-0.53-1.46-1.15-2.91-1.79-4.36c1.04-0.25,4.74-1.19,6.23-2.33c1.48-1.13,3.04-2.99,3.03-4.96c-0.01-1.93-1.57-3.6-3.57-3.38
				c-2.78,0.3-5.19,4.72-5.69,7.17c-0.03,0.15-0.2,1.95-0.27,2.93c-0.4-0.87-0.79-1.74-1.22-2.6c-1.24-2.5-2.57-4.99-3.89-7.48
				c-0.4-0.76-0.8-1.53-1.2-2.29c0.37-0.08,4.79-1.11,6.45-2.39c1.48-1.13,3.04-2.99,3.03-4.96c-0.01-1.93-1.57-3.6-3.57-3.38
				c-2.78,0.3-5.19,4.72-5.69,7.17c-0.04,0.18-0.27,2.76-0.3,3.42c-0.87-1.68-1.73-3.37-2.51-5.06c-1.07-2.34-2-4.69-2.73-7.04
				c0.17-0.04,4.79-1.09,6.49-2.39c1.48-1.13,3.04-2.99,3.03-4.96c-0.01-1.93-1.57-3.6-3.57-3.38c-2.78,0.3-5.19,4.72-5.69,7.17
				c-0.04,0.19-0.29,2.97-0.3,3.47c-0.04-0.14-0.1-0.28-0.14-0.42c-0.74-2.52-1.15-5.04-1.41-7.43c-0.16-1.39-0.23-2.72-0.27-4.02
				c0.88-0.11,4.89-0.64,6.56-1.65c1.59-0.96,3.35-2.64,3.56-4.6c0.2-1.92-1.16-3.75-3.18-3.76c-2.79-0.01-5.67,4.13-6.44,6.5
				c-0.04,0.13-0.32,1.49-0.51,2.48c-0.01-0.59-0.03-1.19-0.03-1.75c0-2.11,0.14-4.05,0.27-5.76c0.08-0.97,0.18-1.85,0.27-2.67
				c0.81-0.56,4.04-2.84,5.03-4.46c0.97-1.59,1.76-3.89,1.04-5.72c-0.71-1.8-2.76-2.79-4.55-1.87c-2.48,1.28-3.13,6.28-2.72,8.74
				c0.04,0.21,0.97,3.47,1.02,3.44c0,0,0.04-0.03,0.05-0.03c-0.11,0.79-0.22,1.63-0.32,2.56c-0.17,1.71-0.35,3.65-0.4,5.77
				c-0.06,2.12-0.06,4.42,0.16,6.85c0.22,2.43,0.57,4.98,1.27,7.56c0.01,0.03,0.02,0.06,0.03,0.09c-0.44-0.69-1.73-2.58-1.85-2.71
				c-1.63-1.89-5.89-4.57-8.46-3.48c-1.85,0.79-2.39,3-1.46,4.7c0.95,1.73,3.22,2.58,5.07,2.85c2.08,0.3,6.45-0.97,6.8-1.07
				c0.69,2.45,1.6,4.91,2.65,7.34c0.6,1.39,1.25,2.78,1.92,4.16c-0.4-0.58-0.76-1.1-0.82-1.17c-1.63-1.89-5.89-4.57-8.46-3.48
				c-1.85,0.79-2.39,3-1.46,4.69c0.95,1.73,3.22,2.58,5.07,2.85c1.87,0.27,5.62-0.73,6.61-1.01c0.26,0.53,0.52,1.06,0.78,1.58
				c1.27,2.52,2.54,5.03,3.72,7.54c0.41,0.88,0.79,1.76,1.17,2.65c-0.36-0.52-0.66-0.95-0.71-1.01c-1.63-1.89-5.89-4.57-8.46-3.48
				c-1.85,0.79-2.39,3-1.46,4.7c0.95,1.73,3.22,2.58,5.07,2.85c1.78,0.26,5.26-0.64,6.43-0.96c0.36,0.92,0.72,1.83,1.03,2.73
				c0.2,0.62,0.43,1.21,0.59,1.84c0.17,0.63,0.35,1.24,0.52,1.86c0.29,1.19,0.59,2.42,0.84,3.59c0.18,0.81,0.34,1.59,0.5,2.37
				c-0.4-0.88-1.23-2.59-1.31-2.73c-1.33-2.11-5.13-5.41-7.84-4.72c-1.95,0.5-2.82,2.61-2.16,4.42c0.68,1.85,2.79,3.04,4.58,3.59
				c1.96,0.6,6.3,0.05,6.84-0.02c0.26,1.3,0.5,2.56,0.71,3.76c0.73,4.15,1.18,7.63,1.46,10.07c0.05,0.43,0.09,0.82,0.13,1.18h-8.4
				l3.07,59.88h14.32l3.07-59.88h-7.83c0.06-0.12,0.11-0.23,0.17-0.36c1.07-2.24,2.56-5.45,4.17-9.39c0.51-1.24,1.03-2.58,1.56-3.96
				c0.53,0.11,4.82,0.98,6.83,0.53c1.82-0.41,4.02-1.44,4.83-3.23c0.8-1.76,0.08-3.93-1.82-4.57c-2.65-0.89-6.69,2.12-8.17,4.12
				c-0.09,0.12-0.89,1.51-1.38,2.39c0.21-0.56,0.42-1.11,0.63-1.69c0.42-1.15,0.81-2.31,1.23-3.56c0.18-0.61,0.37-1.23,0.55-1.85
				c0.2-0.61,0.33-1.29,0.5-1.93c0.36-1.51,0.65-3.06,0.91-4.63c1.01,0.37,4.61,1.62,6.48,1.49c1.86-0.13,4.19-0.81,5.26-2.47
				c1.05-1.62,0.68-3.87-1.11-4.79c-2.48-1.28-6.93,1.08-8.7,2.84c-0.11,0.11-1.24,1.51-1.84,2.3c0.15-0.94,0.3-1.88,0.42-2.84
				c0.34-2.77,0.61-5.58,0.88-8.39c0.08-0.86,0.18-1.71,0.27-2.57c0.36,0.13,4.61,1.72,6.7,1.57c1.86-0.13,4.19-0.81,5.26-2.46
				c1.05-1.62,0.68-3.87-1.11-4.79c-2.48-1.28-6.93,1.08-8.7,2.84c-0.13,0.13-1.75,2.16-2.14,2.69c0.2-1.89,0.42-3.76,0.7-5.61
				c0.39-2.54,0.92-5.02,1.61-7.37c0.17,0.06,4.6,1.73,6.74,1.58c1.86-0.13,4.19-0.81,5.26-2.47c1.05-1.62,0.68-3.87-1.11-4.79
				c-2.48-1.28-6.93,1.08-8.7,2.84c-0.14,0.14-1.88,2.32-2.17,2.73c0.04-0.14,0.07-0.29,0.11-0.43c0.77-2.51,1.82-4.84,2.92-6.98
				c0.64-1.24,1.31-2.39,2-3.5c0.79,0.4,4.44,2.16,6.38,2.24c1.86,0.07,4.25-0.35,5.5-1.87c1.22-1.49,1.1-3.77-0.58-4.88
				c-2.33-1.55-7.01,0.31-8.96,1.87c-0.11,0.08-1.09,1.06-1.79,1.79c0.32-0.49,0.63-1.01,0.95-1.48c1.17-1.76,2.35-3.3,3.4-4.65
				c0.61-0.77,1.17-1.45,1.7-2.08c0.98-0.02,4.93-0.14,6.66-0.95c1.69-0.79,3.61-2.27,4.02-4.2
				C455.74,248.38,454.58,246.41,452.58,246.2z M421.84,320.79c-1.68,3.86-3.22,7.01-4.33,9.2c-0.22,0.44-0.42,0.83-0.61,1.19h-0.19
				c-0.05-0.43-0.12-0.89-0.19-1.42c-0.34-2.46-0.87-5.96-1.7-10.13c-0.26-1.32-0.56-2.72-0.89-4.16c0.33-0.13,2.18-0.88,3.82-1.8
				c1.43,1.55,5.09,3.36,5.57,3.59C422.82,318.49,422.32,319.68,421.84,320.79z"/>
			<path class="st0" d="M437.95,263.96c0.04,0.03,0.89-3.26,0.92-3.47c0.34-2.47-0.44-7.44-2.96-8.66c-1.81-0.88-3.84,0.18-4.5,1.99
				c-0.67,1.85,0.18,4.13,1.19,5.69C433.79,261.35,437.94,263.96,437.95,263.96z"/>
		</g>
		<g class="st4">
			<path class="st2" d="M452.58,246.2c-2.78-0.3-6.08,3.51-7.09,5.78c-0.09,0.2-1.1,3.43-1.05,3.43c0,0,0.05,0,0.06,0
				c-0.53,0.6-1.08,1.24-1.68,1.96c-1.09,1.33-2.3,2.85-3.51,4.59c-1.21,1.74-2.49,3.66-3.64,5.8c-1.16,2.15-2.27,4.47-3.11,7
				c-0.01,0.03-0.02,0.06-0.02,0.09c0.01-0.82-0.02-3.11-0.04-3.28c-0.32-2.47-2.39-7.06-5.14-7.57c-1.98-0.37-3.65,1.18-3.81,3.11
				c-0.16,1.96,1.26,3.93,2.65,5.17c1.57,1.4,5.91,2.75,6.26,2.86c-0.77,2.42-1.37,4.97-1.84,7.59c-0.27,1.49-0.49,3.01-0.69,4.53
				c-0.01-0.71-0.02-1.34-0.04-1.43c-0.32-2.47-2.39-7.06-5.14-7.57c-1.98-0.37-3.65,1.18-3.81,3.11c-0.16,1.96,1.26,3.93,2.65,5.17
				c1.41,1.26,5.09,2.49,6.07,2.8c-0.07,0.58-0.15,1.17-0.22,1.75c-0.34,2.8-0.66,5.6-1.06,8.34c-0.14,0.96-0.31,1.91-0.48,2.85
				c-0.01-0.63-0.02-1.16-0.03-1.24c-0.32-2.47-2.39-7.06-5.14-7.57c-1.98-0.37-3.65,1.18-3.81,3.11c-0.16,1.96,1.26,3.93,2.65,5.17
				c1.34,1.2,4.74,2.37,5.9,2.74c-0.2,0.96-0.41,1.93-0.65,2.85c-0.18,0.63-0.31,1.24-0.52,1.86c-0.2,0.62-0.4,1.23-0.59,1.84
				c-0.42,1.15-0.85,2.35-1.28,3.46c-0.3,0.78-0.6,1.51-0.9,2.25c0.15-0.96,0.41-2.84,0.41-3c0.04-1.66-0.55-4.35-1.72-6.24
				c0.01-0.24-0.01-0.49-0.05-0.73c-0.31-1.91-2.1-3.32-4.04-2.8c-2.7,0.72-4.41,5.46-4.54,7.95c-0.01,0.15,0.09,1.75,0.17,2.76
				c-0.14-0.59-0.26-1.16-0.41-1.76c-0.28-1.19-0.6-2.38-0.94-3.65c-0.18-0.61-0.37-1.22-0.56-1.85c-0.17-0.62-0.44-1.25-0.65-1.89
				c-0.53-1.46-1.15-2.91-1.79-4.36c1.04-0.25,4.74-1.19,6.23-2.33c1.48-1.13,3.04-2.99,3.03-4.96c-0.01-1.93-1.57-3.6-3.57-3.38
				c-2.78,0.3-5.19,4.72-5.69,7.17c-0.03,0.15-0.2,1.95-0.27,2.93c-0.4-0.87-0.79-1.74-1.22-2.6c-1.24-2.5-2.57-4.99-3.89-7.48
				c-0.4-0.76-0.8-1.53-1.2-2.29c0.37-0.08,4.79-1.11,6.45-2.39c1.48-1.13,3.04-2.99,3.03-4.96c-0.01-1.93-1.57-3.6-3.57-3.38
				c-2.78,0.3-5.19,4.72-5.69,7.17c-0.04,0.18-0.27,2.76-0.3,3.42c-0.87-1.68-1.73-3.37-2.51-5.06c-1.07-2.34-2-4.69-2.73-7.04
				c0.17-0.04,4.79-1.09,6.49-2.39c1.48-1.13,3.04-2.99,3.03-4.96c-0.01-1.93-1.57-3.6-3.57-3.38c-2.78,0.3-5.19,4.72-5.69,7.17
				c-0.04,0.19-0.29,2.97-0.3,3.47c-0.04-0.14-0.1-0.28-0.14-0.42c-0.74-2.52-1.15-5.04-1.41-7.43c-0.16-1.39-0.23-2.72-0.27-4.02
				c0.88-0.11,4.89-0.64,6.56-1.65c1.59-0.96,3.35-2.64,3.56-4.6c0.2-1.92-1.16-3.75-3.18-3.76c-2.79-0.01-5.67,4.13-6.44,6.5
				c-0.04,0.13-0.32,1.49-0.51,2.48c-0.01-0.59-0.03-1.19-0.03-1.75c0-2.11,0.14-4.05,0.27-5.76c0.08-0.97,0.18-1.85,0.27-2.67
				c0.81-0.56,4.04-2.84,5.03-4.46c0.97-1.59,1.76-3.89,1.04-5.72c-0.71-1.8-2.76-2.79-4.55-1.87c-2.48,1.28-3.13,6.28-2.72,8.74
				c0.04,0.21,0.97,3.47,1.02,3.44c0,0,0.04-0.03,0.05-0.03c-0.11,0.79-0.22,1.63-0.32,2.56c-0.17,1.71-0.35,3.65-0.4,5.77
				c-0.06,2.12-0.06,4.42,0.16,6.85c0.22,2.43,0.57,4.98,1.27,7.56c0.01,0.03,0.02,0.06,0.03,0.09c-0.44-0.69-1.73-2.58-1.85-2.71
				c-1.63-1.89-5.89-4.57-8.46-3.48c-1.85,0.79-2.39,3-1.46,4.7c0.95,1.73,3.22,2.58,5.07,2.85c2.08,0.3,6.45-0.97,6.8-1.07
				c0.69,2.45,1.6,4.91,2.65,7.34c0.6,1.39,1.25,2.78,1.92,4.16c-0.4-0.58-0.76-1.1-0.82-1.17c-1.63-1.89-5.89-4.57-8.46-3.48
				c-1.85,0.79-2.39,3-1.46,4.69c0.95,1.73,3.22,2.58,5.07,2.85c1.87,0.27,5.62-0.73,6.61-1.01c0.26,0.53,0.52,1.06,0.78,1.58
				c1.27,2.52,2.54,5.03,3.72,7.54c0.41,0.88,0.79,1.76,1.17,2.65c-0.36-0.52-0.66-0.95-0.71-1.01c-1.63-1.89-5.89-4.57-8.46-3.48
				c-1.85,0.79-2.39,3-1.46,4.7c0.95,1.73,3.22,2.58,5.07,2.85c1.78,0.26,5.26-0.64,6.43-0.96c0.36,0.92,0.72,1.83,1.03,2.73
				c0.2,0.62,0.43,1.21,0.59,1.84c0.17,0.63,0.35,1.24,0.52,1.86c0.29,1.19,0.59,2.42,0.84,3.59c0.18,0.81,0.34,1.59,0.5,2.37
				c-0.4-0.88-1.23-2.59-1.31-2.73c-1.33-2.11-5.13-5.41-7.84-4.72c-1.95,0.5-2.82,2.61-2.16,4.42c0.68,1.85,2.79,3.04,4.58,3.59
				c1.96,0.6,6.3,0.05,6.84-0.02c0.26,1.3,0.5,2.56,0.71,3.76c0.73,4.15,1.18,7.63,1.46,10.07c0.05,0.43,0.09,0.82,0.13,1.18h-8.4
				l3.07,59.88h14.32l3.07-59.88h-7.83c0.06-0.12,0.11-0.23,0.17-0.36c1.07-2.24,2.56-5.45,4.17-9.39c0.51-1.24,1.03-2.58,1.56-3.96
				c0.53,0.11,4.82,0.98,6.83,0.53c1.82-0.41,4.02-1.44,4.83-3.23c0.8-1.76,0.08-3.93-1.82-4.57c-2.65-0.89-6.69,2.12-8.17,4.12
				c-0.09,0.12-0.89,1.51-1.38,2.39c0.21-0.56,0.42-1.11,0.63-1.69c0.42-1.15,0.81-2.31,1.23-3.56c0.18-0.61,0.37-1.23,0.55-1.85
				c0.2-0.61,0.33-1.29,0.5-1.93c0.36-1.51,0.65-3.06,0.91-4.63c1.01,0.37,4.61,1.62,6.48,1.49c1.86-0.13,4.19-0.81,5.26-2.47
				c1.05-1.62,0.68-3.87-1.11-4.79c-2.48-1.28-6.93,1.08-8.7,2.84c-0.11,0.11-1.24,1.51-1.84,2.3c0.15-0.94,0.3-1.88,0.42-2.84
				c0.34-2.77,0.61-5.58,0.88-8.39c0.08-0.86,0.18-1.71,0.27-2.57c0.36,0.13,4.61,1.72,6.7,1.57c1.86-0.13,4.19-0.81,5.26-2.46
				c1.05-1.62,0.68-3.87-1.11-4.79c-2.48-1.28-6.93,1.08-8.7,2.84c-0.13,0.13-1.75,2.16-2.14,2.69c0.2-1.89,0.42-3.76,0.7-5.61
				c0.39-2.54,0.92-5.02,1.61-7.37c0.17,0.06,4.6,1.73,6.74,1.58c1.86-0.13,4.19-0.81,5.26-2.47c1.05-1.62,0.68-3.87-1.11-4.79
				c-2.48-1.28-6.93,1.08-8.7,2.84c-0.14,0.14-1.88,2.32-2.17,2.73c0.04-0.14,0.07-0.29,0.11-0.43c0.77-2.51,1.82-4.84,2.92-6.98
				c0.64-1.24,1.31-2.39,2-3.5c0.79,0.4,4.44,2.16,6.38,2.24c1.86,0.07,4.25-0.35,5.5-1.87c1.22-1.49,1.1-3.77-0.58-4.88
				c-2.33-1.55-7.01,0.31-8.96,1.87c-0.11,0.08-1.09,1.06-1.79,1.79c0.32-0.49,0.63-1.01,0.95-1.48c1.17-1.76,2.35-3.3,3.4-4.65
				c0.61-0.77,1.17-1.45,1.7-2.08c0.98-0.02,4.93-0.14,6.66-0.95c1.69-0.79,3.61-2.27,4.02-4.2
				C455.74,248.38,454.58,246.41,452.58,246.2z M421.84,320.79c-1.68,3.86-3.22,7.01-4.33,9.2c-0.22,0.44-0.42,0.83-0.61,1.19h-0.19
				c-0.05-0.43-0.12-0.89-0.19-1.42c-0.34-2.46-0.87-5.96-1.7-10.13c-0.26-1.32-0.56-2.72-0.89-4.16c0.33-0.13,2.18-0.88,3.82-1.8
				c1.43,1.55,5.09,3.36,5.57,3.59C422.82,318.49,422.32,319.68,421.84,320.79z"/>
			<path class="st2" d="M388.37,262.88c2,0.88,6.91,0.77,6.91,0.76c0.05,0-1.05-3.21-1.15-3.4c-1.08-2.25-4.48-5.96-7.24-5.59
				c-1.99,0.27-3.1,2.26-2.65,4.14C384.7,260.71,386.66,262.14,388.37,262.88z"/>
			<path class="st2" d="M437.95,263.96c0.04,0.03,0.89-3.26,0.92-3.47c0.34-2.47-0.44-7.44-2.96-8.66c-1.81-0.88-3.84,0.18-4.5,1.99
				c-0.67,1.85,0.18,4.13,1.19,5.69C433.79,261.35,437.94,263.96,437.95,263.96z"/>
		</g>
	</g>
</g>
<g id="Character_2">
	<g>
		<g>
			<path class="st5" d="M315.15,185.85l-29.82,29.82c0,0-13.98-27.75-15.16-32.47c-1.18-4.72-3.24-9.14-4.13-9.14
				c-0.88,0-8.26-1.77-8.26-1.77s-8.85-0.59-9.44,0.29c-0.59,0.88,4.6,4.63,6.96,7.28c2.36,2.65,1.95,4.73,6.08,7.09
				s4.07,1.85,4.07,1.85s10.7,30.8,12.67,35.71c0.81,2.02,2.27,3.43,3.73,4.39c2.11,1.4,4.92,1.13,6.78-0.58l20.29-18.55
				c0,0,9.17-9.83,9.83-18.02C319.4,183.56,315.15,185.85,315.15,185.85z"/>
			<g>
				<path class="st0" d="M260.83,179.91h-19.76c-1.06,0-1.92-0.86-1.92-1.92v-10.83c0-1.06,0.86-1.92,1.92-1.92h19.76
					c1.06,0,1.92,0.86,1.92,1.92v10.83C262.75,179.05,261.89,179.91,260.83,179.91z"/>
				<rect x="239.14" y="167.15" class="st6" width="23.61" height="3.4"/>
			</g>
			<path class="st5" d="M267.94,180.28c0,0-2.13-4-2.93-4c-0.8,0-9.6-2.4-10.94-2.13c-1.33,0.27,0,2.4,1.33,2.67
				c1.33,0.27,6.67,3.2,6.67,3.2s0.53,5.87,4.53,6.94"/>
		</g>
		<path class="st6" d="M377.46,412.76c0,2.59-16.67,4.7-37.24,4.7c-20.57,0-37.24-2.1-37.24-4.7c0-2.59,16.67-4.7,37.24-4.7
			C360.79,408.06,377.46,410.17,377.46,412.76z"/>
		<path class="st5" d="M305.62,301.89c0,0,8.16,29.1,8.75,38.53c0.6,9.44,2.31,36.57,3.06,48.37s-4.83,17.28-7.09,19
			c-2.26,1.72-9.53,5.34-6.73,5.95c2.8,0.61,14.18-0.5,17.52-3.87c3.34-3.37,8.57-8.04,9.14-11.63c0.56-3.59-4.26-4.86-4.75-12.73
			c-0.5-7.86,3.72-28.66,4.23-39.35c0.51-10.69-5.55-25.31-6.02-32.78c-0.47-7.47-0.5-14.18-0.5-14.18L305.62,301.89z"/>
		<g>
			<polygon class="st0" points="331.79,402.02 331.01,412.25 328.66,412.25 326.83,405.99 			"/>
			<path class="st0" d="M303.38,413.64c2.76,0.79,14.18,0.39,17.73-2.76s9.89-5.32,10.67-8.86c0.34-1.54-0.51-3.11-1.58-5.04
				c-0.84,1.54-2.2,3.65-4.16,5.61c-3.65,3.65-10.96,6.79-10.96,6.79l-4.61-1.26C308.11,409.7,300.62,412.85,303.38,413.64z"/>
		</g>
		<path class="st5" d="M315.85,304.3c0,0,6.3,29.55,6.3,39.01c0,9.46,0,36.64,0,48.46c0,11.82-5.91,16.94-8.27,18.52
			c-2.36,1.58-9.85,4.73-7.09,5.52c2.76,0.79,14.18,0.39,17.73-2.76c3.55-3.15,9.89-5.32,10.67-8.86c0.79-3.55-4.76-7.29-4.76-15.17
			s5.52-28.37,6.7-39.01c1.18-10.64-3.94-25.61-3.94-33.1c0-7.49,0.39-14.18,0.39-14.18L315.85,304.3z"/>
		<g>
			<path class="st7" d="M316.54,153.08c0,0-13.11-5.9-12.45-13.76c0.66-7.86,19.33-13.76,34.07-13.76
				c14.74,0,20.97,13.11,20.97,20.64c0,7.54-7.21,15.73-3.28,23.26c3.93,7.54,20.96,8.94,27.3,25.84
				c4.91,13.11,0.66,20.97-4.26,27.52c-4.91,6.55-5.57,9.83-0.98,17.37c4.59,7.54-4.26,31.45-25.88,32.11s-31.45-20.97-30.14-36.37
				c1.31-15.4,10.16-39.64,11.8-55.37c1.64-15.73-0.1-16.66-5.02-21.25C323.75,154.72,316.54,153.08,316.54,153.08z"/>
			<path class="st8" d="M322.35,139.98c0,0-5.9-3.93-1.47-6.39c4.42-2.46,13.76-4.91,21.62-3.93"/>
			<path class="st8" d="M320.26,141.89c0,0-14.34-5.1-14.02-0.96c0.32,4.14,10.51,7.97,11.15,5.74s-4.78-3.82-4.78-3.82"/>
			<path class="st8" d="M325.99,135.52c0,0,3.19-0.32,7.01,7.33c3.82,7.65,7.33,13.38,14.66,14.34c7.33,0.96,9.24-2.23,9.24-2.23"/>
			<path class="st8" d="M366.38,180.5c1.83,0.48,3.58,1.06,5.18,1.85"/>
			<path class="st8" d="M344.16,167.38c0,0-0.64,4.46,5.74,8.28c3.68,2.21,8.2,3.03,12.6,3.95"/>
			<path class="st8" d="M355.37,146.13c0.87,0.27,1.8,0.46,2.8,0.54"/>
			<path class="st8" d="M334.28,132.97c0,0,4.14-1.27,8.28,2.23c2.72,2.3,5.16,6.24,8.76,8.86"/>
		</g>
		<g>
			<path class="st0" d="M335.46,184.87c0,0-19.66-1.64-21.3-0.66c-1.64,0.98-4.91,11.14-8.52,15.07c-3.6,3.93-5.24,6.23-4.26,9.5
				c0.98,3.28,3.28,20.64,3.28,20.64l-22.28,74.7c0,0,9.2,7,32.79,8.31c23.59,1.31,38.97-12.57,38.97-12.57l-23.59-68.8
				c0,0,21.3-32.76,22.28-37.02C353.81,189.78,335.46,184.87,335.46,184.87z"/>
			<path class="st9" d="M316.12,211.67c0,0-0.32,4.78,6.37,8.92"/>
			<line class="st9" x1="310.06" y1="231.74" x2="304.97" y2="255.32"/>
			<line class="st9" x1="313.57" y1="232.69" x2="312.61" y2="245.12"/>
			<line class="st9" x1="326.63" y1="232.06" x2="333" y2="257.86"/>
			<line class="st9" x1="324.4" y1="233.65" x2="323.45" y2="247.03"/>
		</g>
		<path class="st5" d="M333.68,180.56c0,0-6.23-0.98-10.16,2.29c-3.93,3.28-7.86,12.45-7.86,12.45l12.12-1.64l7.21,8.52
			c0,0,6.55-8.52,6.55-14.74C341.55,181.21,333.68,180.56,333.68,180.56z"/>
		<g>
			<path class="st5" d="M384.92,203.54c0,0,3.2-3.84,3.31-6.72c0.11-2.88-0.3-2.48-1.38-0.71
				C385.78,197.88,384.92,203.54,384.92,203.54z"/>
			<line class="st5" x1="375.43" y1="280.69" x2="357.92" y2="235.58"/>
			<line class="st5" x1="371.47" y1="280.34" x2="356.91" y2="233.89"/>
			<path class="st5" d="M351.27,192.16c0,0-15.58,12.79-16.75,19.54c-1.16,6.75,8.61,0.23,8.61,0.23s4.65,20.93,6.98,27.21
				c2.33,6.28,3.72,10.93,6.51,9.54c2.79-1.4,18.37-43.73,18.37-43.73s6.05,0.23,8.61-0.47c2.56-0.7,3.02-6.05,3.26-8.37
				c0.23-2.33-1.86-0.7-1.86,0c0,0.7-1.63,4.88-2.79,5.35c-1.16,0.47-6.28-2.56-6.28-2.56s4.88-0.93,4.88-2.33
				c0-1.4-0.23-1.63-1.63-0.93c-1.4,0.7-4.42,1.86-6.98,2.09c-2.56,0.23-3.49,2.79-3.49,5.58c0,2.79-1.16,3.95-2.56,8.61
				c-1.4,4.65-10.25,20.62-10.25,20.62s-3.01-22.71-2.78-28.53C353.36,198.2,355.45,193.09,351.27,192.16z"/>
			<line class="st5" x1="343.13" y1="211.93" x2="341.73" y2="208.44"/>
			<path class="st5" d="M370.8,204.25c0,0,1.63-2.79,3.26-3.26c1.63-0.47,8.14,0.47,8.14,0.47s0.66-6.73,1.86-6.75
				c1.2-0.02,0.23,7.21-0.47,8.84c-0.7,1.63-8.61,1.4-8.61,1.4"/>
			<g>
				<polygon class="st5" points="371.47,280.34 338.84,278.34 330.06,327.53 375.32,328.46 				"/>
				<polygon class="st7" points="338.84,278.34 324.17,325.57 327.4,323.87 330.06,327.53 				"/>
			</g>
			<g>
				<polygon class="st5" points="375.43,280.69 342.77,282.04 339.07,331.86 384.18,328.16 				"/>
				<polygon class="st7" points="342.77,282.04 333.01,330.52 336.04,328.5 339.07,331.86 				"/>
			</g>
			<line class="st5" x1="342.77" y1="282.04" x2="355.9" y2="231.54"/>
			<line class="st5" x1="338.84" y1="278.34" x2="355.9" y2="232.55"/>
		</g>
		<g>
			<path class="st5" d="M315.19,151.44c0,0-1.44,11.49-1.44,15.32c0,3.83,4.79,11.49,6.46,12.45c1.68,0.96,10.29-1.92,10.29-1.92
				s-1.49,3.81-2.44,6.2c-0.96,2.39-4.31,7.9-4.31,11.73c0,3.83,1.92,5.27,5.03,2.63s7.18-8.86,7.42-11.73
				c0.24-2.87,4.12-15.06,4.12-15.06l0.24-2.63c0,0,3.11-2.87,3.83-5.99c0.72-3.11,1.44-6.46-1.92-5.51
				c-3.35,0.96-4.79,3.35-4.79,3.35s-5.51-1.44-8.86-4.55c-3.35-3.11-6.22-12.93-6.22-12.93L315.19,151.44z"/>
			<polygon class="st5" points="333.37,155.05 342.48,156.94 340.09,158.03 333.07,157.59 			"/>
			<path class="st5" d="M316.41,152.55c0,0-3.24-0.31-6.64-0.44c0,0-0.63,0.72-0.23,1.71c0.4,0.99-1.01,5.41,0.64,7.52
				c1.65,2.1,4.69,2.16,6.38,2.06s2.92-4.93,3.03-5.95c0.11-1.02,0.21-2.05,1.06-2.1c0.84-0.05,0.29,2.02,0.56,3.7
				s-0.08,4.24,1.5,5.16c1.58,0.92,3.66,1.64,7.33,0.57c3.67-1.07,3.78-7.52,4.09-8.05c0.12-0.21,0.51-0.68,0.94-1.17
				c0.54-0.62,0.14-1.59-0.68-1.65l-1.96-0.14c0,0-9.2-0.8-11.23-0.67l-2.05-0.21L316.41,152.55z"/>
			<path class="st7" d="M318.18,161.83c-3.32-3.81-6.63-6.07-8.58-7.21c-0.07,1.66-0.79,4.98,0.58,6.71
				c1.65,2.1,4.69,2.16,6.38,2.06C317.17,163.36,317.72,162.7,318.18,161.83z"/>
			<path class="st5" d="M320.34,156.43c0,0-2.88,5.42-4.23,6.43c-1.35,1.02,3.28,3.24,4.13,3.24"/>
			<path class="st9" d="M318.89,169.68c0,0,1.34,2.24,5.67-0.15"/>
			<path class="st7" d="M331.06,164.28c-4.11-5.49-9.63-8.48-9.63-8.48l-0.28,0.65c0.01,0.73-0.07,1.71,0.07,2.59
				c0.27,1.68-0.08,4.24,1.5,5.16c1.58,0.92,3.66,1.64,7.33,0.57C330.42,164.67,330.75,164.49,331.06,164.28z"/>
		</g>
		<g>
			<polygon class="st0" points="335.2,404.18 334.42,414.42 332.07,414.42 330.24,408.15 			"/>
			<path class="st0" d="M306.79,415.8c2.76,0.79,14.18,0.39,17.73-2.76c3.55-3.15,9.89-5.32,10.67-8.86
				c0.34-1.53-0.51-3.11-1.58-5.04c-0.84,1.54-2.2,3.65-4.16,5.61c-3.65,3.65-10.96,6.79-10.96,6.79l-4.61-1.26
				C311.52,411.86,304.03,415.02,306.79,415.8z"/>
		</g>
	</g>
</g>
<g id="Character_1">
	<g>
		<g>
			<g>
				<path class="st5" d="M168.01,187.19c0,0,3.12,1.45,2.7,2.08c-0.42,0.62-2.7,3.74-2.7,3.74l-6.02,0.21c0,0-1.04-2.49-0.62-3.74
					C161.78,188.23,167.18,186.36,168.01,187.19z"/>
				<path class="st5" d="M154.51,193.63c0,0,6.44-6.44,7.06-7.27c0.62-0.83,11.84-1.45,13.71-1.66c1.87-0.21,2.49,0,1.66,1.25
					c-0.83,1.25-9.55,2.08-9.55,2.08l-3.12,1.66l-1.87,2.28c0,0,0.42,0,2.49,0c2.08,0,6.02-0.21,6.02-0.21s0.62,1.87-1.04,2.28
					c-1.66,0.42-3.95,0.83-5.82,0.83s-3.32,1.45-5.19,1.66c-1.87,0.21-3.32,0.42-3.32,0.42s-33.85,21.81-35.52,22.22
					c-1.66,0.42-22.22-4.36-22.22-4.36l3.95-10.59l16.82,2.49L154.51,193.63z"/>
			</g>
			<path class="st0" d="M75.48,197.48c0,0,2.31-5.87,7.68-4.95c5.37,0.91,36.85,11.39,36.85,11.39l-2.29,16.76
				c0,0-23.5-3.43-29.93-5.55c-6.43-2.11-9.42-6.08-9.42-6.08"/>
		</g>
		<path class="st6" d="M255.92,412.76c0,2.59-46.55,4.7-103.96,4.7S48,415.36,48,412.76c0-2.59,46.55-4.7,103.96-4.7
			S255.92,410.17,255.92,412.76z"/>
		<g>
			<path class="st5" d="M109.97,316.09c0,0,0,16.19-1.85,31.46c-1.13,9.35-1.95,18.75-2.62,28.14c-0.36,4.97-1.02,9.94-0.98,14.93
				c0.02,2.09-0.36,8.47,1.28,10.13c0,0,3.24,3.24,6.01,5.09c2.78,1.85,11.1,3.24,9.71,5.55c-1.39,2.31-20.82-0.93-20.82-0.93
				s-4.16,1.39-6.48-1.39c-2.31-2.78,2.78-8.79,3.24-13.88s0-17.12-1.39-34.23c-1.39-17.12,1.39-29.14,1.39-29.14l-1.85-16.19
				L109.97,316.09z"/>
			<path class="st7" d="M103.03,401.98c-1.23,1.54-2.16,2.47-2.16,2.47s-3.47-1.49-5.69-2.28c-1.22,2.83-2.22,5.37-0.94,6.91
				c2.31,2.78,6.48,1.39,6.48,1.39s19.43,3.24,20.82,0.93c1.39-2.31-6.94-3.7-9.71-5.55c-2.78-1.85-6.01-5.09-6.01-5.09
				S104.27,400.44,103.03,401.98z"/>
		</g>
		<g>
			<path class="st5" d="M101.18,317.94c0,0-0.46,15.27-1.39,19.89s-1.09,10.74-15.73,46.26c-5.13,12.43-6.32,16.04-6.32,16.04
				s0.32,5.74,8.01,8.77c7,2.77,6.48,4.05,3.24,4.05c-3.24,0-7.24,1.21-12.33-0.18c-5.09-1.39-7.22-3.96-9.54-4.89
				c-3.8-1.53,1.1-6.83,2.26-8.4c2.66-3.57,4.19-8.04,5.27-12.32c4.63-18.35,3.85-28.99,5.71-37.32c1.85-8.33,6.94-14.34,6.94-14.34
				l-3.24-16.65L101.18,317.94z"/>
			<path class="st7" d="M88.99,412.95c3.24,0,3.77-1.28-3.24-4.05c-7.69-3.04-8.01-8.77-8.01-8.77s0.07-0.2,0.22-0.63
				c-0.62-0.13-1.38-0.07-2.07,0.63c-1.54,1.54-2.78,2.16-2.78,2.16l-3.86-2.63c-1.34,1.73-5.82,6.75-2.13,8.23
				c2.32,0.93,4.45,3.5,9.54,4.89C81.75,414.16,85.75,412.95,88.99,412.95z"/>
		</g>
		<g>
			<path class="st0" d="M91.56,178.1c0,0,5.86,8.36,12.45,17.3c6.6,8.94,8.13,12.62,6.53,18.04c-1.6,5.41-6.24,13.21-6.01,16.13
				c0.23,2.91,3.6,8.62-0.92,10.2c-10.15,3.56-21.4-2.78-21.4-2.78S78.77,226.2,75.25,213s-0.37-23.52,3.35-26.93
				C82.31,182.67,87.79,173.63,91.56,178.1z"/>
		</g>
		<g>
			<g>
				<circle class="st7" cx="76.9" cy="138.97" r="9.92"/>
				<path class="st7" d="M116.4,147.2c0,0,6.72-0.64,7.68-5.76s-7.04-10.24-10.24-10.24c-3.2,0-4.48-0.64-4.48-0.64
					s-8.64-4.48-17.91-0.64s-12.16,12.8-10.24,20.47c1.92,7.68,7.36,15.35,15.03,15.99C103.93,167.04,116.4,147.2,116.4,147.2z"/>
				<path class="st8" d="M111.47,135.38c0,0-3.26,7.25-11.59,10.87c-8.33,3.62-17.03,4.35-17.75,0"/>
				<path class="st8" d="M104.22,133.21c0,0-5.8,12.68-14.49,12.68"/>
				<path class="st8" d="M112.31,137.62c0,0,10.02-5.87,8.94,3.92"/>
				<path class="st8" d="M84.65,133.93c0,0-4.53,6.72-3.99,11.59"/>
			</g>
			<path class="st5" d="M103.93,171.52c0,0-2.43,4.77-2.72,9.22c-0.29,4.45,1.05,7.92,1.05,7.92l-10.77-11.3c0,0,0.72-3.2,2.01-8.41
				c1.29-5.22,1.6-7.57,1.6-7.57L103.93,171.52z"/>
			<polygon class="st5" points="90.25,172.65 103.18,184.78 101.94,196.28 85.61,178.36 			"/>
			<g>
				<path class="st5" d="M112.31,137.62c0,0,5.75,4.05,6.89,8.99c1.14,4.94-0.17,8.06,0.95,10.9c1.12,2.84,3.73,3.49,1.81,4.43
					c-1.92,0.94-4.47,2.1-4.47,2.1s-2.42,9.26-3.54,10.9c-1.12,1.65-3.98,0.67-7.65-1.01c-3.67-1.68-11.06-6.85-11.75-8.44
					c-0.69-1.59-1.3-3.76-1.3-3.76S112.66,150.83,112.31,137.62z"/>
				<path class="st5" d="M98.49,159.04c0,0-2.88-8-6.4-5.44c-3.52,2.56-2.47,6.34,1.16,8.13c3.63,1.79,4.91,0.19,4.91,0.19"/>
				<path class="st6" d="M114.32,155.82c-0.12,0.89,0.09,1.65,0.46,1.69c0.37,0.05,0.76-0.63,0.88-1.52
					c0.12-0.89-0.09-1.65-0.46-1.69C114.83,154.25,114.43,154.93,114.32,155.82z"/>
				<path class="st9" d="M115.34,166.58c0,0-3.68-1.03-4.73-3.35"/>
				<path class="st10" d="M117.93,151.12c0,0-1.79-2.96-3.91-1.34"/>
			</g>
		</g>
		<path class="st7" d="M82.22,236.99c0,0-6.48,13.42-11.1,26.83c-4.63,13.42,10.64,58.75,10.64,58.75h31.46c0,0,0-31.92,0-54.12
			c0-22.2-7.09-32.38-7.09-32.38S98.41,239.76,82.22,236.99z"/>
		<g>
			<g>
				<polygon class="st7" points="180.12,224.24 175.01,224.24 175.01,194.86 180.12,190.21 				"/>
				
					<rect x="176.29" y="159.09" transform="matrix(0.8309 0.5564 -0.5564 0.8309 134.9797 -67.8722)" class="st7" width="5.75" height="58.12"/>
			</g>
			<path class="st7" d="M209.59,200.47l-34.89,6.21v13.41h46.63v-9.8C221.32,204.08,215.71,199.38,209.59,200.47z"/>
			<rect x="140.84" y="218.18" class="st7" width="80.48" height="16.61"/>
		</g>
		<rect x="112.55" y="241.47" class="st0" width="142.96" height="172.25"/>
		<rect x="112.55" y="241.47" class="st7" width="142.96" height="6.73"/>
		<g>
			<path class="st5" d="M108.82,213.72l6.07,6.43l49.64,10.71l12.5-3.21l9.64,6.79c-2.5,0.71-9.29-2.14-9.29-2.14
				s-3.57,2.5-7.14,2.5s-10.71,0-10.71,0s-44.29-3.93-46.43-3.93c-2.14,0-13.93-9.29-13.93-9.29L108.82,213.72z"/>
			<path class="st0" d="M80.08,186.81c0,0,4.94-3.93,9.13-0.45c4.19,3.48,23.04,26.39,23.04,26.39l-9.32,13.38
				c0,0-16.51-12.84-21.02-17.88c-4.51-5.04-5.12-9.98-5.12-9.98"/>
		</g>
		<rect x="108.19" y="233.96" class="st5" width="154.57" height="9.39"/>
	</g>
</g>
</svg>
