<?xml version="1.0" encoding="utf-8"?>
<!-- Generator: Adobe Illustrator 27.0.0, SVG Export Plug-In . SVG Version: 6.00 Build 0)  -->
<svg version="1.1" id="Layer_1" xmlns="http://www.w3.org/2000/svg" xmlns:xlink="http://www.w3.org/1999/xlink" x="0px" y="0px"
	 viewBox="0 0 640 480" style="enable-background:new 0 0 640 480;" xml:space="preserve">
<style type="text/css">
	.st0{fill:#FFFFFF;}
</style>
<g>
	<g>
		<path class="st0" d="M45,98.6c1.2-4.4,2.4-8.8,3.6-13.1c0.5-1.9,1-3.8,1.6-5.7c0.1-0.4,0-0.7-0.2-1.1c-7.7-14.1-5.9-31.1,4.8-43.1
			c6.5-7.3,14.7-11.5,24.4-12.3c15.9-1.4,30.3,6.8,37.2,21.1c6.4,13.1,4.2,29.5-5.3,40.5c-6,6.9-13.5,11.2-22.6,12.7
			c-8.1,1.3-15.8,0-23.1-3.8c-0.4-0.2-0.8-0.3-1.3-0.2c-6.1,1.6-12.2,3.2-18.4,4.8C45.6,98.5,45.4,98.5,45,98.6z M54,89.7
			c3.7-1,7.2-1.9,10.7-2.8c0.7-0.2,1.3-0.1,2,0.3c6.9,4.1,14.3,5.4,22.2,3.9c16.8-3.3,27.7-19.7,24.5-36.4
			C110.2,38.2,94.4,27.1,78,29.7c-6,1-11.4,3.5-15.9,7.6c-6.4,5.8-9.8,13-10.3,21.5c-0.4,6.8,1.4,13.1,5.1,18.8
			c0.3,0.4,0.3,0.8,0.2,1.3C56,82.5,55,86,54,89.7z"/>
		<path class="st0" d="M70.4,43.2c0.3,0,0.5,0,0.7,0c1.2-0.2,1.8,0.5,2.2,1.5c0.8,1.8,1.5,3.6,2.3,5.4c0.2,0.4,0.3,0.9,0.5,1.3
			c0.6,1,0.5,1.9-0.3,2.8c-0.7,0.9-1.4,1.8-2.1,2.7c-0.5,0.6-0.5,1.1-0.1,1.7c3.1,5.2,7.4,8.9,13,11.2c0.7,0.3,1.3,0.2,1.8-0.5
			c1-1.2,1.9-2.3,2.9-3.6c0.5-0.7,1.1-0.9,1.9-0.6c2.7,1.1,5.3,2.5,7.9,3.8c0.5,0.2,0.6,0.7,0.6,1.2c-0.1,4-1.3,5.9-5.5,7.7
			c-2.4,1-4.9,0.8-7.4,0.1c-9-2.5-15.7-8.2-21-15.6c-1.7-2.4-3.2-4.8-3.8-7.7c-0.9-4.1,0.2-7.6,3.2-10.5
			C68.2,43.3,69.3,43.1,70.4,43.2z"/>
	</g>
	<g>
		<path class="st0" d="M204.9,106.2c1.1,0.2,2.2,0.3,3.2,0.5c10.2,2.1,17.4,7.7,21.4,16.7c6.9,15.8-3.4,32.4-20.3,36.4
			c-5.9,1.4-11.7,1-17.4-1.1c-0.4-0.2-0.7-0.1-1.1,0.2c-5.1,3.2-10.4,3.5-15.8,0.9c-1.3-0.6-1.8-1.9-1-3.1c2.7-4.1,3.1-8.5,1.6-13.1
			c-0.9-2.6-1.7-5.2-2.1-7.9c0,0-0.1-0.1-0.1-0.1c0-1.6,0-3.1,0-4.7c0.3-0.5,0.2-1,0.3-1.6c1.9-11.3,11.2-20.3,23.1-22.6
			c1-0.2,2.1-0.2,3.1-0.5c0.4,0,0.9,0,1.3,0c0.8,0.2,1.7,0.2,2.5,0C204.1,106.2,204.5,106.2,204.9,106.2z M202.1,110.4
			c-0.4,0-1.2,0-2.1,0.1c-8.8,1-15.4,5.2-19.5,12.5c-2.3,4.1-3.1,8.4-2.4,13c0.3,2.3,1.2,4.4,1.9,6.6c1.5,4.6,1.4,9.1-0.7,13.6
			c-0.3,0.6-0.1,0.7,0.5,0.8c3.5,0.7,6.7-0.1,9.4-2.3c0.9-0.8,1.9-0.9,3.1-0.4c5.3,2.3,10.8,2.7,16.4,1.3
			c12.2-3.1,20.5-14.1,18.2-26.2C224.7,118.5,214.3,110.4,202.1,110.4z"/>
		<path class="st0" d="M238.6,177.1c-0.4-0.3-0.9-0.2-1.3-0.3c-2-0.4-3.8-1.2-5.5-2.3c-0.4-0.3-0.7-0.3-1.1-0.1
			c-10.7,3.6-20.6,2-29.5-4.6c-0.8-0.6-1.2-1.4-0.9-2.4c0.3-0.8,0.9-1.3,1.9-1.5c0.7-0.1,1.3,0.2,1.9,0.6c3.4,2.6,7.2,4.3,11.5,5
			c5,0.8,9.9,0.3,14.5-1.6c1.4-0.6,2.4-0.4,3.5,0.5c2.6,2.2,5.8,2.8,9.2,2.1c0.6-0.1,0.7-0.3,0.4-0.8c-2.2-4.7-2.2-9.5-0.3-14.3
			c3.3-8.3,2.1-16.1-3.7-23.1c-1.2-1.5-0.6-3.3,1.1-3.7c0.9-0.2,1.7,0.1,2.3,0.8c3.1,3.5,5.1,7.4,6,11.9c1.2,5.4,0.6,10.6-1.5,15.7
			c-1.8,4.4-1.2,8.7,1.2,12.8c0.3,0.6,0.7,1.1,0.6,1.7c-0.1,0.8-0.5,1.3-1.2,1.7c-1.7,0.9-3.5,1.5-5.4,1.6c-0.1,0-0.2,0-0.2,0.1
			C240.9,177.1,239.8,177.1,238.6,177.1z"/>
		<path class="st0" d="M203.7,106.2c-0.8,0.2-1.7,0.2-2.5,0C202,106.2,202.9,106.2,203.7,106.2z"/>
		<path class="st0" d="M202.5,136.8c-2,0-3.6-1.4-3.6-3.3c0-1.8,1.6-3.4,3.6-3.3c1.9,0,3.5,1.5,3.6,3.3
			C206.1,135.3,204.5,136.8,202.5,136.8z"/>
		<path class="st0" d="M219.2,133.5c0,1.9-1.6,3.3-3.6,3.3c-2,0-3.6-1.5-3.6-3.3c0-1.8,1.6-3.3,3.5-3.3
			C217.5,130.1,219.2,131.6,219.2,133.5z"/>
		<path class="st0" d="M189.3,136.8c-2,0-3.6-1.5-3.6-3.3c0-1.8,1.6-3.3,3.6-3.3c1.9,0,3.5,1.5,3.5,3.3
			C192.9,135.3,191.3,136.8,189.3,136.8z"/>
	</g>
	<g>
		<path class="st0" d="M397.5,73.5c0,0.7-0.4,1.2-0.9,1.6c-9.3,8.5-18.6,17.1-27.8,25.6c-0.5,0.5-0.7,0.9-0.5,1.6
			c0.5,3.3,1,6.6,1.5,9.9c0.1,0.8-0.1,1.3-0.7,1.9c-10.4,9.5-20.8,19.1-31.1,28.7c-2.5,2.3-6,1.9-8-0.3
			c-15.6-17-31.2-33.9-46.8-50.8c-2-2.2-2.2-5.7,0.3-8c10.4-9.5,20.7-19,31-28.6c0.7-0.6,1.3-0.8,2.1-0.5c3.3,0.8,6.5,1.5,9.8,2.3
			c0.6,0.2,1,0,1.5-0.4c9.3-8.6,18.6-17.2,27.9-25.7c0.5-0.5,1-0.8,1.7-0.8c0.2,0.2,0.4,0.5,0.6,0.7c0.1,2.6,0.2,5.2,0.3,7.9
			c0,0.4,0.1,0.6,0.6,0.7c2.7,0.4,5.5,0.9,8.2,1.3c0.2,0.2,0.4,0.5,0.6,0.7c-0.1,2.3,0.2,4.5,0.3,6.8c0.1,1.7,0.1,1.7,1.7,1.9
			c2.3,0.3,4.6,0.8,6.9,1c0.2,0.2,0.4,0.5,0.6,0.7c0.3,2.9,0.5,5.7,0.8,8.6c0,0.3,0.1,0.4,0.4,0.5c2.7,0.4,5.5,0.8,8.2,1.2
			c0.2,0.2,0.4,0.5,0.6,0.7c0.1,2.9,0.5,5.7,0.7,8.6c0,0.4,0.2,0.4,0.5,0.5c2.7,0.4,5.4,0.8,8.2,1.2
			C397.1,73.1,397.3,73.3,397.5,73.5z M366.6,113.7c-0.6-0.1-0.9-0.2-1.3-0.3c-8.3-1.9-16.6-3.9-24.9-5.8c-0.3-0.1-0.6-0.1-0.9-0.3
			c-0.5-0.2-0.6-0.6-0.5-1.1c0.1-0.5,0.5-0.8,1-0.8c0.3,0,0.6,0.1,0.8,0.2c5,1.2,10,2.3,14.9,3.5c0.7,0.2,1.1,0,1.7-0.5
			c12-11.1,24-22.2,36.1-33.3c0.2-0.2,0.4-0.4,0.8-0.7c-2.3-0.4-4.4-0.7-6.6-1c-0.9-0.1-1.3-0.5-1.4-1.5c-0.2-2.5-0.5-5-0.7-7.5
			c-0.1-0.6-0.3-0.8-0.9-0.9c-2.3-0.3-4.6-0.7-7-1c-1-0.1-1.4-0.5-1.5-1.5c-0.2-2.5-0.5-4.9-0.7-7.4c0-0.6-0.2-0.8-0.9-0.9
			c-2.4-0.3-4.8-0.7-7.2-1.1c-0.9-0.1-1.3-0.6-1.3-1.5c-0.1-2.4-0.3-4.7-0.4-7c0-0.6-0.2-0.8-0.8-0.9c-2.3-0.3-4.6-0.7-6.9-1.1
			c-1.6-0.3-1.7-0.4-1.8-2c-0.1-1.9-0.2-3.7-0.2-5.8c-0.3,0.2-0.4,0.3-0.5,0.4c-12.2,11.2-24.4,22.5-36.6,33.7
			c-0.4,0.3-0.5,0.6-0.4,1.1c0.6,4,1.2,7.9,1.8,11.9c0.5,3.1,0.9,6.1,1.4,9.2c0.1,0.7-0.1,1.2-0.8,1.3c-0.7,0.1-1.1-0.3-1.2-1
			c-0.1-0.3-0.1-0.6-0.1-0.9c-1.5-10.2-3-20.5-4.6-30.7c0-0.2,0.1-0.5-0.3-0.7c-0.1,0.1-0.3,0.2-0.4,0.4
			c-9.9,9.1-19.7,18.2-29.6,27.3c-0.3,0.2-0.5,0.5-0.7,0.7c-0.7,0.9-0.6,1.1,0.5,1.4c13.9,3.2,27.9,6.5,41.8,9.7
			c1,0.2,1.5,0.7,1.6,1.7c1.5,10,3,20.1,4.5,30.1c0.6,4.2,1.3,8.4,1.8,12.6c0.1,1,0.5,0.9,1.1,0.5c0.5-0.3,0.9-0.6,1.3-1
			c9.7-8.9,19.3-17.8,29-26.7C366,114.2,366.2,114,366.6,113.7z M332.3,141.9c0-0.4,0-0.5-0.1-0.6c-2-13.8-4.1-27.6-6.1-41.4
			c-0.1-0.7-0.5-0.8-1-0.9c-13.3-3.1-26.7-6.2-40-9.3c-0.3-0.1-0.6-0.1-1.1-0.2C300.1,107,316.2,124.4,332.3,141.9z M367.5,111.7
			c-0.4-2.9-0.9-5.7-1.3-8.6c-2.4,2.2-4.7,4.4-7.2,6.6C361.9,110.4,364.7,111.1,367.5,111.7z M318.2,65.4c2.4-2.2,4.7-4.4,7.1-6.6
			c-2.8-0.7-5.6-1.3-8.4-2C317.4,59.7,317.8,62.5,318.2,65.4z"/>
		<path class="st0" d="M357.1,70.5c-4.3-4.7-8.6-9.3-12.9-14c-0.9-1-0.9-1.4,0.1-2.2c2.3-2.1,4.7-4.3,7-6.4c0.9-0.8,1.3-0.8,2.2,0.1
			c8.7,9.4,17.3,18.8,26,28.2c0.8,0.9,0.8,1.4-0.1,2.2c-2.3,2.2-4.7,4.3-7.1,6.5c-0.9,0.8-1.3,0.8-2.1-0.1
			C365.8,79.9,361.4,75.2,357.1,70.5z M358.6,69.1c4,4.4,8,8.7,12.1,13.1c0.4,0.5,0.7,0.7,1.2,0.1c1.7-1.6,3.4-3.2,5.1-4.7
			c0.4-0.4,0.4-0.6,0-1c-8.1-8.8-16.2-17.6-24.3-26.4c-0.4-0.4-0.6-0.4-1,0c-1.7,1.6-3.3,3.1-5.1,4.7c-0.6,0.5-0.5,0.8,0,1.3
			C350.6,60.4,354.6,64.8,358.6,69.1z"/>
		<path class="st0" d="M343.4,83.1c-4.3-4.6-8.5-9.2-12.8-13.8c-0.2-0.2-0.4-0.4-0.6-0.6c-0.3-0.5-0.3-1,0.1-1.4
			c0.4-0.4,0.9-0.3,1.4,0.1c0.2,0.2,0.4,0.4,0.6,0.6c8.5,9.3,17.1,18.5,25.6,27.8c0.9,0.9,1,1.5,0.5,2c-0.5,0.5-1.1,0.4-2-0.6
			C352,92.4,347.7,87.7,343.4,83.1z"/>
		<path class="st0" d="M347.8,74.1c-3.5-3.8-7.1-7.7-10.6-11.5c-0.3-0.4-0.7-0.7-0.5-1.3c0.2-0.6,0.9-0.9,1.4-0.5
			c0.3,0.2,0.5,0.4,0.8,0.7c6.9,7.5,13.8,15,20.7,22.5c0.1,0.1,0.2,0.2,0.3,0.3c0.5,0.5,0.7,1.1,0.1,1.7c-0.6,0.5-1.1,0.3-1.6-0.3
			C354.9,81.8,351.4,78,347.8,74.1z"/>
		<path class="st0" d="M335.7,85.3c3.5,3.8,7.1,7.7,10.6,11.5c0.4,0.5,0.8,1,0.3,1.6c-0.4,0.6-0.9,0.6-1.5,0.2
			c-0.2-0.1-0.4-0.4-0.5-0.5c-7-7.5-13.9-15.1-20.8-22.6c-0.2-0.2-0.4-0.4-0.5-0.6c-0.3-0.5-0.3-1,0.1-1.4c0.4-0.4,0.9-0.4,1.4,0
			c0.2,0.2,0.4,0.4,0.6,0.6C328.8,77.9,332.2,81.6,335.7,85.3z"/>
		<path class="st0" d="M362.9,90.4c-0.3-0.3-0.5-0.5-0.8-0.8c-0.3-0.4-0.3-0.9,0.1-1.3c0.4-0.4,0.8-0.5,1.3-0.1
			c0.7,0.6,1.3,1.2,1.8,2c0.3,0.5,0.2,0.9-0.2,1.3c-0.4,0.3-0.9,0.3-1.3,0C363.4,91.1,363.2,90.7,362.9,90.4z"/>
		<path class="st0" d="M349.2,103.1c-0.3-0.3-0.5-0.5-0.8-0.8c-0.3-0.5-0.3-1,0.1-1.4c0.4-0.4,1-0.4,1.4,0c0.5,0.5,1,1.1,1.5,1.7
			c0.4,0.5,0.4,1-0.1,1.4c-0.4,0.4-0.9,0.4-1.4,0C349.8,103.7,349.5,103.4,349.2,103.1z"/>
		<path class="st0" d="M335.8,104.2c0.5,0.6,0.5,1.5-0.1,2c-0.6,0.5-1.5,0.5-2,0c-0.6-0.6-0.5-1.5,0.1-2.1
			C334.4,103.6,335.3,103.6,335.8,104.2z"/>
	</g>
	<g>
		<path class="st0" d="M70.7,126.9c6.7-3.8,13.5-7.7,20.2-11.5c3.3-1.9,6.7-0.9,8.6,2.3c5.1,8.9,10.2,17.9,15.2,26.8
			c1.8,3.2,0.9,6.7-2.4,8.5c-6.7,3.8-13.3,7.6-20,11.3c-0.4,0.2-0.6,0.5-0.8,0.9c-2.1,5.2-4.2,10.4-6.2,15.7
			c-0.1,0.2-0.2,0.4-0.3,0.6c-0.3,0.8-0.9,1.3-1.8,1.3c-0.8,0-1.4-0.4-1.9-1.1c-1.5-2.7-3-5.3-4.5-8c-0.2-0.4-0.4-0.5-0.8-0.2
			c-1.5,0.9-3,1.7-4.5,2.6c-3.1,1.7-6.6,0.8-8.3-2.3c-5.1-9-10.3-18.1-15.4-27.1c-1.8-3.1-0.8-6.6,2.3-8.3
			C57.1,134.6,63.9,130.8,70.7,126.9z M83,176.4c0.1-0.3,0.2-0.4,0.2-0.6c1.7-4.3,3.4-8.5,5.1-12.8c0.3-0.7,0.7-1.2,1.4-1.6
			c6.9-3.9,13.8-7.8,20.7-11.8c1.3-0.8,1.6-1.8,0.9-3.1c-5.1-9-10.2-17.9-15.3-26.9c-0.7-1.3-1.8-1.6-3.1-0.9
			c-13.5,7.7-27.1,15.4-40.6,23.1c-1.3,0.7-1.6,1.8-0.9,3c5.1,9,10.2,18,15.3,27c0.7,1.2,1.8,1.5,3,0.8c2.1-1.2,4.2-2.4,6.4-3.6
			c1.3-0.8,2.4-0.5,3.1,0.9C80.5,172.1,81.7,174.2,83,176.4z"/>
		<path class="st0" d="M78.6,140.6c4.5-2.6,9-5.1,13.5-7.7c0.9-0.5,1.8-0.4,2.5,0.3c0.6,0.6,0.7,1.5,0.4,2.3c-0.2,0.4-0.6,0.7-1,1
			c-5.4,3.1-10.8,6.2-16.3,9.2c-3.6,2-7.2,4.1-10.8,6.1c-1.3,0.8-2.9,0-3-1.4c-0.1-0.9,0.3-1.6,1.1-2.1
			C69.5,145.7,74,143.1,78.6,140.6z"/>
		<path class="st0" d="M75.6,151.3c2.2-1.2,4.4-2.5,6.6-3.7c1.1-0.6,2.3-0.4,2.9,0.6c0.6,1,0.2,2.2-1,2.8c-4.5,2.5-8.9,5.1-13.4,7.6
			c-0.9,0.5-2,0.3-2.6-0.5c-0.6-0.8-0.5-1.9,0.3-2.6c0.2-0.2,0.4-0.3,0.6-0.4C71.1,153.8,73.4,152.6,75.6,151.3z"/>
	</g>
	<g>
		<path class="st0" d="M596.2,416.4c2,4.5,4,9.1,5.9,13.6c1.9,4.4,0.2,8.6-4.2,10.5c-4.8,2.1-9.5,4.1-14.3,6.2c-0.5,0.2-0.8,0.5-1,1
			c-1.5,3.8-3,7.5-4.4,11.3c-0.5,1.2-1.2,2-2.5,2c-1.3,0-2.1-0.7-2.6-1.9c-0.8-2-1.8-4-2.6-6c-0.2-0.4-0.3-0.5-0.8-0.4
			c-3.8,1.3-7.9-0.4-9.5-4.1c-4.1-9.3-8.1-18.6-12.2-27.9c-1.7-3.9,0-8.3,3.9-10c9.3-4.1,18.6-8.1,27.9-12.2c3.9-1.7,8.3,0,10,3.9
			C592.1,407.1,594.1,411.8,596.2,416.4z M575.6,451.9c1-2.5,1.9-4.9,2.8-7.3c0.4-1,1-1.6,1.9-2c5.2-2.3,10.5-4.5,15.7-6.8
			c1.5-0.7,2.1-2,1.5-3.5c-4-9.3-8.1-18.5-12.1-27.8c-0.6-1.4-2-2-3.4-1.4c-9.3,4-18.6,8.1-27.9,12.1c-1.3,0.6-1.9,2-1.3,3.4
			c4,9.3,8.1,18.6,12.1,27.9c0.6,1.4,2,1.9,3.4,1.3c0.7-0.3,1.4-0.6,2-0.9c1.6-0.7,2.9-0.1,3.6,1.4
			C574.6,449.5,575.1,450.7,575.6,451.9z"/>
		<path class="st0" d="M586.5,373.6c10-4.1,22-0.3,27.8,8.8c0.6,1,1.2,1.9,1.6,3c0.6,1.5,0.2,3-1.2,3.6c-1.3,0.6-2.8,0-3.5-1.5
			c-3.3-7.2-10.6-11.3-18.4-10.4c-1.5,0.2-3,0.6-4.4,1.1c-1.8,0.7-3.2,0.3-3.8-1.1C584,375.7,584.7,374.3,586.5,373.6z"/>
		<path class="st0" d="M590.4,383c6.1-2.5,13.6,0.5,16.2,6.6c0.6,1.4,0.1,2.9-1.2,3.5c-1.3,0.6-2.8,0-3.4-1.4c-1.8-3.8-6-5.5-9.8-4
			c-1.6,0.6-3,0.1-3.6-1.3C588.1,385,588.7,383.6,590.4,383z"/>
		<path class="st0" d="M597.4,393.8c0.6,1.3-0.1,2.8-1.4,3.4c-1.3,0.5-2.8-0.1-3.3-1.3c-0.6-1.3,0-2.8,1.4-3.4
			C595.3,391.9,596.8,392.5,597.4,393.8z"/>
		<path class="st0" d="M572.1,418.6c-3,1.3-6,2.6-9,3.9c-1.5,0.7-3,0.2-3.6-1.2c-0.6-1.4,0-2.8,1.6-3.5c6-2.6,12.1-5.3,18.1-7.9
			c1.5-0.7,3-0.2,3.6,1.2c0.6,1.4,0,2.8-1.6,3.5C578.2,416,575.2,417.3,572.1,418.6z"/>
		<path class="st0" d="M574.2,423.2c3.1-1.3,6.2-2.7,9.3-4c1.2-0.5,2.6-0.1,3.2,1.1c0.6,1.1,0.3,2.5-0.7,3.3
			c-0.2,0.1-0.4,0.3-0.6,0.4c-6.2,2.7-12.3,5.4-18.5,8c-1.3,0.6-2.7,0.1-3.3-1c-0.6-1.1-0.4-2.5,0.7-3.3c0.2-0.2,0.5-0.3,0.8-0.4
			C568.2,425.8,571.2,424.5,574.2,423.2z"/>
		<path class="st0" d="M575.6,439.2c-1.5,0.7-3,1.3-4.5,2c-1.5,0.6-2.9,0.1-3.5-1.3c-0.6-1.3,0.1-2.7,1.5-3.4c3-1.3,6-2.6,9-3.9
			c1.5-0.6,2.9-0.1,3.5,1.3c0.6,1.3-0.1,2.7-1.5,3.4C578.6,437.9,577.1,438.6,575.6,439.2z"/>
	</g>
	<g>
		<path class="st0" d="M77.9,344.7c-0.9-1.7-1.9-3.4-2.8-5.1c-1.8-3.4-3.6-6.8-5.4-10.2c-0.5-0.9-0.4-1.4,0.5-2
			c1.7-1.2,3.4-2.4,5.1-3.6c0.7-0.5,1.5-0.4,1.9,0.2c0.4,0.6,0.3,1.4-0.5,1.9c-1.2,0.9-2.4,1.7-3.6,2.6c-0.5,0.3-0.6,0.6-0.3,1.2
			c4.7,9.3,10,18.1,15.9,26.6c2.3,3.3,4.8,6.5,7.2,9.8c0.4,0.5,0.7,0.4,1.2,0.2c2.2-1.3,4.4-2.6,6.7-3.8c1-0.6,1.7-0.5,2.1,0.3
			c0.4,0.7,0.1,1.4-0.8,2c-2.7,1.5-5.4,3.1-8.1,4.6c-0.9,0.5-1.5,0.4-2.1-0.4c-3.1-4.3-6.3-8.5-9.4-12.8c-0.3-0.4-0.6-0.7-0.9-1.1
			C82.3,351.6,80.1,348.1,77.9,344.7z"/>
		<path class="st0" d="M93.8,331.4c6.7,13.3,14.6,25.8,23.9,37.6c1.4-0.8,2.8-1.6,4.2-2.4c3.9-2.3,7.8-4.6,11.6-6.9
			c0.7-0.4,1.4-0.5,2.1-0.4c5.4,0.8,10.8,2,16.1,3.6c0.3,0.1,0.5,0.2,0.9,0.2c0.2-1.3,0.4-2.6,0.6-3.9c0.2-1,0.7-1.5,1.5-1.4
			c0.8,0.1,1.2,0.8,1,1.8c-0.2,1.7-0.5,3.4-0.7,5.1c-0.2,1.3-0.9,1.7-2.1,1.3c-5.5-1.9-11.2-3.2-16.9-4.1c-0.7-0.1-1.3,0-1.9,0.4
			c-5.1,3-10.3,6-15.4,9c-1.5,0.9-1.8,0.8-2.8-0.6c-3.6-4.9-7.2-9.8-10.7-14.8c-5.2-7.6-9.7-15.5-13.8-23.7c-0.8-1.6-0.8-2,1-3.2
			c7.9-5.4,15.9-10.7,23.8-16c1-0.7,2-1.3,3-1.9c0.8-0.5,1.6-0.4,2,0.2c0.5,0.6,0.3,1.4-0.6,2c-4.9,3.2-9.9,6.4-14.7,9.7
			c-3.9,2.6-7.8,5.3-11.6,8C94.1,331.1,94,331.2,93.8,331.4z"/>
		<path class="st0" d="M161.6,314.6c-3.9-6.1-8-11.9-12.4-17.6c-0.4-0.5-0.7-0.5-1.1-0.2c-7.3,4.4-14.6,8.7-21.9,13
			c-0.1,0.1-0.3,0.2-0.4,0.3c-0.8,0.4-1.5,0.2-1.9-0.5c-0.4-0.6-0.2-1.3,0.6-1.8c5.8-3.5,11.5-7,17.3-10.4c2.1-1.3,4.3-2.5,6.4-3.7
			c0.9-0.5,1.5-0.4,2.1,0.4c7.2,9.1,13.7,18.6,19.3,28.8c1.9,3.5,3.8,7,5.6,10.5c0.5,1,0.4,1.6-0.5,2.2c-5,3.4-9.9,6.9-14.9,10.3
			c-0.7,0.4-1.1,0.9-1.3,1.7c-0.5,1.9-1,3.9-1.5,5.8c-0.3,1.1-0.9,1.5-1.7,1.3c-0.8-0.2-1.1-0.9-0.8-1.9c0.6-2.2,1.2-4.5,1.8-6.7
			c0.2-0.9,0.7-1.4,1.4-1.9c3.7-2.5,7.3-5,11-7.4c1.2-0.8,2.3-1.6,3.5-2.4c0.4-0.3,0.5-0.5,0.2-1C169,327,165.4,320.8,161.6,314.6z"
			/>
		<path class="st0" d="M127.3,294.1c-2,1.1-3.9,2.2-5.8,3.3c-11.6,7.2-23.3,14.5-34.9,21.7c-1.6,1-3,2.1-4.5,3.1
			c-0.9,0.6-1.7,0.6-2.1-0.1c-0.5-0.7-0.3-1.4,0.7-2c4.4-2.9,8.7-5.9,13.2-8.7c6.4-4.1,12.9-8,19.3-12c4.3-2.6,8.7-5.1,13-7.7
			c1.5-0.9,1.9-0.8,3,0.6c1.2,1.5,2.4,3,3.5,4.6c0.7,0.9,0.7,1.7,0,2.2c-0.7,0.5-1.4,0.2-2.1-0.6C129.5,297,128.4,295.6,127.3,294.1
			z"/>
		<path class="st0" d="M143.4,326.9c-2-3.2-1-7.1,2.2-9c3.1-1.9,7.1-0.9,9,2.2c1.9,3.1,0.8,7.1-2.3,9
			C149.3,330.9,145.3,329.9,143.4,326.9z M145.6,325.5c1.2,1.9,3.5,2.4,5.4,1.3c1.9-1.2,2.4-3.6,1.2-5.5c-1.2-1.8-3.6-2.3-5.4-1.1
			C145.1,321.3,144.5,323.7,145.6,325.5z"/>
		<path class="st0" d="M139,329.7c2,3.1,1.2,7.1-2,9.1c-2.9,1.9-7,1-8.9-2c-2-3-1.1-7.1,1.8-9C133,325.8,137,326.6,139,329.7z
			 M130.2,335.3c1.2,1.9,3.5,2.4,5.4,1.2c1.8-1.1,2.3-3.6,1.2-5.4c-1.1-1.8-3.6-2.4-5.4-1.2C129.6,331.1,129,333.4,130.2,335.3z"/>
		<path class="st0" d="M114.6,337.5c2.2-1.4,5.1-1.3,7.2,0.2c2.2,1.6,3.2,4.2,2.6,6.8c-0.6,2.6-2.7,4.6-5.2,5
			c-0.5,0.1-1.1,0-1.5-0.2c-0.3-0.2-0.6-0.9-0.4-1.3c0.2-0.4,0.7-0.9,1.2-1c1-0.2,1.8-0.6,2.5-1.3c1.3-1.4,1.4-3.6,0.2-5.1
			c-1.4-1.6-3.5-2-5.2-0.8c-1.6,1-2.2,3.2-1.3,4.9c0.1,0.2,0.2,0.3,0.3,0.5c0.3,0.7,0.1,1.4-0.5,1.8c-0.6,0.4-1.4,0.2-1.8-0.5
			C110.6,343.6,111.6,339.4,114.6,337.5z"/>
	</g>
	<g>
		<path class="st0" d="M343,403.9c0.4,0.7,1,1.1,1.5,1.7c8.2,9.1,9.8,22.1,4.2,33c0,0.1-0.1,0.1-0.1,0.2c-0.7,1.2-0.7,1.2,0.1,2.3
			c1.3,1.7,1.5,3.5,0.8,5.4c-0.7,2-2,3.6-3.4,5.3c-0.8,1-1.7,1.8-2.7,2.5c-2,1.3-4,1.5-6.1,0.3c-0.3-0.2-0.5-0.2-0.9-0.2
			c-1.9,0.3-3.8-0.9-4.4-2.7c-0.1-0.4-0.2-0.5-0.6-0.3c-2.9,1.3-6,1.9-9.3,1.8c-0.5,0-0.6,0.1-0.5,0.6c1.2,6.2,0.1,12.1-3,17.5
			c-1.2,2.2-3.8,2.6-5.7,1.1c-1.2-0.9-2.4-1.9-3.6-2.9c-0.6-0.5-0.8-1.1-0.4-1.6c0.4-0.5,1-0.5,1.7,0c1.2,0.9,2.4,1.9,3.5,2.8
			c1,0.8,2,0.6,2.6-0.5c3.1-5.3,3.9-10.9,2.6-16.9c-0.1-0.3-0.2-0.4-0.5-0.5c-3-0.5-5.9-1.4-8.6-2.9c-0.2-0.1-0.4-0.2-0.6,0.1
			c-0.9,1.3-2.1,2.1-3.8,1.9c-0.3,0-0.3,0.2-0.4,0.3c-1.1,2.9-2.1,5.7-3.2,8.6c-0.2,0.4,0.1,0.5,0.3,0.7c1.5,1.2,3,2.4,4.5,3.6
			c0.7,0.6,0.7,1.5-0.1,1.8c-0.3,0.2-0.7,0.1-1,0c-0.2-0.1-0.3-0.3-0.5-0.4c-8.5-6.7-17-13.5-25.5-20.2c-2.2-1.8-2.3-4.2-0.2-6.1
			c4.6-4.3,10.1-6.5,16.4-6.8c0.1,0,0.2,0,0.4,0c-0.2-1-0.4-2-0.6-3.1c-0.1-0.3-0.3-0.4-0.5-0.5c-0.8-0.7-1.7-1.2-2.4-2
			c-1.6-1.9-2-4.1-1-6.4c0.2-0.4,0.2-0.6,0-1c-0.2-0.2-0.3-0.5-0.4-0.8c-0.1-1-0.6-1.7-1.1-2.4c-1-1.3-1.3-2.8-0.8-4.3
			c1.2-3.8,3.6-6.8,6.9-8.9c1.8-1.1,3.7-1,5.5,0.1c0.4,0.3,0.7,0.2,1-0.1c6.4-5.9,13.9-8.4,22.5-7.7c0.4,0,0.8,0,1,0.4
			c0.3,0.4,0.4,0.8,0.2,1.2c-0.2,0.5-0.7,0.6-1.2,0.6c-1.6-0.2-3.2-0.2-4.8-0.1c-5.6,0.4-10.5,2.4-14.9,5.9c-0.4,0.3-0.5,0.6,0,0.8
			c0.4,0.2,0.5,0.8,0.9,0.8c0.4-0.1,0.7-0.5,1-0.7c8.3-6.2,19.5-6.7,28.2-1.2c10.4,6.5,14.4,19.9,9.5,31.1c-0.2,0.4-0.5,0.8-0.5,1.1
			c0,0.4,0.7,0.4,0.9,0.7c0.4,0.5,0.6,0.3,0.9-0.2c1.4-3,2.4-6.2,2.6-9.6c0.5-9.9-3.1-17.8-11-23.8c-2.4-1.8-5.1-3.1-7.9-3.9
			c-0.2-0.1-0.5-0.1-0.7-0.2c-0.6-0.2-0.9-0.8-0.7-1.3c0.2-0.6,0.7-0.9,1.4-0.7c1.7,0.4,3.4,1.1,4.9,1.8c1,0.5,2,1.1,3,1.6
			c0.1,0.1,0.2,0.2,0.4,0.1C340.4,401.8,341.7,402.8,343,403.9z M333.3,425.5c-1.9,0.3-3.7,0.5-5.5,0.4c-6.5-0.4-12.2-2.9-17.6-6.3
			c-2.1-1.4-4.2-2.9-6.1-4.5c-0.2-0.2-0.3-0.3-0.6,0c-1.4,1.8-2.8,3.5-4.2,5.3c-0.1,0.1-0.1,0.3-0.2,0.4c-1,2.6-1.4,5.2-1.2,7.9
			c0,0.3,0.1,0.6,0.4,0.8c2.7,2.1,5.3,4.2,8,6.3c0.3,0.3,0.6,0.3,0.9,0.1c1.2-0.5,2.3-0.5,3.3,0.3c1.7,1.3,3.3,2.6,4.9,3.9
			c1.4,1.2,1.6,3.2,0.4,4.6c-1.2,1.4-3.2,1.7-4.7,0.5c-1.6-1.2-3.1-2.5-4.7-3.7c-1-0.8-1.4-1.9-1.2-3.2c0.1-0.4,0-0.6-0.3-0.9
			c-2-1.6-4-3.1-5.9-4.7c-0.1-0.1-0.2-0.3-0.5-0.2c0.1,0.3,0.2,0.6,0.3,0.9c3.3,9.2,9.7,14.9,19.1,17.1c4.7,1.1,9.3,0.6,13.6-1.7
			c0.3-0.1,0.6-0.3,0.8-0.5c1.7-2.1,3.3-4.3,5-6.4c0.3-0.4,0.2-0.6,0-0.9C333.8,436.4,332.2,431.4,333.3,425.5z M308,415.3
			C308,415.3,308,415.3,308,415.3c0.7,0.5,1.4,1.1,2.2,1.6c4.1,2.8,8.4,5,13.2,6.1c6.1,1.4,11.8,0.6,17.2-2.6
			c1.8-1.1,2.9-2.7,3.1-4.9c0-0.3,0-0.6-0.2-0.9c-2.4-4.6-5.9-8.2-10.7-10.3c-8.6-3.8-16.7-2.7-24.2,3.1c-0.5,0.4-0.9,0.8-0.9,1.5
			c0,0.4-0.2,0.7-0.4,1c-0.5,0.9-1.2,1.7-1.9,2.5c-0.3,0.4-0.3,0.6,0.1,0.8C306.4,414,307.2,414.7,308,415.3z M287,449.1
			c1.9,1.5,3.9,3.1,5.8,4.6c0.3,0.2,0.5,0.4,0.8,0.1c2.5-1.7,5-3.4,7.6-5c0.2-0.1,0.4-0.2,0.3-0.5c-0.6-1.5-0.2-2.9,0.9-4
			c0.3-0.3,0.2-0.5-0.1-0.8c-2-2.3-3.6-4.8-4.7-7.6c-0.2-0.4-0.4-0.5-0.7-0.4c-6,0.1-11.3,2.3-15.7,6.4c-1,0.9-0.9,1.9,0.2,2.7
			C283.2,446.1,285.1,447.6,287,449.1z M344.9,418.7c-0.3,0.8-0.8,1.5-1.4,2.1c-1.8,1.8-4.1,2.9-6.4,3.7c-1.1,0.4-1.5,1-1.7,2
			c-0.9,4.9,0.6,9.1,3.5,12.9c0.3,0.3,0.4,0.3,0.7,0c0.3-0.4,0.6-0.7,0.9-1.1c0.7-0.9,1.4-1.7,2.5-2c0.2-0.1,0.3-0.2,0.4-0.4
			c2.8-5.2,3.4-10.7,2-16.4C345.2,419.2,345.2,418.9,344.9,418.7z M341.4,446.3c1.3-1.7,2.7-3.4,4-5.1c0.6-0.7,0.6-1.4,0.2-2.1
			c-0.8-1.2-2.2-1.2-3.1-0.1c-1.6,2-3.2,4.1-4.8,6.1c-1.1,1.3-2.1,2.7-3.2,4c-0.7,0.8-0.7,1.7-0.2,2.4c0.8,1,2.1,1,2.9,0
			C338.6,449.8,340,448,341.4,446.3z M298.4,412.2c-1.4,1.7-2.7,3.4-4.1,5.1c-0.7,0.9-0.6,1.9,0.3,2.6c0.9,0.7,1.9,0.6,2.6-0.3
			c2.7-3.4,5.4-6.8,8.1-10.2c0.4-0.5,0.6-1.1,0.3-1.8c-0.5-1.4-2.2-1.7-3.2-0.5C301.1,408.7,299.7,410.5,298.4,412.2z M297.7,457.6
			c0.8,0.6,1.6,1.2,2.3,1.8c0.4,0.3,0.5,0.2,0.7-0.2c0.2-0.5,0.3-1,0.5-1.5c0.8-2.2,1.6-4.4,2.4-6.5c0.1-0.3,0.2-0.6-0.2-0.8
			c-0.2-0.1-0.4-0.4-0.7-0.2c-2.5,1.6-4.9,3.3-7.4,4.9c-0.3,0.2-0.3,0.3,0,0.5C296.2,456.3,296.9,456.9,297.7,457.6z M292.5,416.1
			c2.7-3.4,5.3-6.7,8-10.1c0.3-0.4,0.1-0.5-0.2-0.6c-1.3-0.3-2.3,0.2-3.3,0.9c-1.7,1.3-3,3-4.1,4.9c-0.5,0.8-0.9,1.6-1,2.5
			C291.8,414.6,291.9,415.4,292.5,416.1z M338.9,452.8c0.1,0.2,0.2,0.2,0.3,0.2c1.3,0.4,2.4-0.1,3.4-0.9c1.7-1.3,3-3,4.1-4.8
			c0.4-0.7,0.8-1.4,1-2.2c0.2-0.8,0.1-1.5-0.2-2.2c-0.2-0.4-0.4-0.5-0.7-0.1c-0.4,0.5-0.8,1-1.1,1.4
			C343.4,447.1,341.2,450,338.9,452.8z M310.3,441.6c0.8,0.6,1.5,1.2,2.3,1.8c0.6,0.5,1.4,0.4,1.8-0.2c0.4-0.6,0.4-1.3-0.3-1.7
			c-1.5-1.2-3-2.4-4.6-3.6c-0.6-0.5-1.3-0.4-1.8,0.1c-0.5,0.6-0.4,1.3,0.3,1.8C308.8,440.4,309.5,441,310.3,441.6z M306.1,447.1
			C306.1,447.1,306.1,447.1,306.1,447.1c-0.6-0.5-1.1-0.9-1.7-1.4c-0.1-0.1-0.2-0.3-0.5-0.1c-0.8,0.7-0.9,1.8-0.1,2.5
			c0.5,0.4,1,0.8,1.5,1.2c0.9,0.7,1.7,0.6,2.4-0.3c0.2-0.3,0.2-0.4-0.1-0.6C307.2,447.9,306.7,447.5,306.1,447.1z M295.8,427.2
			c0-1.7,0.2-3.2,0.5-4.8c-0.6,0-1.2,0.1-1.8-0.1c-0.4-0.1-0.5,0-0.6,0.3C293.5,424.3,294.1,426,295.8,427.2z"/>
	</g>
	<g>
		<path class="st0" d="M540.8,223.1c0.1-0.6-0.2-1.1-0.2-1.6c-0.9-6.4,2.3-12.6,8-15.7c0,0,0.1-0.1,0.2-0.3
			c-3.2,0.6-6.1,0.1-8.6-1.9c-2.5-2-3.8-4.6-3.8-7.9c0-4.7,3.5-8.8,8.1-9.6c4.7-0.8,9.3,1.8,11,6.3c1.7,4.5-0.1,9.5-4.4,12.1
			c0.1,0.1,0.3,0.1,0.4,0.1c3.3-1,6.5-0.9,9.8,0.2c0.6,0.2,0.8,0,0.9-0.5c1.5-4.9,4.5-8.6,8.9-11.3c0.3-0.2,0.5-0.3,0.8-0.4
			c0.4-0.2,0.9-0.2,1.1-0.7c-0.5,0-0.8,0.2-1.2,0.3c-2.9,0.8-5.8,0.6-8.5-0.6c-4.7-2.1-7.4-5.8-7.9-10.9c-0.4-5.1,1.6-9.2,5.8-12.1
			c6.2-4.3,14.9-2.2,18.7,4.4c3.5,6.1,1.6,13.9-4.3,17.7c-0.2,0.1-0.4,0.2-0.6,0.3c-0.3,0.2-0.8,0.2-1.2,0.7c0.6,0,1-0.3,1.4-0.4
			c2.5-0.9,5-1.1,7.6-0.8c2.7,0.3,5.2,1,7.6,2.3c0.4,0.2,0.7,0.3,0.9-0.3c1.5-3.1,3.8-5.5,6.8-7.1c0,0,0-0.1,0.1-0.2
			c-3.7,0.7-6.9-0.1-9.5-2.8c-1.7-1.7-2.6-3.8-2.8-6.3c-0.3-5,3.1-9.3,8-10.3c4.6-1,9.4,1.7,11.2,6.3c1.7,4.5-0.2,9.6-4.4,12.1
			c0.1,0.1,0.3,0.1,0.4,0.1c7.3-2.3,15.4,1.5,18.3,8.5c0.4,0.9,0.8,1.8,1.1,2.7c0.4,1.1,0.1,1.9-1,2.4c-0.2,0.1-0.4,0.2-0.6,0.3
			c-24.4,10-48.9,19.9-73.3,29.9c-1,0.4-1.9,0.7-3,0.1C542.2,226.6,541.5,224.9,540.8,223.1z M581.1,210.3c4.9-2,9.8-4,14.7-6
			c0.5-0.2,0.6-0.4,0.4-0.9c-0.8-1.5-1.7-3-2.8-4.2c-5.2-5.8-13.9-7.1-20.6-3.1c-6.7,4-9.7,12.3-7.1,19.7c0.2,0.6,0.4,0.7,1,0.5
			C571.4,214.2,576.3,212.2,581.1,210.3z M559.5,183.4c2.1,5,7.9,7.5,12.9,5.4c5-2.1,7.4-7.8,5.4-12.9c-2-5.1-7.8-7.5-12.9-5.5
			C559.9,172.6,557.5,178.4,559.5,183.4z M553.9,221.4c2.8-1.1,5.5-2.3,8.3-3.4c0.4-0.2,0.6-0.3,0.4-0.8c-1-2.6-1.4-5.3-1.2-8.1
			c0-0.4-0.1-0.7-0.5-0.9c-4.2-1.6-8.1-1.3-11.9,1.2c-4.4,2.9-7,9-4.3,14.8c0.3,0.6,0.4,0.7,1,0.5
			C548.5,223.5,551.2,222.5,553.9,221.4z M608.3,199.2c2.8-1.1,5.5-2.3,8.3-3.4c0.3-0.1,0.7-0.1,0.4-0.6c-0.5-1.1-0.9-2.2-1.6-3.2
			c-2.8-3.7-6.6-5.4-11.2-4.8c-4.7,0.6-8,3.2-10,7.5c-0.2,0.5-0.1,0.7,0.3,1c2,1.8,3.6,4,4.7,6.5c0.2,0.5,0.4,0.6,1,0.4
			C602.8,201.4,605.6,200.3,608.3,199.2z M552.4,193.5c-1.4-3.3-5.3-5-8.6-3.6c-3.3,1.4-4.9,5.2-3.6,8.6c1.3,3.3,5.3,5,8.6,3.6
			C552.1,200.7,553.8,196.8,552.4,193.5z M602.2,173.2c-1.3-3.3-5.2-5-8.6-3.7c-3.3,1.3-5,5.1-3.7,8.5c1.3,3.3,5.2,5,8.6,3.7
			C601.8,180.5,603.5,176.6,602.2,173.2z"/>
		<path class="st0" d="M553.2,165c-0.5-2.1-1-4.3-1.5-6.6c-0.1-0.4-0.3-0.6-0.6-0.7c-1.9-0.8-3.9-1.6-5.8-2.3
			c-0.8-0.3-1.3-0.7-1.4-1.6c-0.1-0.8,0.5-1.3,1.2-1.7c1.8-1,3.5-2.1,5.3-3.1c0.4-0.2,0.6-0.5,0.6-1c0.1-2.1,0.3-4.2,0.4-6.2
			c0-0.8,0.3-1.4,1-1.7c0.7-0.3,1.4,0,2,0.5c1.5,1.4,3.1,2.8,4.6,4.2c0.4,0.4,0.8,0.4,1.3,0.3c2-0.5,3.9-1,5.9-1.5
			c0.7-0.2,1.4-0.2,2,0.4c0.6,0.6,0.5,1.3,0.2,2.1c-0.8,1.8-1.6,3.7-2.4,5.5c-0.3,0.6-0.2,1,0.1,1.5c1.1,1.7,2.1,3.4,3.2,5.2
			c0.4,0.6,0.5,1.3,0.1,1.9c-0.4,0.6-1,0.8-1.7,0.8c-2.1-0.2-4.3-0.4-6.4-0.6c-0.5,0-0.7,0.1-1,0.4c-1.4,1.7-2.7,3.3-4.1,4.9
			C555.2,166.7,553.7,166.4,553.2,165z M555.7,161c0.9-1.1,1.8-2.1,2.6-3.1c0.7-0.9,1.4-1.2,2.5-1c1.3,0.2,2.6,0.3,4,0.4
			c-0.6-0.9-0.9-1.8-1.5-2.4c-1.3-1.5-1.4-3-0.4-4.7c0.5-0.8,0.7-1.7,1.1-2.6c-1.4,0.3-2.7,0.6-4,1c-0.9,0.3-1.7,0.1-2.4-0.6
			c-1-0.9-2-1.8-3.1-2.8c-0.1,1.5-0.2,3-0.3,4.4c0,0.8-0.3,1.3-1,1.7c-1.3,0.7-2.5,1.5-3.6,2.1c1.3,0.6,2.6,1.2,3.9,1.8
			c0.7,0.3,1.2,0.8,1.3,1.5C555,158.1,555.3,159.5,555.7,161z"/>
		<path class="st0" d="M532.2,182.6c-0.2-1.1-0.6-2.5-0.8-3.8c-0.1-0.6-0.4-1-1-1.2c-1.2-0.4-2.3-0.9-3.5-1.4
			c-0.7-0.3-1.1-0.8-1.2-1.5c-0.1-0.8,0.4-1.3,1-1.6c1.1-0.6,2.2-1.3,3.3-1.9c0.5-0.3,0.8-0.6,0.8-1.2c0-1.3,0.2-2.6,0.3-3.8
			c0-0.7,0.3-1.3,1-1.6c0.7-0.3,1.3-0.1,1.9,0.4c1,0.9,2,1.7,2.9,2.6c0.4,0.4,0.8,0.4,1.2,0.3c1.2-0.3,2.4-0.6,3.7-0.9
			c0.8-0.2,1.5-0.2,2,0.5c0.5,0.6,0.4,1.3,0.1,2c-0.5,1.2-1,2.4-1.6,3.5c-0.2,0.4-0.2,0.7,0.1,1.1c0.8,1.1,1.4,2.3,2.2,3.4
			c0.4,0.6,0.5,1.3,0.1,1.9c-0.4,0.6-1,0.8-1.7,0.8c-1.3-0.1-2.6-0.2-3.9-0.4c-0.6-0.1-0.9,0.1-1.3,0.6c-0.8,1.1-1.7,2.1-2.6,3.1
			C534.2,184.3,532.8,184,532.2,182.6z M531,174.2c1,0.7,2.2,0.7,2.9,1.5c0.7,0.8,0.5,2,0.9,2.9c0.8-0.7,1.2-1.7,2.2-2.1
			c1-0.4,2,0.1,3.3,0c-2-1.8-1.9-3.6-0.5-5.7c-2.3,1.1-4.1,0.6-5.6-1.4C534.4,171.8,533.4,173.4,531,174.2z"/>
		<path class="st0" d="M584.2,161.4c-0.2-1.1-0.5-2.4-0.8-3.7c-0.1-0.7-0.4-1.1-1.1-1.4c-1.2-0.4-2.3-0.9-3.4-1.4
			c-0.7-0.3-1.2-0.8-1.2-1.6c0-0.8,0.4-1.3,1.1-1.6c1.1-0.6,2.2-1.3,3.3-1.9c0.5-0.3,0.7-0.6,0.7-1.1c0-1.3,0.2-2.6,0.3-3.8
			c0-0.7,0.3-1.3,1-1.6c0.7-0.3,1.4-0.1,2,0.5c1,0.9,1.9,1.7,2.9,2.6c0.4,0.4,0.7,0.5,1.2,0.3c1.2-0.3,2.4-0.6,3.7-0.9
			c0.8-0.2,1.5-0.2,2,0.5c0.5,0.6,0.4,1.3,0.1,2c-0.5,1.2-1.1,2.5-1.6,3.7c-0.2,0.3-0.1,0.6,0.1,0.9c0.8,1.1,1.5,2.3,2.2,3.5
			c0.4,0.6,0.5,1.3,0.1,1.9c-0.4,0.7-1,0.9-1.8,0.8c-1.4-0.1-2.7-0.3-4.1-0.4c-0.4,0-0.6,0.1-0.9,0.4c-0.9,1.1-1.8,2.2-2.8,3.3
			C586.1,163.2,584.7,162.9,584.2,161.4z M586.7,157.5c1.2-2.2,2.9-2.9,5.3-2.1c-0.4-1.2-1.3-1.8-1.4-2.9c-0.1-1.1,0.8-1.9,1-3.1
			c-2.2,1.2-4,0.7-5.4-1.3c-0.3,1.2,0,2.3-0.5,3.2c-0.6,0.9-1.7,1.1-2.6,1.9C585.4,153.6,586.6,155,586.7,157.5z"/>
		<path class="st0" d="M572,192.4c0.4-0.1,0.7-0.4,1.2-0.3c-0.3,0.5-0.8,0.5-1.1,0.7C572.2,192.6,572.2,192.5,572,192.4z"/>
		<path class="st0" d="M575.4,191.4c-0.4,0.1-0.7,0.4-1.4,0.4c0.4-0.5,0.8-0.5,1.2-0.7C575.1,191.3,575.2,191.4,575.4,191.4z"/>
		<path class="st0" d="M582.9,197.4c0.2-0.1,0.6-0.1,1,0c2.3,0.5,4.3,1.5,6,3c0.8,0.7,0.9,1.6,0.3,2.3c-0.6,0.7-1.5,0.9-2.3,0.2
			c-1.5-1.2-3.1-2-5-2.5c-0.8-0.2-1.2-0.8-1.2-1.6C581.7,198.2,582.1,197.7,582.9,197.4z"/>
		<path class="st0" d="M578.3,198.9c0.3,0.8-0.1,1.8-0.8,2.1c-0.8,0.4-1.9-0.1-2.2-0.9c-0.3-0.8,0.1-1.8,0.9-2.1
			C577,197.7,578,198.1,578.3,198.9z"/>
	</g>
	<g>
		<path class="st0" d="M48.9,469.2c0.1-0.7,0.5-1.1,1.2-1.3c7.7-3.3,15.5-6.6,23.2-9.8c0.6-0.2,0.7-0.4,0.3-1c-2.3-4-4.5-8-6.7-12
			c-0.6-1-1.1-2.1-1.7-3.1c-1-1.8-0.3-3.9,1.6-4.8c0.9-0.4,1.8-0.8,2.7-1.1c0.4-0.2,0.6-0.3,0.4-0.8c-0.8-1.7-1.5-3.5-2.2-5.2
			c-0.2-0.5-0.3-0.5-0.7-0.1c-1.8,1.9-3.7,3.8-5.4,5.7c-2.5,2.9-3.1,6.2-1.7,9.7c1.6,4,3.4,8,5,11.9c0.1,0.2,0.2,0.5,0.3,0.7
			c0.1,0.5-0.1,1-0.6,1.2c-0.4,0.2-0.9,0.2-1.3-0.1c-0.2-0.2-0.3-0.4-0.4-0.6c-1.8-4.1-3.6-8.3-5.2-12.4c-1.7-4.3-1-8.4,2.1-11.9
			c1.3-1.5,2.8-2.9,4.1-4.4c0.2-0.2,0.3-0.3,0.5-0.6c-0.4,0-0.7,0-0.9,0c-6,0-10.5-5.7-9-11.6c0.6-2.5,0.9-4.9,0.3-7.4
			c-0.4-1.3-1-2.5-1.5-3.8c-1-2.4-2.2-4.9-2.4-7.6c-0.6-7.6,2.3-13.5,8.8-17.6c0.1-0.1,0.3-0.1,0.3-0.3c1.2-0.5,2.4-1,3.5-1.5
			c0.5,0.1,1-0.2,1.5-0.3c7-1.7,15.1,1.6,19,7.8c1.4,2.2,2.3,4.6,3.3,7c1.3,3.2,3.3,5.5,6.3,7.1c3.9,2.1,5.6,6.5,4.4,10.8
			c-0.5,1.7-1.4,3.1-2.8,4.4c2.2,0,4.2,0,6.2,0c5.1,0.1,8.8,2.5,10.8,7.3c2,4.7,4,9.5,6.1,14.3c0.2,0.4,0.3,0.9,0.5,1.1
			c0.3,0.2,0.7-0.2,1-0.3c0.6-0.2,1.2,0,1.5,0.6c0.2,0.6,0,1.2-0.6,1.5c-0.2,0.1-0.3,0.1-0.5,0.2C97.2,450.4,74.1,460.2,51,470
			c-0.6,0.3-1.2,0.3-1.8-0.1C49.1,469.7,49,469.4,48.9,469.2z M84.6,432.2c-5.4,2.3-10.8,4.6-16.2,6.9c-1.4,0.6-1.6,1-0.9,2.3
			c0.5,0.9,1,1.7,1.4,2.6c2.3,4.1,4.6,8.2,6.8,12.3c0.3,0.6,0.6,0.5,1,0.3c6.2-2.6,12.4-5.3,18.6-7.9c4-1.7,8.1-3.4,12.1-5.2
			c0.3-0.1,0.6-0.2,0.5-0.7c-1.7-5.5-3.3-10.9-5-16.4c-0.4-1.4-0.9-1.6-2.3-1C95.4,427.6,90,429.9,84.6,432.2z M83.8,404.4
			c-0.4,0.7-0.8,1.3-1.1,1.9c-0.4,0.6-0.8,1.2-1.2,1.7c-0.2,0.3-0.3,0.5-0.3,0.9c0,1.3-0.6,2.3-1.7,2.9c-1.1,0.6-2.2,1.1-3.4,1.4
			c-1.7,0.4-3.4-0.5-4-2.1c-0.6-1.7,0.1-3.4,1.7-4.2c0.9-0.4,1.7-0.8,2.6-1.1c1.1-0.4,2.1-0.4,3.1,0.2c0.4,0.2,0.6,0.1,0.8-0.2
			c0.9-1.1,1.5-2.4,1.8-3.8c0.2-1,0.2-2-0.3-3c-0.6-1.2-1.1-2.4-1.6-3.7c-0.3-0.7-0.6-0.9-1.4-0.8c-1.7,0.3-3.5,0.2-5.2-0.3
			c-0.7-0.2-1.1-0.7-0.9-1.4c0.1-0.6,0.7-1,1.4-0.9c0.2,0,0.3,0.1,0.5,0.1c2.9,0.5,5.7,0.1,8.3-1.3c0.5-0.2,0.5-0.5,0.3-0.9
			c-0.9-1.8-2-3.5-3.5-4.9c-1.7-1.6-3.6-2.7-5.8-3.5c-0.1,0.3-0.1,0.6-0.2,0.9c-0.8,4-2.3,7.7-4.5,11.2c-2.4,3.6-5.4,6.6-9,8.9
			c-0.3,0.2-0.6,0.3-0.4,0.8c1.2,2.7,2.2,5.4,3.4,8c1.7,3.7,5.6,5.8,9.6,5c2.3-0.4,4.3-1.5,6.4-2.5c1.5-0.8,2.7-2,3.5-3.5
			C83.9,408.7,84.2,406.7,83.8,404.4z M56.6,402.1c0.9-0.3,1.9-0.9,2.8-1.5c6.7-4.6,10.7-10.9,12.2-18.9c0.1-0.5,0-0.6-0.5-0.7
			c-3.9-0.5-7.5,0.2-10.7,2.4c-6.3,4.2-8.7,11.4-6.3,18.6c0.3,1,0.3,1,1.3,0.6C55.7,402.5,56.1,402.3,56.6,402.1z M81.4,427.1
			c3.6-1.5,6.9-3.5,9.9-5.9c0.5-0.4,0.6-0.6,0.3-1.3c-0.8-1.6-0.7-1.7-2.5-1.6c-2.7,0.1-5-0.8-6.7-2.9c-0.3-0.3-0.4-0.2-0.6,0
			c-2.6,1.7-5.4,2.9-8.4,3.6c-0.4,0.1-0.5,0.1-0.4,0.5c0.3,2.6-0.5,4.8-2.3,6.6c-1.5,1.5-1.5,1.5-0.6,3.5c0.2,0.4,0.4,0.5,0.8,0.5
			C74.5,429.5,78,428.5,81.4,427.1z M93.4,418.3c0.9,2.1,1.7,4.1,2.6,6.1c0.2,0.4,0.4,0.3,0.7,0.2c1.2-0.5,2.4-1,3.6-1.5
			c2.1-0.9,4,0,4.8,2.1c0.4,1.2,0.7,2.4,1.1,3.6c1.3,4.3,2.6,8.7,4,13c0.1,0.5,0.3,0.5,0.7,0.3c1.8-0.8,3.5-1.5,5.3-2.2
			c0.5-0.2,0.5-0.4,0.3-0.8c-2.2-5.1-4.3-10.2-6.5-15.2c-1.5-3.4-4.3-5.2-8-5.5c-0.9-0.1-1.8,0-2.7,0
			C97.3,418.3,95.4,418.3,93.4,418.3z M59.9,409.2c-0.6-1.4-1.1-2.6-1.6-3.7c-0.6-1.4-0.6-1.4-2-0.8c-0.9,0.4-1,0.4-0.5,1.3
			c1.9,3.8,2.3,7.7,1.2,11.7c-1,3.6,0.7,7.1,4.1,8.5c3,1.2,7.1,0.1,9-3.2c0.6-1.1,0.8-2.2,0.6-3.4c-0.1-0.5-0.2-0.7-0.8-0.7
			c-3.1-0.5-5.6-2-7.5-4.5C61.2,412.8,60.6,410.8,59.9,409.2z M84.1,398.7c0.4,1,0.9,2,1.3,3c1.6,4,1.2,7.7-1.2,11.3
			c-0.3,0.4-0.2,0.6,0,0.9c0.6,0.8,1.4,1.4,2.4,1.7c3.4,1.1,6.8-0.1,8.6-3.1c2.1-3.5,0.8-7.8-2.9-9.8c-2.4-1.3-4.4-3.1-5.8-5.5
			c-0.7-1.2-1.2-2.6-1.8-3.9c-0.2-0.3-0.3-0.5-0.7-0.2c-0.4,0.3-0.9,0.5-1.4,0.6c-0.5,0.2-0.6,0.3-0.4,0.8
			C82.9,395.9,83.5,397.3,84.1,398.7z M83.1,430.3c3-1.3,6-2.5,9-3.8c0.6-0.3,1.5-0.3,1.8-0.9c0.2-0.5-0.4-1.2-0.6-1.8
			c-0.4-0.9-0.4-0.9-1.2-0.3c-4.2,3.2-8.9,5.7-14,7.2c-2,0.6-4.1,1.1-6.2,1.4c-0.4,0.1-0.7,0.1-0.4,0.7c0.2,0.4,0.4,0.9,0.6,1.3
			c0.2,0.6,0.4,0.7,1,0.4C76.3,433.2,79.7,431.7,83.1,430.3z M76.1,408.5C76.1,408.5,76.1,408.5,76.1,408.5
			c-0.4,0.2-0.9,0.3-1.3,0.5c-0.6,0.3-0.7,0.8-0.5,1.3c0.2,0.5,0.7,0.8,1.2,0.6c1-0.3,1.9-0.7,2.8-1.2c0.5-0.3,0.6-0.8,0.4-1.3
			c-0.3-0.5-0.7-0.7-1.3-0.5C77,408.1,76.6,408.3,76.1,408.5z"/>
		<path class="st0" d="M32.5,392.5c0.6,0.1,1.1-0.2,1.6-0.3c10.1-1.6,18.1,8,14.7,17.7c-0.1,0.1-0.1,0.3-0.2,0.5
			c0.7,0.1,1.3,0.2,1.9,0.3c0.7,0.1,1.2,0.6,1.2,1.4c0.1,0.7-0.2,1.3-0.9,1.6c-3.7,1.5-7.2,3.3-11,4.5c-5.4,1.7-11.4-0.6-14.7-5.2
			c-0.2-0.2-0.2-0.6-0.6-0.6c-0.5-1.1-1-2.3-1.4-3.4c0.2-0.3,0-0.5-0.1-0.8c-1-5.5,0.8-9.9,5.1-13.4c0.4-0.3,0.9-0.5,1.2-0.9
			C30.5,393.3,31.5,392.9,32.5,392.5z M47.4,412.7c-1.4-0.9-1.6-1.5-1-2.9c0-0.1,0.1-0.2,0.1-0.3c1.8-4.4,0.6-9.4-3-12.5
			c-3.7-3.1-8.8-3.6-12.9-1.1c-4.5,2.7-6.5,8.4-4.7,13.2c1.9,5.1,7.1,8.1,12.4,7C41.5,415.6,44.3,413.8,47.4,412.7z"/>
		<path class="st0" d="M90.1,445.1c-2.2,1-4.8-0.1-5.7-2.3c-0.9-2.2,0.1-4.8,2.3-5.7c2.2-0.9,4.8,0.1,5.7,2.3
			C93.3,441.6,92.3,444.2,90.1,445.1z M89.1,443c1.1-0.4,1.6-1.7,1.1-2.7c-0.4-1-1.7-1.5-2.7-1.1c-1,0.4-1.5,1.7-1.1,2.7
			C86.9,443,88.1,443.4,89.1,443z"/>
		<path class="st0" d="M33.1,406.7c0.2,0.6,0,1.2-0.6,1.5c-0.6,0.3-1.3,0-1.5-0.6c-0.3-0.6,0-1.3,0.6-1.5
			C32.2,405.9,32.9,406.2,33.1,406.7z"/>
		<path class="st0" d="M36.7,406.4c-0.6,0.2-1.2,0-1.5-0.6c-0.3-0.6,0-1.3,0.6-1.5c0.6-0.2,1.3,0,1.5,0.7
			C37.6,405.6,37.3,406.2,36.7,406.4z"/>
		<path class="st0" d="M41,404.6c-0.6,0.3-1.3,0-1.5-0.6c-0.2-0.6,0-1.2,0.6-1.5c0.6-0.3,1.3,0,1.5,0.6
			C41.8,403.7,41.6,404.4,41,404.6z"/>
	</g>
	<g>
		<path class="st0" d="M406.6,426.7c0.1-0.6,0.2-1.1,0.9-1.3c0.7-0.1,1,0.3,1.3,0.9c2.8,5.2,5.7,10.3,8.5,15.5
			c1.1,2,2.8,2.5,4.8,1.4c18-9.9,36-19.8,54-29.7c2-1.1,2.5-2.8,1.4-4.8c-8.3-15.1-16.6-30.1-24.9-45.2c-0.3-0.5-0.5-0.5-0.9-0.3
			c-19.6,10.8-39.3,21.7-58.9,32.5c-0.5,0.3-0.6,0.4-0.3,0.9c4.5,8.1,8.9,16.2,13.4,24.3c0.1,0.1,0.2,0.3,0.2,0.4
			c0.3,0.5,0.5,1,0,1.6c-0.5,0.5-1,0.4-1.5,0.1c-6.5-11.8-13-23.5-19.4-35.3c0.1-0.1,0.1-0.2,0-0.3c-0.5-2.9,0.4-4.9,3-6.3
			c17.9-9.9,35.8-19.7,53.8-29.6c0.4-0.2,0.7-0.4,1.1-0.5c2.7-0.9,5.3,0.1,6.7,2.7c9.9,18,19.8,36,29.7,54c0.1,0.1,0.2,0.3,0.2,0.4
			c1,2,0.6,4.6-1,6.2c-0.2,0.2-0.5,0.2-0.5,0.5c-18.7,10.3-37.4,20.6-56.2,30.9c-0.1-0.1-0.2-0.1-0.3,0c-2.1,0.5-3.8,0-5.3-1.5
			c-0.1-0.1-0.1-0.1-0.2-0.1C412.9,438.2,409.7,432.4,406.6,426.7z M421.1,377.5c9.9-5.4,19.7-10.9,29.6-16.3
			c0.4-0.2,0.6-0.4,0.3-0.9c-1.1-1.9-2.1-3.9-3.2-5.8c-1-1.8-2.8-2.4-4.7-1.4c-18,9.9-36.1,19.9-54.1,29.8c-1.8,1-2.4,2.8-1.4,4.7
			c1,1.9,2.1,3.8,3.1,5.7c0.3,0.5,0.5,0.6,1,0.3C401.5,388.3,411.3,382.9,421.1,377.5z"/>
		<path class="st0" d="M423.3,399c2.6,4.8,0.8,10.8-3.9,13.4c-4.8,2.6-10.8,0.8-13.5-4c-2.6-4.7-0.8-10.7,4-13.3
			C414.7,392.5,420.7,394.2,423.3,399z M411,410.5c-0.1-1.3,0.1-2.5,0.7-3.7c0.1-0.2,0.1-0.3-0.1-0.5c-0.9-0.6-1.3-1.6-1.8-2.5
			c-1-1.9-0.4-4.2,1.3-5.4c1.6-1.2,4-1,5.5,0.4c0.9,1,1.6,2.1,1.8,3.5c0,0.2-0.1,0.5,0.3,0.5c1.3,0.1,2.4,0.6,3.5,1.4
			c0.5-3.5-2.2-7.1-5.9-8c-3.8-0.9-7.8,1.2-9.1,5C406,404.8,407.7,409,411,410.5z M418.3,410.6c1.4-0.8,2.5-1.9,3.2-3.4
			c0.2-0.3,0.1-0.5-0.1-0.8c-0.8-0.7-1.8-1.2-2.8-1.3c-0.4-0.1-0.6,0-0.9,0.4c-0.7,1-1.7,1.8-2.9,1.8c-1.1,0-1.3,0.6-1.5,1.4
			c-0.2,0.7-0.2,1.4-0.1,2.2c0.1,0.5,0.2,0.7,0.8,0.7C415.5,411.6,416.9,411.3,418.3,410.6z M415.8,401.5c-0.1-0.2-0.2-0.4-0.3-0.6
			c-0.7-1-1.9-1.3-2.9-0.8c-1,0.6-1.4,1.8-0.8,2.9c0.2,0.4,0.4,0.8,0.6,1.1c0.7,1,2,1.3,3,0.6C416.5,404.1,416.6,402.9,415.8,401.5z
			"/>
		<path class="st0" d="M466.8,401.8c2.6,4.8,0.9,10.8-3.9,13.5c-4.8,2.6-10.8,0.9-13.5-4c-2.6-4.7-0.8-10.7,3.9-13.3
			C458.1,395.3,464.1,397.1,466.8,401.8z M465.8,407.2c0.4-3.8-2.4-7.4-6.2-8.1c-4-0.8-7.9,1.7-8.9,5.6c-1.1,4.1,1.4,7.8,3.8,8.8
			c0-0.6,0-1.2,0.1-1.8c0.1-0.6,0.3-1.2,0.6-1.8c0.1-0.2,0.1-0.4-0.1-0.5c-0.9-0.6-1.3-1.6-1.8-2.5c-0.9-2-0.2-4.3,1.6-5.5
			c1.8-1.1,4.3-0.8,5.6,0.9c0.7,0.9,1.3,2,1.5,3.2c0,0.3,0.1,0.4,0.4,0.4C463.6,405.9,464.8,406.4,465.8,407.2z M461.9,413.4
			c1.4-0.8,2.5-1.9,3.2-3.4c0.2-0.4,0.2-0.6-0.1-0.8c-0.8-0.8-1.8-1.2-2.9-1.3c-0.4,0-0.5,0.1-0.7,0.4c-0.8,1.2-2,1.8-3.4,1.9
			c-0.4,0-0.6,0.1-0.8,0.5c-0.5,1-0.6,2-0.4,3.1c0.1,0.5,0.3,0.6,0.7,0.6C459,414.5,460.5,414.2,461.9,413.4z M459.3,404.3
			c-0.1-0.2-0.2-0.3-0.3-0.5c-0.6-1-1.9-1.4-2.9-0.9c-1.1,0.5-1.5,1.8-0.9,2.9c0.2,0.4,0.4,0.8,0.7,1.2c0.6,0.8,1.6,1.1,2.5,0.8
			c0.9-0.4,1.5-1.3,1.4-2.2C459.8,405.1,459.6,404.7,459.3,404.3z"/>
		<path class="st0" d="M433.5,422.7c-4.4,2.4-8.8,4.8-13.2,7.2c-1.4,0.8-2.2,0.6-3-0.9c-1.3-2.3-2.5-4.6-3.8-6.9
			c-0.7-1.2-0.4-2.1,0.8-2.8c8.2-4.5,16.5-9.1,24.7-13.6c1.2-0.7,2.1-0.4,2.7,0.8c0.7,1.3,1.4,2.5,2.1,3.8c0.2,0.4,0.5,0.7,0.8,0.9
			c0.8,0.5,1.5,1,2.3,1.5c1.1,0.7,1,1.8-0.1,2.5C442.4,417.8,437.9,420.3,433.5,422.7z M444.8,414c-0.4-0.3-0.7-0.5-1.1-0.7
			c-0.9-0.5-1.5-1.2-2-2.1c-0.5-1-1.1-1.9-1.6-2.9c-0.2-0.4-0.4-0.5-0.8-0.2c-7.8,4.3-15.7,8.6-23.5,12.9c-0.4,0.2-0.4,0.4-0.2,0.8
			c1.1,1.9,2.1,3.8,3.1,5.7c0.3,0.5,0.5,0.6,1,0.3c8.1-4.5,16.2-8.9,24.3-13.4C444.3,414.3,444.5,414.2,444.8,414z"/>
		<path class="st0" d="M428,396.5c0.3-0.2,0.5-0.3,0.6-0.4c8.1-4.5,16.2-8.9,24.3-13.4c0.5-0.3,0.6-0.5,0.3-1
			c-1.1-1.9-2.1-3.8-3.2-5.7c-0.2-0.4-0.4-0.4-0.8-0.2c-3.3,1.8-6.7,3.7-10,5.5c-0.5,0.3-1,0.4-1.5,0c-0.6-0.5-0.4-1.4,0.4-1.8
			c2.8-1.6,5.7-3.1,8.5-4.7c0.7-0.4,1.5-0.8,2.2-1.2c1-0.6,2-0.3,2.5,0.7c1.4,2.4,2.7,4.9,4.1,7.4c0.6,1,0.3,2-0.8,2.5
			c-9,4.9-17.9,9.9-26.9,14.8c-1.1,0.6-2.2,0-2.1-1.2c0.2-2.5-0.5-4.7-1.9-6.7c-0.3-0.4-0.5-0.9-0.8-1.4c-0.4-0.9-0.2-1.8,0.6-2.3
			c3.3-1.8,6.5-3.6,9.8-5.4c0.6-0.3,1.2-0.1,1.5,0.4c0.3,0.6,0.1,1.2-0.6,1.5c-2.9,1.6-5.7,3.2-8.6,4.7c-0.5,0.2-0.6,0.4-0.3,0.9
			c0.6,0.9,1,1.9,1.6,2.8c0.5,0.9,0.8,1.8,0.7,2.8C427.9,395.6,428,396,428,396.5z"/>
		<path class="st0" d="M439.3,384.6c2.2-1.2,4.4-2.4,6.6-3.6c0.7-0.4,1.3-0.3,1.7,0.3c0.3,0.6,0.1,1.2-0.7,1.6
			c-4.4,2.4-8.9,4.9-13.3,7.3c-0.7,0.4-1.4,0.3-1.7-0.3c-0.3-0.6-0.1-1.2,0.7-1.6C434.8,387,437,385.8,439.3,384.6z"/>
		<path class="st0" d="M390.4,388.4c-0.9-1.5-0.3-3.5,1.2-4.4c1.5-0.9,3.5-0.3,4.4,1.2c0.9,1.5,0.3,3.5-1.2,4.4
			C393.2,390.5,391.2,389.9,390.4,388.4z M394.1,386.3c-0.3-0.5-0.9-0.7-1.4-0.4c-0.5,0.3-0.7,0.9-0.4,1.5c0.3,0.5,0.9,0.7,1.4,0.4
			C394.2,387.5,394.4,386.8,394.1,386.3z"/>
		<path class="st0" d="M397.8,384.2c-0.8-1.5-0.2-3.5,1.3-4.3c1.5-0.8,3.5-0.2,4.3,1.3c0.8,1.5,0.2,3.5-1.3,4.3
			C400.6,386.3,398.7,385.8,397.8,384.2z M399.7,383.2c0.3,0.5,0.9,0.7,1.5,0.5c0.5-0.3,0.7-0.9,0.4-1.4c-0.3-0.5-0.9-0.7-1.5-0.4
			C399.6,382,399.4,382.7,399.7,383.2z"/>
		<path class="st0" d="M405.3,380.1c-0.9-1.5-0.3-3.5,1.2-4.4c1.5-0.9,3.5-0.3,4.4,1.2c0.9,1.5,0.3,3.5-1.2,4.4
			C408.2,382.2,406.2,381.7,405.3,380.1z M409,378c-0.3-0.5-0.9-0.7-1.4-0.4c-0.5,0.3-0.7,1-0.4,1.5c0.3,0.5,0.9,0.7,1.4,0.4
			C409.1,379.2,409.3,378.6,409,378z"/>
		<path class="st0" d="M428.8,417.2c2.2-1.2,4.4-2.4,6.6-3.6c0.7-0.4,1.3-0.3,1.7,0.3c0.3,0.6,0.1,1.2-0.7,1.6
			c-4.4,2.4-8.9,4.9-13.3,7.3c-0.7,0.4-1.4,0.3-1.7-0.3c-0.3-0.6-0.1-1.2,0.7-1.6C424.4,419.6,426.6,418.4,428.8,417.2z"/>
	</g>
	<g>
		<path class="st0" d="M578.7,37.1c7.3,6.1,14.5,12.2,21.8,18.3c3.1,2.6,3.3,6,0.8,9c-8.5,10.1-17,20.3-25.5,30.4
			c-2.6,3-5.9,3.3-9,0.8c-8.2-6.9-16.4-13.8-24.6-20.7c-0.4-0.4-0.8-0.5-1.4-0.5c-6,0-11.9,0.1-17.9,0.1c-0.3,0-0.6,0-0.9,0
			c-0.6,0-1-0.3-1.3-0.8c-0.2-0.5-0.2-1.1,0.2-1.5c0.9-1,1.7-2,2.6-3.1c1.4-1.7,2.9-3.4,4.3-5.1c0.4-0.4,0.4-0.7-0.1-1.1
			c-1.7-1.4-3.4-2.9-5.2-4.3c-2.6-2.2-2.9-5.7-0.8-8.3c8.7-10.4,17.5-20.8,26.3-31.2c2.2-2.6,5.7-2.8,8.4-0.6
			C563.9,24.7,571.3,30.9,578.7,37.1z M525.3,71.7c5.5,0,10.8,0,16.1-0.1c0.8,0,1.5,0.2,2.2,0.8c8.4,7.1,16.8,14.2,25.2,21.2
			c1.5,1.3,3.2,1.2,4.5-0.4c8.7-10.3,17.3-20.6,26-30.9c1.2-1.5,1.1-3.2-0.4-4.4c-14.7-12.4-29.4-24.7-44.1-37.1
			c-1.5-1.3-3.2-1.1-4.5,0.4c-8.6,10.3-17.3,20.6-25.9,30.8c-1.3,1.5-1.1,3.2,0.4,4.5c2.1,1.8,4.3,3.6,6.5,5.4
			c0.9,0.8,1,1.5,0.2,2.5c-0.3,0.4-0.7,0.8-1,1.2C528.7,67.6,527,69.6,525.3,71.7z"/>
		<path class="st0" d="M554.4,56.8c1-0.8,1.9-1.7,2.9-2.5c0.3-0.3,0.4-0.5,0.4-0.9c-0.1-1.1-0.2-2.1-0.3-3.2c-0.1-0.7,0-1.4,0.6-1.8
			c0.7-0.4,1.3-0.2,1.9,0.2c0.8,0.5,1.7,1,2.5,1.6c0.5,0.3,0.9,0.4,1.5,0.1c0.9-0.5,1.9-0.8,2.8-1.3c0.6-0.3,1.3-0.4,1.8,0.1
			c0.6,0.5,0.7,1.1,0.5,1.8c-0.3,1-0.5,2-0.8,3c-0.2,0.6,0,1,0.4,1.4c0.8,0.8,1.5,1.6,2.2,2.5c0.4,0.5,0.6,1,0.3,1.6
			c-0.3,0.6-0.7,0.8-1.3,0.9c-1.2,0.1-2.4,0.2-3.6,0.3c-0.4,0-0.6,0.1-0.8,0.5c-0.6,1-1.2,2-1.8,3.1c-0.3,0.6-0.8,0.9-1.4,0.9
			c-0.7,0-1.1-0.5-1.3-1.1c-0.4-1.1-0.9-2.1-1.3-3.2c-0.1-0.4-0.4-0.6-0.8-0.7c-1.2-0.2-2.4-0.5-3.6-0.8
			C554,58.9,553.6,57.7,554.4,56.8z M558.7,57c2.1,0,3.3,1.1,3.8,3.1c0.7-2,2.1-2.8,4.2-2.6c-1.7-1.3-2.1-2.9-1.1-4.8
			c-1.1,0.3-1.8,1-2.7,0.9c-0.9-0.1-1.4-0.9-2.5-1.2C561.3,54.5,560.4,55.9,558.7,57z"/>
		<path class="st0" d="M556.3,47.5c-0.3,0.4-0.7,0.5-1.2,0.5c-1.2,0.1-2.3,0.2-3.5,0.2c-0.4,0-0.6,0.2-0.9,0.5c-0.6,1-1.2,2-1.8,3.1
			c-0.3,0.6-0.8,0.9-1.5,0.8c-0.6-0.1-1-0.5-1.2-1c-0.5-1.1-0.9-2.2-1.3-3.3c-0.1-0.4-0.3-0.5-0.7-0.6c-1.1-0.2-2.3-0.5-3.4-0.7
			c-0.7-0.1-1.2-0.4-1.3-1.1c-0.2-0.7,0.1-1.2,0.7-1.6c0.9-0.7,1.7-1.5,2.6-2.2c0.4-0.3,0.4-0.6,0.4-1c-0.1-1.1-0.2-2.3-0.3-3.4
			c-0.1-0.6,0-1.2,0.6-1.6c0.6-0.4,1.1-0.3,1.7,0c1,0.6,1.9,1.2,2.9,1.8c0.4,0.3,0.8,0.3,1.3,0.1c1-0.5,2.1-0.9,3.1-1.4
			c0.6-0.3,1.2-0.2,1.7,0.2c0.5,0.4,0.6,0.9,0.5,1.5c-0.3,1.1-0.5,2.2-0.8,3.2c-0.2,0.6,0,1,0.4,1.4c0.8,0.8,1.5,1.7,2.3,2.5
			C556.7,46.2,556.7,46.9,556.3,47.5z M544.2,44.7c0.2,0.3,0.5,0.2,0.8,0.3c1.3,0.1,2.1,0.8,2.5,2.1c0.1,0.3,0.1,0.6,0.5,0.8
			c0.6-2,2-2.7,4.1-2.5c-1.8-1.3-2.1-2.9-1.2-4.9c-1.8,1.4-3.4,1-4.9-0.2c0,0.2,0,0.4,0,0.5c0.4,1.5,0,2.7-1.4,3.6
			C544.4,44.3,544.2,44.4,544.2,44.7C544.2,44.6,544.2,44.6,544.2,44.7c-0.1,0-0.1,0-0.1,0C544.2,44.8,544.2,44.7,544.2,44.7z"/>
		<path class="st0" d="M569.1,69c0.9-0.8,1.8-1.6,2.8-2.4c0.4-0.3,0.5-0.6,0.4-1c-0.1-1.1-0.2-2.3-0.4-3.4c-0.1-0.7,0.1-1.2,0.7-1.6
			c0.6-0.4,1.1-0.2,1.7,0.1c0.9,0.6,1.9,1.2,2.8,1.8c0.4,0.3,0.8,0.3,1.3,0.1c1-0.5,2-0.9,3-1.3c0.6-0.3,1.2-0.2,1.7,0.2
			c0.5,0.4,0.7,1,0.5,1.6c-0.3,1.1-0.5,2.2-0.8,3.2c-0.2,0.5,0,0.9,0.3,1.3c0.8,0.8,1.5,1.7,2.3,2.5c0.4,0.5,0.6,1,0.3,1.6
			c-0.3,0.6-0.8,0.8-1.4,0.8c-1.1,0.1-2.2,0.2-3.3,0.2c-0.6,0-0.9,0.3-1.2,0.8c-0.5,0.9-1.1,1.8-1.6,2.8c-0.3,0.6-0.8,0.9-1.4,0.9
			c-0.7,0-1.1-0.5-1.4-1.1c-0.4-1-0.9-2-1.2-3.1c-0.2-0.5-0.4-0.7-0.9-0.8c-1.2-0.2-2.3-0.5-3.5-0.8C568.6,71.2,568.2,70,569.1,69z
			 M577.1,72.3c0,0,0,0.1,0,0.1C577.1,72.4,577.2,72.4,577.1,72.3C577.1,72.4,577.1,72.3,577.1,72.3c0.4-0.2,0.5-0.6,0.7-1
			c0.4-0.9,1.1-1.4,2.1-1.3c0.4,0,0.9,0,1.3,0c0.1-0.1,0.1-0.1,0.2-0.2c-1.9-1.2-2.1-2.7-1.3-4.7c-1.8,1.2-3.4,1.1-4.9-0.4
			c0.6,2,0.1,3.5-1.8,4.4c0.5,0.5,1,0.5,1.5,0.5c0.8,0.1,1.4,0.6,1.7,1.4C576.7,71.5,576.7,72,577.1,72.3z"/>
		<path class="st0" d="M544.2,44.7c0,0.1,0,0.1-0.1,0C544.1,44.7,544.1,44.6,544.2,44.7C544.2,44.6,544.2,44.6,544.2,44.7
			C544.2,44.7,544.2,44.7,544.2,44.7z"/>
		<path class="st0" d="M577.1,72.3C577.1,72.3,577.1,72.4,577.1,72.3c0.1,0.1,0,0.1,0,0.1C577.1,72.4,577.1,72.3,577.1,72.3
			C577.1,72.3,577.1,72.3,577.1,72.3z"/>
	</g>
	<g>
		<path class="st0" d="M150.2,232.3c-1.3-3.3-2.6-6.5-3.9-9.7c-0.1-0.3-0.4-0.5-0.7-0.6c-2.9-0.9-5.8-2.1-8.5-3.6
			c-0.6-0.3-0.6,0.2-0.7,0.4c-1.2,2.5-2.7,4.9-4.4,7.1c-0.7,0.9-1.4,1.2-2.6,1.1c-4.6-0.8-8.9-2-12.9-4.5c-2.1-1.3-3.8-3-5-5.2
			c-1.7-3-1.3-6.9,0.9-9.5c2.2-2.6,5.9-3.5,9.2-2.1c0.7,0.3,0.9,0.2,1.2-0.5c0.4-1.1,1.1-2,2-2.7c0.6-0.4,0.8-0.9,0.9-1.6
			c1-8.1,9.4-12.2,16.6-8.2c0.7,0.4,0.8,0.3,1.1-0.4c2.5-8,11.4-10.7,17.9-5.4c0.4,0.3,0.7,0.4,1.2,0.4c1.4-0.1,2.7,0.1,3.9,0.6
			c0.4,0.2,0.6,0.3,0.8-0.2c1.4-3.5,5.1-5.6,8.6-5.1c3.7,0.6,6.4,3.5,7.1,7.4c0.6,3.5-0.2,6.7-1.6,9.9c-1.3,3-3,5.7-5,8.3
			c-0.6,0.8-1.3,1.1-2.3,0.9c-2.8-0.4-5.6-1.1-8.2-2.1c-0.6-0.2-0.8-0.2-0.9,0.4c-0.6,2.1-1.5,4.1-2.5,6c-0.2,0.4-0.3,0.7-0.6,1.1
			c2.2-0.2,4,0.3,5.5,1.7c0.3,0.3,0.4,0.3,0.7,0c2.3-2.9,6.6-3.2,9.3-0.6c0.3,0.3,0.4,0.3,0.8,0c3.4-3.8,9-2.9,10.9,1.9
			c2.1,5.3,4.3,10.6,6.4,15.9c3,7.6-0.5,15.8-8,18.9c-3.9,1.6-7.7,3.1-11.6,4.7c-6.6,2.6-12.5,1-16.7-4.8c-1.8-2.4-4-4.1-6.7-5.3
			c-3.9-1.6-7.8-3.3-11.7-5c-2.6-1.1-3.3-3.1-1.9-5.6c2.1-3.8,6.3-5.6,10.5-4.5C149.5,232.1,149.8,232.2,150.2,232.3z M150.5,224.3
			c1.4,3.4,2.7,6.8,4.1,10.1c0.3,0.8,0.3,1.4-0.3,2.1c-0.6,0.6-1.3,0.5-2,0.2c-1.1-0.5-2.2-1-3.3-1.4c-2.9-1.1-6,0.1-7.5,2.7
			c-0.3,0.6-0.3,0.9,0.4,1.2c3.6,1.5,7.1,3.1,10.7,4.5c3.8,1.5,6.9,3.8,9.3,7.1c3.1,4.2,7.5,5.4,12.4,3.5c4.1-1.6,8.1-3.2,12.1-4.9
			c5.3-2.2,8.3-8.4,6.3-13.6c-2.2-5.8-4.6-11.5-6.9-17.3c-0.6-1.4-2.1-2.1-3.6-1.8c-1.4,0.3-2.5,1.7-2.4,3.3c0,0.8,0.4,1.5,0.7,2.2
			c0.4,1.1,0.2,2-0.8,2.4c-0.9,0.4-1.7,0-2.2-1.1c-0.6-1.4-1.1-2.8-1.7-4.2c-0.7-1.7-2.5-2.4-4.2-1.8c-1.6,0.7-2.4,2.5-1.7,4.2
			c0.5,1.3,1.1,2.7,1.6,4c0.5,1.2,0.2,2.1-0.7,2.4c-0.9,0.4-1.7,0-2.2-1.2c-0.9-2.2-1.8-4.4-2.6-6.6c-0.8-2-2.6-2.9-4.4-2.2
			c-1.8,0.7-2.4,2.5-1.6,4.6c0.8,2.1,1.7,4.2,2.5,6.3c0.1,0.3,0.3,0.6,0.3,1c0.1,0.8-0.2,1.4-1,1.7c-0.8,0.3-1.4,0.1-1.9-0.6
			c-0.2-0.3-0.3-0.7-0.5-1c-2.4-5.9-4.8-11.8-7.1-17.8c-0.2-0.4-0.3-0.8-0.6-1.2c-0.8-1.3-2.3-1.8-3.7-1.3c-1.8,0.7-2.6,2.5-1.8,4.4
			C147.7,217.6,149.1,221,150.5,224.3z M157.5,216.1c3-5.1,5.3-10.3,5.6-16.1c0.2-2.8-0.3-5.6-1.7-8.1c-2-3.4-5.6-5.1-9.2-4.2
			c-3.3,0.8-5.9,4.2-6,7.9c0,0.9,0.1,1.9-1,2.4c-1.1,0.5-1.7-0.4-2.5-1.1c-2.6-2.4-5.7-3.2-9.1-1.9c-3.2,1.3-4.6,3.9-4.8,7.3
			c-0.1,1.8,0.4,3.6,1.3,5.2c1.2,2.3,3,4.2,5.1,5.8c2.8,2.1,5.9,3.7,9.4,5c-0.5-1.2-0.9-2.1-1.2-3.1c-1.5-4.1,1-8.4,5.3-8.8
			c2.9-0.3,5.4,1.3,6.6,4.2C156,212.4,156.7,214.1,157.5,216.1z M164.5,190.8c1.9,4.1,2.2,8.2,1.4,12.5c-0.1,0.4,0,0.5,0.4,0.7
			c2.3,0.9,4.8,1.6,7.3,2c0.4,0.1,0.6-0.1,0.8-0.4c2-2.7,3.7-5.6,4.7-8.7c0.8-2.3,1.1-4.7,0.4-7.1c-0.8-2.7-3.5-4.4-6.1-3.7
			c-2.1,0.6-3.6,2.5-3.7,4.9c0,0.8-0.2,1.4-1,1.7c-0.8,0.3-1.4,0-1.9-0.5C166.2,191.5,165.5,191.1,164.5,190.8z M126,206.2
			c-0.6,1-0.7,1.9-0.8,2.8c0,0.7-0.4,1.2-1,1.4c-0.7,0.3-1.2,0.1-1.7-0.3c-0.1-0.1-0.3-0.3-0.4-0.4c-1.6-1.5-4.1-1.8-6-0.7
			c-1.9,1.1-2.8,3.2-2.2,5.4c0.6,2.4,2.2,4,4.1,5.3c3.4,2.3,7.2,3.3,11.1,4.1c0.4,0.1,0.6-0.1,0.8-0.3c1.5-2,2.8-4.1,3.8-6.4
			c0.2-0.3,0.2-0.6-0.2-0.8C130.1,213.7,127.5,210.5,126,206.2z"/>
	</g>
	<g>
		<path class="st0" d="M549.3,340.4c-11.4,0-22.7,0-34.1,0c-3.6,0-5.6-2-5.6-5.6c0-20.5,0-41,0-61.4c0-3.6,2-5.6,5.6-5.6
			c2.3,0,4.6,0,6.9,0c0.6,0,0.8-0.2,0.7-0.8c-0.1-0.8,0-1.5,0.2-2.3c0.7-2.2,2.9-3.8,5.2-3.5c2.6,0.3,4.4,2.2,4.6,4.8
			c0.1,1.8,0.1,1.8,1.9,1.8c10,0,20.1,0,30.1,0c0.8,0,1-0.2,1-1c0-2.9,1.3-4.9,3.7-5.4c3.2-0.8,6.1,1.4,6.2,4.8
			c0.1,1.6,0.1,1.6,1.7,1.6c2.1,0,4.2,0,6.3,0c3.1,0,5.2,2.1,5.2,5.2c0,20.7,0,41.5,0,62.2c0,3.2-2.1,5.3-5.3,5.3
			C572.2,340.4,560.8,340.4,549.3,340.4z M549.3,285.9c-11.8,0-23.5,0-35.3,0c-0.9,0-1,0.2-1,1.1c0,15.9,0,31.9,0,47.8
			c0,1.9,0.5,2.4,2.4,2.4c22.6,0,45.2,0,67.8,0c1.9,0,2.4-0.5,2.4-2.4c0-15.9,0-31.9,0-47.8c0-0.8-0.2-1.1-1-1.1
			C572.9,285.9,561.1,285.9,549.3,285.9z M549.3,282.6c11.8,0,23.6,0,35.4,0c0.8,0,1-0.2,1-1c-0.1-2.8,0-5.6,0-8.4
			c0-1.6-0.6-2.2-2.2-2.2c-2.1,0-4.1,0-6.2,0c-1.5,0-1.5,0-1.6,1.5c-0.1,2.7-1.8,4.7-4.2,5.1c-3.3,0.5-5.8-1.8-5.7-5.4
			c0-0.9-0.2-1.2-1.1-1.2c-10.1,0-20.1,0-30.2,0c-1.6,0-1.6,0-1.7,1.6c-0.2,3.6-3.6,5.9-6.8,4.6c-2.1-0.8-3.2-2.6-3.1-5.3
			c0-0.8-0.2-1-1-1c-2.3,0.1-4.5,0-6.8,0c-1.6,0-2.2,0.6-2.2,2.2c0,2.8,0,5.6,0,8.4c0,0.8,0.2,1,1,1
			C525.7,282.5,537.5,282.6,549.3,282.6z M529.5,269.4c0-1,0-2,0-3c0-1.2-0.7-2-1.6-2c-1,0-1.7,0.7-1.7,1.9c0,2,0,4.1,0,6.1
			c0,1.2,0.6,1.9,1.6,1.9c1,0,1.6-0.7,1.7-1.8C529.6,271.4,529.5,270.4,529.5,269.4z M572.4,269.4c0-1.1,0-2.1,0-3.2
			c0-1.1-0.7-1.8-1.6-1.8c-0.9,0-1.6,0.7-1.7,1.8c0,2.1,0,4.2,0,6.4c0,1.1,0.7,1.8,1.6,1.8c1,0,1.6-0.7,1.7-1.8
			C572.5,271.4,572.4,270.4,572.4,269.4z"/>
		<path class="st0" d="M529.5,303.1c0.2-4,2.4-7.6,6.9-9.6c4.4-2,8.6-1.2,12.3,1.9c0.4,0.4,0.6,0.5,1.1,0c4.5-4.1,11.2-4,15.7,0.2
			c4.3,4.1,4.8,10.9,1,15.5c-2.4,2.9-5.2,5.6-7.8,8.4c-2.6,2.8-5.2,5.5-7.9,8.3c-1.2,1.3-2,1.3-3.2,0c-5-5.3-10-10.6-15-15.9
			C530.6,309.7,529.5,307.1,529.5,303.1z M565.8,304.1c0-3.6-2.2-6.7-5.6-7.9c-3.3-1.1-7,0-9.2,2.8c-1.2,1.6-2.2,1.6-3.4,0
			c-2.2-2.7-5-3.8-8.4-3c-6.3,1.5-8.5,9-4,13.8c4.5,4.8,9.1,9.6,13.6,14.4c0.4,0.4,0.6,0.4,1,0c1.9-2.1,3.8-4.1,5.8-6.1
			c2.5-2.7,5.1-5.3,7.6-8C564.8,308.4,565.8,306.5,565.8,304.1z"/>
	</g>
	<g>
		<path class="st0" d="M466.7,71.2c2.8,0.9,5.6,1.9,8.4,2.8c4.2,1.4,6,5.1,4.7,9.3c-1.1,3.3-2.2,6.5-3.3,9.8
			c-0.2,0.7-0.5,1.2,0.5,1.7c1.2,0.6,1.4,1.8,1.2,3c-0.6,5.2-1.2,10.4-1.9,15.6c-0.1,0.9,0.1,1.6,0.5,2.4c3.3,5.9,4.7,12.2,4.4,18.9
			c-0.1,1.1,0.2,1.5,1.2,1.8c1,0.3,1.9,0.6,2.8,1c4.1,1.9,5.9,6.2,4.4,10.3c-1.4,3.9-5.8,6.4-9.9,4.9c-3.1-1.2-4.5-0.4-6.3,2.1
			c-3.3,4.7-7.9,8-13.2,10.3c-0.8,0.4-1.4,0.9-1.8,1.6c-2.6,4.5-5.2,8.9-7.8,13.4c-0.7,1.2-1.7,2.1-3.2,1.8c-0.9-0.2-0.8,0.5-1,0.9
			c-1.1,3.3-2.2,6.6-3.3,9.9c-1.4,4.2-5.1,6.1-9.3,4.7c-5.6-1.8-11.2-3.7-16.8-5.6c-4.2-1.4-6-5.1-4.6-9.3c1.1-3.3,2.2-6.6,3.3-9.9
			c0.2-0.6,0.4-1.1-0.5-1.5c-1.2-0.6-1.4-1.8-1.3-3.1c0.6-5.2,1.2-10.4,1.9-15.6c0.1-0.8,0-1.5-0.4-2.3
			c-10.1-18.5-2.7-40.6,16.5-49.3c0.8-0.4,1.3-0.9,1.8-1.7c2.6-4.5,5.2-9,7.9-13.5c0.6-1.1,1.5-1.9,2.8-1.6c0.9,0.2,1.1-0.2,1.3-0.9
			c1-3.1,2.2-6.2,3.1-9.3c1.3-5,5.9-6.8,10.3-5.1C461.5,69.7,464.2,70.4,466.7,71.2z M417.9,123.4c-5.2,15.5,3.2,32.4,18.7,37.7
			c15.5,5.3,32.6-3.2,37.8-18.8c5.2-15.6-3.3-32.6-18.9-37.7C440,99.5,423.1,107.9,417.9,123.4z M460.7,89.3c3.1,1,6.1,2,9.2,3.1
			c0.8,0.3,1.2,0.2,1.4-0.7c1.1-3.3,2.2-6.6,3.3-9.9c0.5-1.3,0-2.1-1.3-2.5c-5.6-1.9-11.1-3.7-16.7-5.6c-1.3-0.4-2.1-0.1-2.5,1.3
			c-1.1,3.3-2.2,6.6-3.3,9.9c-0.3,0.9-0.1,1.2,0.8,1.4C454.6,87.2,457.7,88.2,460.7,89.3z M431.4,176.5c-3-1-6-2-9-3
			c-0.8-0.3-1.2-0.2-1.5,0.7c-1.1,3.3-2.2,6.6-3.3,9.9c-0.5,1.3,0,2.1,1.3,2.6c5.6,1.9,11.1,3.7,16.7,5.6c1.3,0.4,2.1,0.1,2.6-1.2
			c1.1-3.3,2.2-6.6,3.3-9.9c0.3-0.9,0.1-1.2-0.7-1.4C437.6,178.6,434.5,177.5,431.4,176.5z M420.8,157.4c-0.4,3.1-0.7,6-1.1,8.8
			c-0.1,0.7,0.3,0.8,0.8,0.9c8.5,2.8,17,5.7,25.6,8.5c0.4,0.1,0.8,0.3,1.1-0.2c1.5-2.5,2.9-5.1,4.5-7.8
			C439.7,169.2,429.5,165.8,420.8,157.4z M471.5,108.4c0.4-3.1,0.7-6,1.1-8.9c0.1-0.6-0.3-0.7-0.7-0.8c-8.5-2.8-17-5.7-25.6-8.5
			c-0.4-0.1-0.8-0.4-1.1,0.2c-1.5,2.5-2.9,5.1-4.5,7.8C452.6,96.6,462.8,100,471.5,108.4z M480.1,147.1c0.4,0.1,0.8,0.3,1.1,0.4
			c1.7,0.4,3.1-0.4,3.5-1.9c0.4-1.7-0.6-2.9-3.2-3.7c-2-0.7-1.3,1.2-1.8,1.9c-0.3,0.3-0.3,0.9-0.5,1.3
			C478.6,146.2,478.7,147,480.1,147.1z"/>
		<path class="st0" d="M451.8,124.6c-0.9,2.7-1.8,5.4-2.7,8.1c-0.4,1.2-1.1,2-2.2,2.5c-2.5,1.2-4.9,2.6-7.3,3.8
			c-1.8,0.9-3.3,0.6-4.1-0.9c-0.7-1.5-0.1-2.9,1.6-3.9c2.3-1.2,5.2-2,6.7-3.8c1.6-1.9,1.9-5,2.8-7.5c1-2.9,1.9-5.8,2.9-8.7
			c0.5-1.3,1.4-2.1,2.9-2c1.4,0.1,2.2,1,2.4,2.3c0.1,0.6-0.1,1.3-0.3,1.9C453.6,119.2,452.7,121.9,451.8,124.6z"/>
	</g>
	<g>
		<g>
			<g>
				<g>
					<g>
						<path class="st0" d="M315.5,204.2c-0.2,0.1-0.4,0.2-0.5,0.3C315.2,204.4,315.3,204.3,315.5,204.2
							C315.5,204.2,315.5,204.2,315.5,204.2z"/>
						<path class="st0" d="M347.2,192.1L347.2,192.1l-0.1,0.2c-0.1,0.3-0.2,0.6-0.3,0.9c-8.5,23.4-27.5,40.4-42.3,50.6l-3.4-3.9
							c13.4-9.2,30.9-24.5,39.5-45.2c-22.6,4.2-42.8,18.5-54.1,38.6c-2.7,4.7-4.8,9.6-6.5,14.8c-0.6,1.8-1.1,3.7-1.5,5.6
							c6.7,5.8,15.3,9,24.2,9c1.5,0,3-0.1,4.5-0.3c-4.1-5.2-10.4-12.4-15-17.6c-2.2-2.5-2.6-6-1-9c0,0,0-0.1,0.1-0.1
							c7.7,8.3,15.1,17.1,22,26l0,0c0.1,0.1,0.1,0.1,0.1,0.1c2.8,3.7,5.6,7.4,8.4,11.3l1.5,2.1l-0.9,0.6c-0.7,0.5-1.6,0.8-2.4,0.8
							c-1.3,0-2.6-0.6-3.4-1.7c-1.3-1.8-3.2-4.4-4.7-6.5c-0.7-0.9-1.7-1.3-2.9-1.2c-2.1,0.3-4.3,0.5-6.4,0.5
							c-10.6,0-20.7-3.9-28.5-11.1c-0.1-0.1-0.3-0.2-0.3-0.3l-1.1-1l0.3-1.4c0.1-0.2,0.1-0.3,0.1-0.4c0.5-2.4,1.2-4.8,1.9-7.1
							c1.7-5.5,4-10.8,6.9-15.7c6.3-11.2,15.3-20.9,25.9-28.1c10.5-7.1,22.6-11.8,35.1-13.6h0.1l0.9-0.1
							C345.8,188.8,347.3,190.3,347.2,192.1z"/>
					</g>
					<g>
						<path class="st0" d="M264.3,214.2c0.2,0.2,0.5,0.3,0.7,0.5c0.2,0.1,0.4,0.1,0.5-0.1c0.3-0.6,0.4-1.3-0.1-2
							c-0.2-0.3-0.3-0.4-0.6-0.6c-0.9-0.5-1.8-0.3-2.4,0.3c-0.2,0.2-0.2,0.6,0.1,0.7C263.1,213.4,263.7,213.8,264.3,214.2z"/>
						<path class="st0" d="M265.2,215c-0.1,0-0.2-0.1-0.3-0.1c-0.2-0.2-0.5-0.3-0.7-0.5l0,0c-0.6-0.5-1.2-0.9-1.8-1.2
							c-0.2-0.1-0.3-0.3-0.3-0.5c0-0.2,0.1-0.4,0.2-0.5c0.7-0.7,1.7-0.8,2.7-0.3c0.3,0.2,0.5,0.4,0.6,0.6c0.4,0.7,0.5,1.5,0.1,2.2
							c-0.1,0.1-0.2,0.2-0.3,0.3C265.3,215,265.2,215,265.2,215z M264.4,214.1c0.2,0.2,0.5,0.3,0.7,0.5c0,0,0.1,0.1,0.1,0
							c0,0,0.1,0,0.1-0.1c0.3-0.6,0.3-1.2-0.1-1.8c-0.1-0.2-0.3-0.4-0.5-0.5c-0.9-0.5-1.7-0.2-2.2,0.2c-0.1,0.1-0.1,0.2-0.1,0.2
							c0,0.1,0.1,0.2,0.1,0.2C263.2,213.2,263.8,213.6,264.4,214.1L264.4,214.1z"/>
					</g>
				</g>
			</g>
			<g>
				<path class="st0" d="M243.3,223.1v4.8h-4.8v-3.3c0-1.3,0.2-2.4,0.7-3.5c0.4-1,1.1-2,2.2-3.1l1.8,1.4c-1.2,1.3-1.8,2.5-2,3.6
					L243.3,223.1L243.3,223.1z M250.6,223.1v4.8h-4.8v-3.3c0-1.3,0.2-2.4,0.7-3.5c0.4-1,1.1-2,2.2-3.1l1.8,1.4
					c-1.2,1.3-1.8,2.5-2,3.6L250.6,223.1L250.6,223.1z"/>
			</g>
		</g>
		<path class="st0" d="M268.2,251.1l0.6,0.8c0.5-2,1.6-6.3,1.6-6.4c-2.8-4-4.8-8.4-5.9-13.2c-0.1-0.3-0.1-0.5-0.2-0.7l-0.6-3.5
			c0-0.2-0.1-0.4-0.1-0.5v-0.3c0-0.2-0.1-0.4-0.1-0.6c0-0.1,0-0.1,0-0.2l-0.1-0.2c-0.2-1.1-1.3-6.6-2.4-9.4l-0.1-0.2l-0.7-1.3
			c-0.7-1.4-1.4-2.7-2.3-4c1.5-1,3.2-1.5,5-1.5c4.5,0.1,8.3,3.7,8.6,8.3c0,0.3,0,0.5-0.1,0.8l-0.3,1.6c-0.1,0.3,0.1,0.7,0.3,0.9l0,0
			c1.9,2,3.8,4.2,5.7,6.4l0.1,0.1c0.1-0.2,0.2-0.4,0.3-0.6c0.8-1.4,1.6-2.8,2.5-4.1l-2.7-3c-0.4-0.4-0.6-0.9-0.6-1.5l0,0
			c0-1.9-0.4-3.8-1.1-5.5c-0.7-1.7-1.8-3.2-3.1-4.6c-2.7-2.6-6.1-4-9.8-4c-3.2,0.1-6.1,1.1-8.5,3.1c-5.3-1.8-10.8-2.9-16.4-3.3
			c-0.9-0.1-1.7,0.6-1.9,1.5c-0.1,0.5,0.1,0.9,0.3,1.3c0.3,0.4,0.7,0.6,1.2,0.7c5.2,0.8,10,2.6,14.3,5.4c1.6,1.1,3,2.6,3.8,4.3
			l0.6,1.1c0.9,2.4,1.7,6,2,7.8v0.1c0.2,2.2,0.5,4.5,0.9,6.6c1.4,6.1,4,11.8,7.9,16.8L268.2,251.1z"/>
	</g>
	<g>
		<path class="st0" d="M456.2,273.2c-0.4,1-0.4,2.1-0.5,3.1c-2,12.8-8,23.3-18,31.6c-0.3,0.2-0.6,0.5-1,0.7
			c-0.8,0.4-1.7,0.2-2.3-0.5c-0.6-0.7-0.6-1.7,0-2.4c0.3-0.3,0.6-0.6,1-0.9c8.6-7.1,13.8-16.2,16-27.1c0.9-4.4,1-10,0.4-14.2
			c-0.5,1.7-1.5,2.8-2.6,3.8c-1.4,1.3-2.9,1-3.6-0.8c-0.8-2.1-1.5-4.3-2.3-6.4c-0.6-1.6-1.9-2.6-3-3.8c-0.3-0.4-0.8-0.2-1.4-0.2
			c0.7,1.4,0,2.4-1,3.3c-2.8,2.5-6,4.3-9.5,5.6c-1.4,0.5-2.2,0.2-2.9-1.1c-1.6-3-3.2-6.1-4.8-9.1c-0.2-0.4-0.4-0.8-0.3-1.2
			c0.2-1-0.4-1.6-1-2.3c-1.2-1.3-2.6-2-4.2-2.5c-1.4-0.4-1.9-1.2-1.7-2.3c0.2-1.1,1.2-1.8,2.2-1.5c2,0.6,4,1,5.5,2.7
			c0.6,0.7,1.3,1.3,2,2c0.7,0.7,1.1,1.4,1,2.4c-0.1,0.8,0.2,1.5,0.6,2.2c1.1,2,2.1,4,3.1,6c0.3,0.5,0.5,0.5,1,0.3
			c1.9-0.8,3.6-1.8,5.3-3.1c0.4-0.3,0.5-0.5,0.2-1c-1.1-2.1,0.1-4.2,2.6-4.3c0,0,0.1,0,0.1,0c5.3-0.6,7.3,1.7,10,6.9
			c0.4,0.8,0.6,1.7,1,2.7c0.2-1.8,0.9-3.1,2.2-4.1c0.4-0.3,0.3-0.5,0.2-0.9c-2.1-7.6-5.9-14.2-11.5-19.8
			c-7.4-7.5-16.4-11.8-26.8-13.4c-1.3-0.2-2.1,0-2.8,1.1c-1.3,1.8-2.8,3.5-4.2,5.3c-0.5,0.6-1,1-1.8,1.3c-3.8,1.3-7.6,2.7-11.4,4
			c-0.5,0.2-0.8,0.4-1,0.9c-0.7,1.9-1.5,3.8-2.3,5.7c-0.1,0.3-0.3,0.6-0.1,0.9c0.9,1.2,1.8,2.5,2.7,3.8c2-2.9,4.7-4.3,8.2-4.2
			c1.5,0,2.4,0.8,2.4,1.9c0,1.2-0.9,2-2.4,2c-2.3,0-4.1,0.8-5.2,2.9c-0.1,0.1-0.1,0.2-0.1,0.5c1.3-0.1,2.6-0.1,3.8-0.2
			c1.2-0.1,2.3,0,3.5,0.3c1.7,0.5,2.4,1.5,2.4,3.2c0,0.3,0.1,0.5,0.4,0.7c0.5,0.3,1,0.6,1.4,0.9c0.4,0.2,0.5,0.2,0.8-0.2
			c0.9-1,2.1-1.5,3.4-1.3c1.8,0.4,3.6,0.9,5.3,1.6c2.1,0.8,3.2,2.4,4.1,4.3c1,2.3,1.9,4.7,3.1,7c0.8,1.5,1.8,2.7,3.7,2.7
			c0.6,0,1.2,0.2,1.8,0.4c1.9,0.6,2.7,2.4,1.9,4.3c-0.6,1.3-1.5,2.4-2.5,3.4c-1.2,1.3-2.6,2.4-3.7,3.8c-0.7,0.9-0.9,1.8-0.6,2.9
			c0.1,0.3,0.1,0.6,0.2,0.8c0.9,2.5,0.3,4.6-1.5,6.5c-0.9,1-1.4,2.1-2.1,3.2c-1.1,1.8-1.9,3.9-3,5.7c-1.5,2.6-3.9,4.5-7.1,5
			c-1.6,0.2-2.8-0.4-3.7-1.7c-0.5-0.7-0.9-1.4-1.2-2.1c-1.2-2.9-2.3-5.8-3.5-8.7c-0.7-1.7-0.7-3.4-0.1-5.1c0.2-0.5,0.3-1.1,0.5-1.6
			c0.3-1.2,0.1-2.3-0.8-3.2c-1.4-1.4-2-3-2-4.9c0-1.1-0.5-1.5-1.7-1.3c-1.4,0.2-2.7,0.6-4.1,0.7c-8.7,0.4-14.2-8.6-10.3-16.5
			c0.4-0.8,0.9-1.6,1.5-2.3c1.9-2,3.4-4.4,5.2-6.4c0.4-0.4,0.2-0.7-0.1-1c-1.5-2.1-3-4.2-4.5-6.3c-0.7-0.9-0.8-1.8-0.3-2.9
			c1.1-2.5,2.1-5.1,3.2-7.6c0.4-1,1-1.6,2-1.9c3.8-1.3,7.6-2.7,11.5-4c0.5-0.2,1-0.4,1.3-0.9c0.9-1.2,1.9-2.4,2.8-3.6
			c-6.3-1.3-21.1,3.9-27.8,9.7c1.4,1,2.5,2.1,3.2,3.7c1.4,3,1.3,6-0.8,8.4c-3.1,3.4-5.1,7.5-7.4,11.4c-0.9,1.6-2.3,2.4-3.7,3.4
			c-0.8,0.5-0.9,0.9-0.3,1.6c0.6,0.8,1.2,1.6,1.7,2.5c0.8,1.3,0.3,2.8-1.3,3.1c-2,0.4-4.1,0.6-6.2,0.9c-1.1,0.2-2-0.2-2.8-1.3
			c-0.3,1.8-0.2,3.4-0.1,5c0,0.5,0.4,0.2,0.6,0.1c1.3-0.4,2.7-0.8,4-1.3c1-0.3,1.7-0.2,2.5,0.4c2.2,1.7,4.4,3.3,6.5,5
			c1.2,0.9,2.4,1.4,3.8,1.7c1.8,0.3,3.5,0.5,5,1.8c1.7,1.5,2.4,3.3,2,5.5c-0.3,1.4-0.1,2.6,0.3,3.9c0.8,2.5,0.4,4.7-1.4,6.6
			c-0.7,0.7-1.6,1.2-2.6,1.5c-0.5,0.2-0.7,0.4-0.7,0.9c-0.5,2.6-1,5.2-1.5,7.8c-0.1,0.4,0,0.7,0.4,1c6.7,4.9,14.2,7.7,22.5,8.6
			c6.9,0.7,13.5-0.2,20-2.5c0.3-0.1,0.6-0.2,0.9-0.3c1.2-0.4,2.2,0.1,2.6,1.1c0.4,1-0.1,2.1-1.4,2.5c-2.2,0.9-4.5,1.5-6.8,2
			c-2.3,0.5-4.5,0.9-6.8,1c-0.1,0-0.3,0-0.3,0.2c-2.6,0-5.2,0-7.8,0c-0.1-0.3-0.4-0.2-0.6-0.2c-4-0.4-8-1.2-11.8-2.6
			c-18.4-7.1-29.4-20.3-32.9-39.7c-0.2-1,0-2.1-0.5-3.1c0-2.7,0-5.5,0-8.2c0.3-0.1,0.2-0.4,0.2-0.7c0.3-3.1,0.9-6.1,1.7-9.1
			c5.5-19.1,21.1-32.7,40.7-35.8c1-0.2,2.1,0,3-0.5c2.6,0,5.2,0,7.8,0c0.1,0.2,0.2,0.2,0.4,0.2c7.1,0.5,13.8,2.4,20,5.9
			c14.3,8.1,22.8,20.3,25.5,36.6c0.2,1.1,0.1,2.3,0.5,3.4C456.2,267.9,456.2,270.5,456.2,273.2z M426,272.5
			c-3.8-0.7-5.1-1.6-6.8-4.8c-0.9-1.7-1.6-3.5-2.3-5.2c-1.7-4.1-1.7-4.1-6-5.3c-0.5-0.1-0.8-0.1-1.2,0.3c-0.9,1.1-2.1,1.5-3.6,1.1
			c-2.3-0.6-4.1-2.1-6-3.4c-0.4-0.3-0.6-0.9-0.5-1.4c0.1-0.6-0.1-0.7-0.7-0.7c-1.6,0.1-3.2,0.2-4.8,0.3c-0.8,0.1-1.5,0.3-1.9,1
			c-1.5,2.1-3.1,4.1-4.8,6.1c-0.4,0.4-0.6,0.9-0.9,1.4c-2.3,4.5,0.1,9.7,4.9,10.7c1.6,0.3,3.1-0.1,4.6-0.4c4-0.9,6.7,1.1,7,5.2
			c0.1,0.8,0.3,1.5,0.9,2.1c0.9,0.9,1.5,2.1,1.8,3.4c0.4,1.8,0.1,3.4-0.5,5.1c-0.4,1.1-0.3,2.2,0.1,3.3c1.1,2.7,2.2,5.3,3.3,8
			c0.1,0.4,0.4,0.7,0.5,1c0.2,0.4,0.5,0.5,0.9,0.3c1.5-0.7,3.1-1.5,3.6-3c0.7-2,1.5-3.8,2.8-5.4c0.1-0.1,0.1-0.3,0.2-0.4
			c0.4-1.3,1.2-2.5,2.2-3.4c1.1-1,1.4-2,0.9-3.5c-1-2.9-0.4-5.4,1.7-7.7c1-1.1,2.1-2.1,3.2-3.2C425,273.7,425.4,273.1,426,272.5z
			 M375.3,303.2c0.5-2.7,1-5.1,1.5-7.6c0.2-1.2,0.8-1.9,1.9-2.2c0.3-0.1,0.7-0.2,1-0.3c1.7-0.6,2.2-1.6,1.7-3.2
			c-0.6-1.8-1-3.7-0.5-5.6c0.3-1.2-0.4-2.2-1.6-2.5c-1-0.2-2-0.4-3-0.6c-1.2-0.3-2.4-0.4-3.4-1.2c-2.1-1.7-4.4-3.3-6.6-5
			c-0.5-0.4-1-0.6-1.7-0.3c-1,0.4-2.1,0.7-3.1,1c-0.6,0.2-0.8,0.4-0.7,1.1c0.7,3.8,1.7,7.5,3.3,11
			C366.8,293.6,370.4,298.7,375.3,303.2z M365.7,263.7c-0.5-0.8-1-1.5-1.5-2.2c-0.9-1.3-0.7-2.3,0.6-3.3c1.1-0.8,2.2-1.6,3.3-2.4
			c0.7-0.4,1.1-1,1.6-1.7c2.3-3.8,4.1-7.8,7.2-11.1c2.1-2.2,1.1-5.8-1.8-7c-0.4-0.2-0.7-0.2-1.1,0.2c-6.6,6.5-10.8,14.3-12.9,23.4
			c-0.4,1.7-0.3,2.9,1.3,3.8c0.3,0.2,0.5,0.7,1,0.6C364.3,263.9,364.9,263.8,365.7,263.7z"/>
		<path class="st0" d="M424.7,296.7c0-0.2,0-0.4,0.1-0.7c0.5-1.9,1.1-3.7,0.9-5.8c-0.1-1.8,1.2-3.2,2.8-3.9c1.4-0.6,2.2-1.6,2.8-2.9
			c0.4-1.1,1-2.2,2.5-2c1.4,0.2,1.6,1.4,2,2.5c0.7,2,0.6,3.9-0.1,6c-0.9,2.5-1.4,5-2.4,7.5c-0.3,0.7-0.6,1.4-1,2.1
			c-0.8,1.3-1.9,2.4-3.6,2.3c-1.8-0.1-2.9-1.4-3.6-2.9C424.7,298.2,424.6,297.5,424.7,296.7z M428.8,297.5c1.4-2.7,2-5.5,2.9-8.4
			c-0.6,0.3-1.1,0.5-1.5,0.8c-0.5,0.3-0.9,0.6-0.7,1.2c0.4,1.7-0.1,3.2-0.7,4.7C428.6,296.3,428.4,296.8,428.8,297.5z"/>
		<path class="st0" d="M408.4,246.1c-1.1,0-2.1-0.9-2.1-2c0-1,0.9-1.9,1.9-1.9c1.1,0,2.1,1,2.1,2
			C410.3,245.3,409.4,246.1,408.4,246.1z"/>
		<path class="st0" d="M430.2,312.7c-1.1,0-1.9-0.8-1.9-1.9c0-1.1,0.9-2,2-2c1.1,0,2,0.9,1.9,2C432.2,311.8,431.2,312.7,430.2,312.7
			z"/>
	</g>
	<g>
		<path class="st0" d="M200.2,310.1c0.5-0.6,1.1-0.8,1.7-1.1c22.6-9.2,45.1-18.3,67.7-27.5c0.3-0.1,0.6-0.1,0.8-0.4
			c0.2,0,0.5,0,0.7,0c1.1,0.5,1.4,1.1,0.9,2.3c-7.4,18.2-14.8,36.3-22.2,54.5c-0.5,1.2-1.3,1.5-2.5,0.8c-4.1-2.4-8.2-4.7-12.3-7.1
			c-0.5-0.3-0.7-0.2-1.1,0.2c-2.6,3.3-5.1,6.6-7.7,9.8c-0.6,0.8-1.3,1-1.9,0.6c-0.5-0.2-0.6-0.7-0.8-1.1c-3.3-7.1-6.6-14.3-9.9-21.4
			c-0.2-0.5-0.6-0.9-1.1-1.2c-3.7-2.1-7.4-4.2-11.1-6.4c-0.5-0.3-0.9-0.6-1.2-1.1C200.2,310.7,200.2,310.4,200.2,310.1z M229.4,325
			c0.1,0.1,0.2,0.1,0.3,0.2c5.8,3.4,11.7,6.8,17.5,10.2c0.4,0.2,0.5,0.1,0.7-0.3c6.3-15.4,12.5-30.8,18.8-46.1
			c0.1-0.1,0.2-0.3,0-0.4C254.3,300.7,241.8,312.8,229.4,325z M259.5,291.5c-0.3-0.1-0.5,0.1-0.6,0.3c-14,8.9-28,17.7-42,26.6
			c-0.4,0.3-0.5,0.4-0.3,0.9c2.5,5.3,4.9,10.6,7.4,16c0.1,0.2,0.1,0.5,0.4,0.5c0.4-3.2,0.9-6.3,1.2-9.5c0.1-1.2,0.7-2.1,1.5-2.9
			c10.7-10.4,21.3-20.8,32-31.2C259.2,291.9,259.4,291.8,259.5,291.5z M204.9,310.8c0.2,0.1,0.4,0.3,0.6,0.4c2.9,1.7,5.7,3.3,8.6,5
			c0.4,0.2,0.7,0.2,1.1,0c13.4-8.5,26.8-17,40.1-25.4c0.2-0.1,0.4-0.2,0.5-0.6C238.8,297,221.9,303.9,204.9,310.8z M228.2,327.6
			c-0.4,2.8-0.7,5.5-1.1,8.2c0,0,0.1,0,0.1,0c1.6-2,3.2-4,4.8-6.1C230.7,329.1,229.5,328.4,228.2,327.6z"/>
		<path class="st0" d="M216.3,335.5c0.7,0,1.2,0.2,1.4,0.7c0.2,0.5,0.2,0.9-0.1,1.4c-0.1,0.2-0.3,0.4-0.5,0.6
			c-3.4,3.4-6.7,6.7-10.1,10.1c-0.4,0.4-0.8,0.7-1.3,0.7c-1,0-1.7-1.1-1.2-2.1c0.1-0.2,0.2-0.3,0.3-0.4c3.5-3.5,7-7,10.5-10.5
			C215.7,335.7,216,335.4,216.3,335.5z"/>
		<path class="st0" d="M229.2,349c-0.7,0-1.1-0.2-1.4-0.7c-0.2-0.5-0.2-1,0.1-1.4c0.1-0.2,0.3-0.4,0.5-0.6c2.1-2.1,4.2-4.2,6.3-6.3
			c0.2-0.2,0.4-0.4,0.7-0.6c0.5-0.3,1.3-0.2,1.7,0.3c0.4,0.5,0.5,1,0.2,1.6c-0.1,0.2-0.3,0.4-0.5,0.6c-2.1,2.1-4.3,4.3-6.4,6.4
			C229.9,348.7,229.6,349.1,229.2,349z"/>
		<path class="st0" d="M204.6,327.9c0-0.3,0.2-0.6,0.5-0.9c1.2-1.2,2.5-2.5,3.7-3.7c0.7-0.7,1.5-0.7,2.1-0.1
			c0.6,0.6,0.6,1.4-0.1,2.1c-1.2,1.3-2.5,2.5-3.7,3.7c-0.5,0.5-1.1,0.7-1.7,0.4C204.8,329.1,204.6,328.6,204.6,327.9z"/>
		<path class="st0" d="M202,333.5c-0.7,0-1.4-0.6-1.4-1.4c0-0.8,0.6-1.5,1.4-1.4c0.7,0,1.4,0.6,1.4,1.4
			C203.3,332.9,202.7,333.5,202,333.5z"/>
		<path class="st0" d="M226.4,351.7c0,0.7-0.6,1.4-1.4,1.4c-0.8,0-1.4-0.7-1.4-1.4c0-0.7,0.7-1.4,1.4-1.4
			C225.7,350.3,226.4,350.9,226.4,351.7z"/>
		<path class="st0" d="M203.2,351.6c0,0.7-0.7,1.4-1.4,1.4c-0.7,0-1.4-0.7-1.4-1.4c0-0.7,0.7-1.4,1.4-1.4
			C202.5,350.2,203.2,350.9,203.2,351.6z"/>
	</g>
	<g>
		<path class="st0" d="M19,289.6c0.2-0.9,0.7-1.4,1.5-1.8c6.5-3.7,13.1-7.5,19.6-11.3c0.2-0.1,0.4-0.2,0.6-0.3
			c0.8-0.4,1.5-0.2,2,0.4c0.4,0.7,0.2,1.4-0.5,2c-0.2,0.1-0.4,0.2-0.6,0.3c-6.6,3.8-13.1,7.6-19.7,11.3c-0.8,0.4-1.5,0.6-2.3,0.3
			C19.4,290.3,19.2,290,19,289.6z"/>
		<path class="st0" d="M56.8,228.7c8.1-4.6,16.1-9.3,24.2-13.9c3-1.7,5.4-1.1,7.1,1.9c5.8,10,11.5,20,17.3,30c1.7,3,1.1,5.3-1.9,7.1
			c-16.1,9.3-32.2,18.5-48.3,27.8c-3,1.7-5.4,1.1-7.1-1.9c-5.8-10-11.5-20-17.3-30c-1.7-2.9-1.1-5.4,1.9-7
			C40.7,237.9,48.7,233.3,56.8,228.7z M101.8,246.2c-5.1-8.8-10.1-17.5-15.1-26.2c-0.1,0.3-0.2,0.5-0.3,0.6
			c-3.5,8.6-7.1,17.2-10.6,25.8c-0.4,0.9-0.8,1.8-1.4,2.7c-2.9,4-6.8,5.6-11.6,4.9c-9.1-1.2-18.2-2.5-27.3-3.7
			c-0.4,0-0.7-0.1-1.2-0.1c5.1,8.8,10.1,17.5,15.1,26.2c0.3-0.2,0.4-0.5,0.5-0.8c2.3-5.6,4.6-11.2,6.9-16.9c0.1-0.3,0.3-0.6,0.5-0.9
			c0.4-0.6,1-0.7,1.7-0.4c0.6,0.3,0.9,0.8,0.8,1.4c0,0.3-0.2,0.7-0.3,1c-2.6,6.3-5.2,12.6-7.7,18.9c-0.1,0.3-0.5,0.6-0.2,1
			c0.3,0.3,0.8,0.3,1.2,0.2c0.3-0.1,0.5-0.2,0.8-0.3c16.3-9.4,32.5-18.7,48.8-28.1c0.4-0.2,0.7-0.4,0.9-0.8c0.5-0.7,0.3-1.1-0.5-1.2
			c-3.9-0.5-7.8-1.1-11.7-1.6c-3-0.4-6.1-0.8-9.1-1.3c-1-0.1-1.5-0.8-1.4-1.6c0.1-0.8,0.8-1.3,1.7-1.2c0.2,0,0.4,0.1,0.7,0.1
			C89.1,244.5,95.4,245.4,101.8,246.2z M58.3,231.1c-8.1,4.6-16.1,9.3-24.2,13.9c-0.4,0.3-0.9,0.5-1.2,0.9c-0.5,0.7-0.3,1.1,0.5,1.2
			c9.9,1.4,19.7,2.7,29.6,4.1c4.8,0.7,8.3-1.4,10.2-5.8c2.1-5.1,4.2-10.2,6.3-15.3c1.7-4.1,3.4-8.3,5.1-12.4c0.3-0.8,0.1-1.1-0.7-1
			c-0.5,0-0.9,0.3-1.4,0.5C74.4,221.8,66.3,226.4,58.3,231.1z"/>
		<path class="st0" d="M29.2,274.2c2.4-1.4,4.8-2.8,7.2-4.1c0.3-0.2,0.6-0.3,0.9-0.5c0.6-0.2,1.2,0,1.6,0.5c0.4,0.6,0.4,1.2-0.1,1.7
			c-0.3,0.3-0.6,0.5-0.9,0.7c-4.8,2.8-9.6,5.5-14.4,8.3c-0.2,0.1-0.3,0.2-0.5,0.3c-0.9,0.4-1.7,0.2-2.1-0.4c-0.4-0.7-0.2-1.5,0.7-2
			C24.1,277.1,26.6,275.6,29.2,274.2z"/>
		<path class="st0" d="M29.3,268.6c-1.7,1-3.4,1.9-5,2.9c-0.6,0.3-1.1,0.4-1.7,0c-0.5-0.4-0.6-0.9-0.5-1.4c0.1-0.5,0.4-0.8,0.8-1
			c3.4-2,6.8-3.9,10.2-5.9c0.9-0.5,1.6-0.3,2,0.5c0.4,0.7,0.2,1.5-0.7,2C32.8,266.7,31.1,267.6,29.3,268.6
			C29.3,268.6,29.3,268.6,29.3,268.6z"/>
		<path class="st0" d="M28.2,260.5c-0.8,0.5-1.7,1-2.5,1.4c-0.8,0.4-1.6,0.2-2-0.4c-0.4-0.6-0.2-1.5,0.5-2c1.7-1,3.4-2,5.2-3
			c0.8-0.4,1.5-0.1,1.9,0.6c0.4,0.7,0.2,1.4-0.6,1.9C29.9,259.6,29.1,260.1,28.2,260.5z"/>
	</g>
	<g>
		<path class="st0" d="M180.2,433.1c0-1.8,0-3.7,0-5.5c0.2-0.1,0.1-0.3,0.1-0.4c0.3-2.9,0.9-5.7,1.9-8.5c6.2-16.9,24.5-26,41.7-20.7
			c16.7,5.1,26.8,22.5,23,39.6c-3.1,14.1-14.7,24.6-29.1,26.3c-0.5,0.1-1-0.1-1.4,0.2c-1.7,0-3.4,0-5.1,0c-0.1-0.2-0.2-0.1-0.3-0.1
			c-1.5-0.1-2.9-0.3-4.4-0.7c-13.7-3.1-24.1-14.2-26.1-28.1C180.5,434.5,180.5,433.7,180.2,433.1z M243.6,430.3
			c0-16.3-13.2-29.6-29.6-29.6c-16.3,0-29.6,13.2-29.6,29.5c0,16.3,13.3,29.6,29.6,29.6C230.4,459.8,243.6,446.6,243.6,430.3z"/>
		<path class="st0" d="M214.3,449.3c-8.6,0-15.9-5.4-18.4-13.4c-0.5-1.7-0.8-3.4-0.9-5.2c0-0.4,0.1-0.5,0.5-0.5c1.1,0,2.2,0,3.2,0
			c0.4,0,0.5,0.1,0.5,0.5c0.4,6,3.3,10.4,8.8,13c6.4,3,14.7,0.5,18.4-5.5c1.4-2.3,2.2-4.8,2.3-7.5c0-0.5,0.2-0.5,0.6-0.5
			c1,0,2.1,0,3.1,0c0.5,0,0.6,0.2,0.6,0.6c-0.4,8.7-6.1,15.8-14.6,17.8c-0.7,0.2-1.5,0.3-2.2,0.4
			C215.5,449.2,214.8,449.3,214.3,449.3z"/>
		<path class="st0" d="M207.7,419.7c0,2.3-1.9,4.2-4.2,4.2c-2.3,0-4.2-1.9-4.2-4.2c0-2.3,1.9-4.2,4.2-4.2
			C205.8,415.5,207.7,417.4,207.7,419.7z"/>
		<path class="st0" d="M228.8,419.7c0,2.3-1.9,4.2-4.2,4.2c-2.3,0-4.2-1.9-4.2-4.2c0-2.3,1.9-4.2,4.2-4.2
			C226.9,415.5,228.8,417.4,228.8,419.7z"/>
	</g>
	<g>
		<path class="st0" d="M185.1,29.9c-0.1-1.4,0.6-2.3,1.8-3c11.5-6.5,23-13,34.4-19.6c1.8-1,2.9-0.7,3.9,1.1
			c2.1,3.7,4.2,7.4,6.3,11.1c1.4,2.5,1.4,5.1-0.2,7.5c-0.2,0.4-0.2,0.5,0.1,0.8c1.8,1.6,3.9,2.6,6.2,3.1c5.2,1.2,10.3,1,15.3-0.6
			c1-0.3,2-0.6,3.1-0.9c1.3-0.3,2.3,0.1,2.9,1.2c1,1.8,2.1,3.5,2.2,5.7c0.1,3.6-1.3,6.5-4.4,8.4c-3.9,2.4-8.1,4.1-12.5,5.2
			c-0.6,0.1-0.5,0.3-0.3,0.7c2.1,3.6,4.1,7.2,6.1,10.8c1.4,2.5,1.4,5-0.2,7.4c-1.5,2.2-3.6,3.2-6.3,3c-0.6-0.1-0.9,0.1-1.1,0.6
			c-1.1,2.6-4,4.2-6.8,3.9c-0.6-0.1-0.8,0-1.1,0.6c-1.8,4.1-7.1,5.3-10.5,2.4c-0.4-0.3-0.6-0.3-0.9,0c-2.8,2.9-7.3,2.8-10-0.2
			c-0.1-0.1-0.1-0.2-0.3-0.2c-3.7-6.6-7.5-13.1-11.2-19.7c0.2-0.1,0-0.3,0-0.4c-0.5-1.1-0.9-2.3-1.2-3.4c-0.7-3-1.2-6-1.8-9
			c-0.1-0.5-0.2-0.7-0.8-0.7c-1.6,0-3.1-0.6-4.3-1.6c-0.4-0.3-0.7-0.7-1.1-1C190.1,38.7,187.6,34.3,185.1,29.9z M215.1,37.1
			c-3.9,2.2-7.8,4.4-11.7,6.6c-0.5,0.3-0.6,0.5-0.5,1c0.4,1.8,0.8,3.7,1.1,5.5c0.5,3,1.2,6,2.7,8.7c3.2,5.5,6.3,11.1,9.5,16.6
			c0.7,1.2,2,1.6,3.1,1c1.1-0.6,1.5-1.9,0.9-3.1c-0.6-1.3-0.2-2.5,0.9-3.1c1.1-0.6,2.4-0.2,3.2,1c0.7,1.2,1.4,2.4,2.1,3.6
			c0.7,1.2,2,1.7,3.2,1c1.2-0.6,1.5-2,0.8-3.3c-0.7-1.2-1.4-2.4-2.1-3.6c-0.7-1.3-0.4-2.6,0.8-3.3c1.1-0.6,2.4-0.2,3.2,1
			c0.7,1.2,1.3,2.3,2,3.5c0.8,1.4,2.1,1.8,3.3,1.1c1.2-0.7,1.4-2,0.7-3.4c-0.6-1.1-1.3-2.3-1.9-3.4c-0.8-1.3-0.5-2.7,0.7-3.4
			c1.2-0.7,2.5-0.2,3.2,1.1c0.7,1.3,1.4,2.5,2.2,3.8c0.6,1,1.9,1.4,2.9,0.9c1-0.5,1.5-1.7,1.2-2.7c-0.1-0.3-0.3-0.6-0.4-0.9
			c-3.6-6.4-7.3-12.8-10.9-19.2c-0.7-1.2-0.4-2.6,0.8-3.2c1.1-0.6,2.5-0.3,3.2,1c0.6,1.1,1.3,2.1,1.8,3.2c0.3,0.5,0.5,0.7,1.2,0.6
			c4.5-0.9,8.8-2.6,12.7-5.1c1.8-1.1,2.4-3.3,1.7-5.3c-0.4-1.2-0.4-1.2-1.6-0.8c-5.3,1.7-10.8,2.2-16.3,1.2
			c-4.1-0.7-7.9-2.2-10.9-5.4c-0.4-0.4-0.6-0.1-0.8,0C222.9,32.7,219,34.9,215.1,37.1z M206.3,21.2c-5.1,2.9-10.1,5.8-15.2,8.7
			c-0.5,0.3-0.6,0.5-0.3,1c1.7,3,3.4,5.9,5.1,8.9c0.9,1.6,2.1,2,3.7,1c9-5.1,18-10.2,27-15.3c1.6-0.9,1.9-2.1,1-3.7
			c-1.7-2.9-3.4-5.9-5-8.8c-0.3-0.5-0.5-0.7-1.1-0.3C216.4,15.4,211.3,18.3,206.3,21.2z"/>
		<path class="st0" d="M268.1,28c0.7-0.4,1.4-0.8,2-1.2c1.1-0.6,2.5-0.2,3.1,0.8c0.6,1.1,0.3,2.5-0.9,3.1c-1.3,0.8-2.7,1.5-4,2.3
			c-1.2,0.6-2.5,0.3-3.1-0.8c-0.6-1.1-0.2-2.4,0.9-3.1C266.7,28.7,267.4,28.3,268.1,28z"/>
		<path class="st0" d="M257.6,17.3c0.8-0.4,1.6-0.4,2.4,0.1c0.7,0.5,1.2,1.2,1,2.1c-0.3,1.7-0.8,3.4-1.4,5.1c-0.4,1-1.6,1.5-2.6,1.2
			c-1.1-0.3-1.9-1.3-1.6-2.5c0.3-1.7,0.8-3.4,1.4-5C256.8,17.8,257.2,17.5,257.6,17.3z"/>
		<path class="st0" d="M274.1,46.4c-0.5,0.3-1.1,0.3-1.7,0.2c-1.4-0.4-2.8-0.8-4.2-1.2c-1.4-0.4-2-1.6-1.7-2.9
			c0.4-1.2,1.5-1.9,2.9-1.5c1.5,0.4,2.9,0.8,4.4,1.2c1,0.3,1.5,1,1.6,2C275.4,45.2,274.9,45.9,274.1,46.4z"/>
		<path class="st0" d="M200.9,34.7c-1.1,0.6-2.5,0.2-3.1-0.9c-0.6-1.1-0.2-2.5,0.9-3.1c1.1-0.6,2.5-0.2,3.1,0.9
			C202.4,32.7,202,34.1,200.9,34.7z"/>
	</g>
	<g>
		<path class="st0" d="M283,334.6c0.2-5.7,3.1-11.2,8.9-15.3c0.8-0.5,1.4-0.5,1.8,0.1c0.4,0.6,0.2,1.3-0.6,1.8
			c-5.6,4-8.3,9.5-7.8,16.4c0.4,5.2,2.9,9.4,7,12.6c0.7,0.5,1.1,1.1,1.1,2c0,2.8,1.3,4.9,3.7,6.2c2.5,1.3,4.9,1.1,7.3-0.5
			c0.1-0.1,0.2-0.1,0.3-0.2c0.9-0.7,1.6-0.5,2.1,0.5c1.4,2.9,3.7,4.8,6.8,5.4c5.5,1.2,10.7-2.4,11.7-7.9c0.3-1.4,1.1-1.7,2.2-0.8
			c3.6,2.8,8.5,1.7,10.7-2.3c0.3-0.6,0.7-1,1.3-0.9c0.5,0.1,0.9,0.4,1,1c0.1,0.4-0.1,0.8-0.3,1.1c-2.3,4.5-7.8,6.3-12.3,4.1
			c-0.5-0.2-0.6-0.2-0.8,0.3c-1.8,4.6-5.1,7.3-9.9,8c-4.9,0.6-8.9-1.3-11.7-5.4c-0.3-0.4-0.4-0.5-0.9-0.2c-6.1,3.1-13.3-1-13.6-7.8
			c0-0.4-0.2-0.6-0.5-0.9C285.8,348,283,342.2,283,334.6z"/>
		<path class="st0" d="M341.2,322.3c0,0.7,0,1.4-0.2,2c-0.1,0.5,0,0.7,0.6,0.7c4.5,0,8.1,1.8,10.7,5.5c3.2,4.5,3.4,9.4,0.6,14.2
			c-2.8,4.7-7.2,6.8-12.6,6.3c-0.8-0.1-1.2-0.6-1.1-1.3c0.1-0.7,0.6-1.1,1.4-1c2.8,0.3,5.3-0.4,7.5-2c3.5-2.5,5.1-7,4.1-11.2
			c-1.1-4.2-4.5-7.4-8.8-8c-1.2-0.2-2.4-0.1-3.5,0c-1.3,0.2-1.9-0.5-1.5-1.8c1.3-3.9,0.5-7.4-2.3-10.3c-3.6-3.7-9.7-3.8-13.5-0.2
			c-0.9,0.8-1.3,0.8-2.2,0.1c-3.7-3-8.9-1.7-10.9,2.6c-0.4,1-0.8,1.2-1.8,0.9c-1.4-0.3-2.9-0.6-4.4-0.6c-0.8,0-1.3-0.5-1.3-1.2
			c0-0.7,0.5-1.2,1.3-1.2c1.2,0,2.5,0.1,3.7,0.4c0.4,0.1,0.7,0,0.9-0.4c2.8-4.6,8.5-5.9,13-3c0.4,0.2,0.6,0.2,0.9-0.1
			c7.5-5.7,18.1-1.2,19.4,8.1C341.2,321.4,341.2,321.9,341.2,322.3z"/>
		<path class="st0" d="M294.2,374.5c-3.2,0-5.8-2.6-5.8-5.8c0-3.2,2.7-5.8,5.9-5.8c3.2,0,5.8,2.7,5.8,5.8
			C300.1,372,297.5,374.5,294.2,374.5z M294.2,372.2c2,0,3.6-1.6,3.5-3.5c0-1.9-1.6-3.4-3.5-3.5c-1.9,0-3.5,1.5-3.5,3.5
			C290.8,370.6,292.3,372.2,294.2,372.2z"/>
		<path class="st0" d="M284.2,375.6c1.8,0,3.2,1.5,3.2,3.3c0,1.7-1.5,3.2-3.3,3.2c-1.8,0-3.2-1.5-3.2-3.2
			C280.9,377.1,282.4,375.6,284.2,375.6z M284.1,379.7c0.5,0,1-0.4,0.9-0.9c0-0.6-0.3-0.9-0.9-0.9c-0.6,0-0.9,0.3-0.9,0.9
			C283.2,379.3,283.6,379.7,284.1,379.7z"/>
		<path class="st0" d="M300.1,317.6c-0.1,0.6-0.4,1-0.9,1.1c-0.9,0.2-1.8,0.5-2.6,0.8c-0.6,0.2-1.2-0.1-1.4-0.6
			c-0.2-0.6,0-1.2,0.6-1.5c1-0.4,2-0.7,3-0.9C299.5,316.2,300.1,316.9,300.1,317.6z"/>
	</g>
</g>
</svg>
