<?xml version="1.0" encoding="utf-8"?>
<!-- Generator: Adobe Illustrator 27.0.0, SVG Export Plug-In . SVG Version: 6.00 Build 0)  -->
<svg version="1.1" id="Layer_1" xmlns="http://www.w3.org/2000/svg" xmlns:xlink="http://www.w3.org/1999/xlink" x="0px" y="0px"
	 viewBox="0 0 449.8 449.1" style="enable-background:new 0 0 449.8 449.1;" xml:space="preserve">
<style type="text/css">
	.st0{fill:#CCE4E3;}
	.st1{fill:#D68332;}
	.st2{fill:#FBA446;}
	.st3{fill:#FAEDD7;}
	.st4{fill:#D4BD9E;}
	.st5{fill:#968AE9;}
	.st6{fill:#6D66C2;}
	.st7{fill:#2B2A68;}
	.st8{fill:#FFF9F3;}
	.st9{fill:#FFFFFF;}
	.st10{fill:#CA7032;}
	.st11{fill:#FCC56C;}
	.st12{fill:#AFA9FD;}
</style>
<g>
	<g>
		<g>
			<path class="st0" d="M200,429.9c-4.5,5.9-8,11.7-10.6,16.8c-14.3-2-26.8-5.2-36.6-9.5c-34.9-15.5,6.8-20.2,48.7-28.9
				c0,0,13.1-4.7,32.2-8.9C220.1,408.1,208.8,418.4,200,429.9z"/>
			<path class="st0" d="M239.3,448.9c-16.7,0.6-32.4,0-46.5-1.8c2.5-4.8,5.7-10.1,9.9-15.5c8.1-10.6,20.9-23,40.6-34.2
				c8.4-1.6,17.7-2.9,27.3-3.6c5.3-0.4,12.9-0.6,22-0.6c-4.2,2.5-8.4,5.1-12.4,7.8C256.6,416.9,242.9,433,239.3,448.9z"/>
			<path class="st0" d="M440.5,430c-19,5.8-64.3-5.7-116.9,7.1C359.4,421.7,401.8,410.6,440.5,430z"/>
			<path class="st0" d="M449.7,420.9c-0.7,3.4-2.5,5.8-5.4,7.5c-45.9-24.6-96.6-6.6-136.4,12.3c-22.3,4.6-44.5,7.3-65.3,8.2
				c5.5-22.2,31.3-41.3,56.3-55.5C354.7,393.9,453.6,402,449.7,420.9z"/>
			<g>
				<path class="st1" d="M219.6,398.9c0,0-15.5-2.5-23.1,0c-7.6,2.5-15,12-12.7,19.4c2.4,7.4,7.8,7.8,7.8,7.8L219.6,398.9z"/>
				<path class="st2" d="M244.3,404.8c-2.5,5.1-13.1,4.2-13.1,4.2s-0.5,5.4,0,10.8c0.5,5.4-4.6,17.9-13.5,16.5
					c-8.7-1.3-6.9-15.9-6.8-16.5c-0.9,2.5-2.3,5.1-4.1,7.1c-2.2,2.5-5,4.3-8.4,4.3c-6.1,0-12.5-11.3-3.7-21.9
					c8.8-10.6,25-10.5,25-10.5c-0.1-0.8-0.1-1.7-0.2-2.5c-0.1-0.7-0.1-1.3-0.2-2c-0.2-2.2-0.4-4.3-0.6-6.4c-0.1-0.6-0.1-1.3-0.2-1.9
					c-0.5-5.4-1.1-10.4-1.8-15.2c-0.1-0.6-0.2-1.2-0.3-1.9c-0.8-5.8-1.7-11.2-2.6-16c-0.1-0.7-0.3-1.4-0.4-2
					c-1.1-5.9-2.2-11-3.2-15.2c-0.2-0.7-0.3-1.3-0.5-1.9c-2-8.3-3.5-12.7-3.5-12.7l17.5-1.1l0.4,7.6l0.1,2.3l1,20l0.1,2l0.7,14.7
					l0.1,2.1l0.7,14.3l0.1,2.1l0.4,8.6l0.1,2l0.1,1.7C235.7,394.8,246.8,399.7,244.3,404.8z"/>
				<path class="st1" d="M220.6,404.9c0,0-5.3,3.9-7.2,7.7c-1.9,3.8-2.6,7.2-2.6,7.2l0,0c-0.9,2.5-2.3,5.1-4.1,7.1
					c0,0,1.9-12.2,5.9-16.4C216.6,406.3,220.6,404.9,220.6,404.9z"/>
				<path class="st1" d="M284.1,390.1c0,0,14.7-5.6,22.7-4.6c7.9,1,17.1,8.7,16.3,16.5c-0.8,7.8-6.1,9.2-6.1,9.2L284.1,390.1z"/>
				<path class="st2" d="M311.5,417.6c-3.3,0.7-6.4-0.5-9.1-2.5c-2.2-1.7-4.1-3.9-5.5-6.2c0.2,0.6,5,14.5-3.3,17.5
					c-8.5,3.1-16-8.1-16.5-13.5c-0.6-5.4-2.2-10.6-2.2-10.6s-10.2,3-13.7-1.5c-3.5-4.5,6.4-11.5,14.7-10.4l-0.3-1.7l-0.3-2l-2-13.3
					l-0.3-2l-2.1-13.8l-0.3-2.1l-2.5-16.7l-0.4-2.4l-1.8-11.8l-0.3-2.1l-1.4-8.8l17.4-2.4c0,0-0.5,3.9-0.8,11c0,0.7-0.1,1.4-0.1,2.1
					c-0.2,3.9-0.3,8.7-0.2,14.1c0,0.6,0,1.3,0,1.9c0.1,4.8,0.2,10,0.5,15.8c0,0.6,0.1,1.3,0.1,2c0.2,3.9,0.5,8.1,0.9,12.5
					c0.1,0.6,0.1,1.2,0.2,1.9c0.4,4.4,0.9,9.1,1.5,13.9c0.1,0.6,0.2,1.3,0.2,1.9c0.1,0.6,0.1,1.2,0.2,1.7c0,0,15.8-3.4,26.6,5.2
					C321.4,404,317.4,416.4,311.5,417.6z"/>
				<path class="st1" d="M284.4,396.2c0,0,6,2.8,8.6,6.1c2.6,3.3,4,6.6,4,6.6l0,0c1.4,2.3,3.3,4.5,5.5,6.2c0,0-4.3-11.5-9.1-14.9
					C288.6,396.8,284.4,396.2,284.4,396.2z"/>
				<path class="st3" d="M373.9,85.3c0,0,40.2,9.1,40.8,13.8c0.7,4.7-22.3,20.3-60.4,29c0,0,26.7,7.8,27,10.5
					c0.3,2.7-14.9,18.5-39.2,22.1c0,0,2.7,24.3-2.7,29.6c-3.1,3.1-14.5,6.7-23.6,9.3c-6.5,1.8-11.8,3.1-11.8,3.1s-1.7-6.2-3.6-14.9
					h0c-2.9-13.3-6.4-32.3-5.2-43.3c0,0,7.8-18.1,12.5-39c4.7-20.9,4.3-42.9,42.1-52.3c9.2-2.3,17.9-3.4,25.8-3.6
					c24.6-0.8,41.4,6.5,41.4,9.8C417.1,63.7,373.9,85.3,373.9,85.3z"/>
				<path class="st4" d="M375.7,49.6c-29.3,11.8-42.9,54.9-50.8,83.3c-7.9,28.4-9,66.8-9,66.8c-6.5,1.8-11.8,3.1-11.8,3.1
					s-1.7-6.2-3.6-14.9h0c-2.9-13.3-6.4-32.3-5.2-43.3c0,0,7.8-18.1,12.5-39c4.7-20.9,4.3-42.9,42.1-52.3
					C359.1,50.9,367.9,49.8,375.7,49.6z"/>
				<path class="st5" d="M375.7,49.6c-17.9,5.5-44.4,29.1-52.1,71.5c-7.8,42.5-23.1,66.7-23.1,66.7h0c-0.1-0.5-0.2-1-0.3-1.5
					c-2.8-13.2-6-31.2-4.9-41.8c0,0,7.8-18.1,12.5-39c1.9-8.5,3-17.3,6.1-25.2c0,0,0,0,0,0c4.6-11.5,13.6-21.5,36-27.1
					C359.1,50.9,367.8,49.8,375.7,49.6z"/>
				<path class="st6" d="M300.2,186.3c-2.8-13.2-6-31.2-4.9-41.8c0,0,7.8-18.1,12.5-39c1.9-8.5,3-17.3,6.1-25.2c0,0,0,0,0,0
					S320,155,300.2,186.3z"/>
				<path class="st5" d="M307.7,244.1c-0.5,14.9-3.5,35.2-14,52c0,0-3,11.3-8.4,15.4c-5.4,4.1-17.6,4.6-21.8,4.6s-8.4-5.1-8.4-5.1
					l-22.8,1.7c0,0-2,5.7-8.4,7.4c-6.4,1.7-20.9,1.7-22.6,0c-1.7-1.7-4.7-8.1-4.7-8.1s-9.9-2.5-19.3-8.4h0c-4.1-2.5-8-5.7-11.1-9.5
					c-1.8-2.2-3.1-7.5-4-14.6v0c-4.5-34.2-1.1-111.8-1.1-111.8s4.6-33.8,7.1-64.5c2.5-30.7,3.5-40.2,13.8-43.2
					c10.3-3,25.2-5.4,37.6-15.9c0.8-0.7,1.7-1.4,2.7-2.1c0,0,0,0,0,0c12.9-9.3,34.2-15,46.6-9.9c13.3,5.4,38,191.1,38,191.1
					S308.1,231.8,307.7,244.1z"/>
				<path class="st6" d="M247.1,143.3c0,0,1.3,15,1.1,22.5c0,0-13.7,10-23.3,8L247.1,143.3z"/>
				<path class="st6" d="M191.7,225.9c0.2,47.7-14.5,77.7-14.5,77.7h0c-4.1-2.5-8-5.7-11.1-9.5c-1.8-2.2-3.1-7.5-4-14.6v0
					c-4.5-34.2-1.1-111.8-1.1-111.8S191.5,178.2,191.7,225.9z"/>
				<polygon class="st6" points="193,74 169.5,88.2 169.9,83.2 				"/>
				<path class="st6" d="M230.8,69.2c0,0,18.2-18.1,28-20.8c9.8-2.7,18,1.1,18,1.1l-3.1-9.7c0,0-9.8-4.5-19.1-0.8
					c-9.3,3.7-25.9,28.3-25.9,28.3L230.8,69.2z"/>
				<path class="st7" d="M250.3,72.4c-20.4,3.9-20.3,33.3-19.2,42.2c1,8.9,11.1,20.4,27.3,19.4c16.2-1,23.3-15.9,21.6-29.5
					C278.4,90.8,267.9,69,250.3,72.4z"/>
				<path class="st7" d="M200.2,88.5c17.9,3.4,17.7,29.1,16.9,37c-0.9,7.8-9.8,17.9-24,17c-14.2-0.9-20.4-13.9-18.9-25.9
					C175.7,104.6,184.8,85.6,200.2,88.5z"/>
				<path class="st3" d="M307.7,244.1c-0.2,5.5-0.7,11.6-1.8,18.1v0c-0.3,1.6-0.6,3.2-0.9,4.8c-1,4.9-2.4,9.9-4.3,14.8
					c-1.8,4.9-4.2,9.7-7,14.3c0,0-3,11.3-8.4,15.4c-4.2,3.2-12.5,4.2-18,4.5c-1.5,0.1-2.9,0.1-3.8,0.1c-4.2,0-8.4-5.1-8.4-5.1
					l-22.8,1.7c0,0-2,5.7-8.4,7.4c-1.4,0.4-3.3,0.7-5.3,0.9c-7,0.7-16,0.4-17.3-0.9c-1.7-1.7-4.7-8.1-4.7-8.1s-9.9-2.5-19.3-8.4h0
					c-1-0.6-2.1-1.3-3.1-2c-0.2-0.2-0.5-0.3-0.7-0.5c-1.2-0.9-2.4-1.9-3.5-2.9c-0.2-0.2-0.5-0.4-0.7-0.6c-0.3-0.2-0.5-0.5-0.7-0.7
					c-0.2-0.2-0.4-0.4-0.5-0.6c-0.2-0.2-0.4-0.5-0.6-0.7c-0.2-0.2-0.4-0.5-0.6-0.7c-0.2-0.2-0.4-0.5-0.6-0.7
					c-1.8-2.2-3.1-7.5-4-14.6v0c0,0,1-7.2,3.8-17.7c0,0,0,0,0,0c0.2-0.9,0.5-1.8,0.7-2.7c3.2-11.4,8.4-25.9,16.5-39.2
					c0.5-0.8,1-1.6,1.5-2.3c1.8-2.8,3.7-5.5,5.7-8c11-13.9,26.1-24.5,46.5-25.1c31.3-1,49.1,14.6,59.1,30.1c0.7,1.1,1.3,2.1,1.9,3.2
					C305,230,307.3,241.6,307.7,244.1z"/>
				<path class="st4" d="M191.7,225.9c0.2,47.7-14.5,77.7-14.5,77.7h0c-1-0.6-2.1-1.3-3.1-2.1c-0.2-0.2-0.5-0.3-0.7-0.5
					c-1.2-0.9-2.4-1.9-3.5-2.9c-0.2-0.2-0.4-0.4-0.7-0.6c-0.3-0.2-0.5-0.5-0.8-0.7c-0.2-0.2-0.4-0.4-0.5-0.6
					c-0.2-0.2-0.4-0.5-0.6-0.7c-0.2-0.2-0.4-0.5-0.6-0.7c-0.2-0.2-0.4-0.5-0.6-0.7c-1.8-2.2-3.1-7.5-4-14.6v0c0,0,1-7.2,3.8-17.7
					c0,0,0,0,0,0c0.2-0.9,0.5-1.8,0.7-2.7c3.2-11.4,8.4-25.9,16.5-39.2c0.5-0.8,1-1.6,1.4-2.3c1.8-2.8,3.7-5.5,5.7-8
					C191.2,214.4,191.7,219.8,191.7,225.9z"/>
				<path class="st8" d="M297.8,217.6c-2.1,4.3-5.2,8.6-9.9,10.4c-10.8,4.4-20.8-0.8-20.8-0.8s-8.9,9.6-23,10.1
					c-14,0.5-23-7.1-23-7.1s-9.8,6.2-19.6,6.1c-3.3-0.1-6.8-2-10-5c-3.4-3.1-6.4-7.3-8.6-11.5c0.5-0.8,1-1.6,1.4-2.3
					c1.9,2.8,4.4,5.9,7.2,8.4c3.2,2.9,6.9,5,10.9,5c12.4,0,20.3-8.4,20.3-8.4s7.6,9.9,22.3,8.4c14.7-1.5,21-10.6,21-10.6
					s8.4,6.1,17.7,3.6c4.5-1.2,8.8-5.4,12.1-9.4C296.6,215.5,297.2,216.6,297.8,217.6z"/>
				<path class="st8" d="M305.9,262.2c-0.3,1.6-0.6,3.2-0.9,4.8v0c-4.1,6.2-9.5,12.5-15.3,14.4c-12.5,4.1-23.1-6.1-23.1-6.1
					s-5.4,9.1-12.2,10.6c-6.8,1.5-16.3-4.1-16.3-4.1s-11.1,7.8-20,7.6c-8.9-0.2-15-12.2-15-12.2s-9.9,5.7-18.8,6.3
					c-1.9,0.1-3.7,0-5.3-0.4c-5.9-1.5-10.4-12.9-13-21.6c0,0,0,0,0,0c0.2-0.9,0.5-1.8,0.7-2.7c3.1,6,7.9,14,13.1,16.7
					c1.8,0.9,3.9,1.4,6.2,1.5c8.3,0.4,17.8-3.8,17.8-3.8s6.4,10.1,18.2,8.8c11.8-1.4,15-7.6,15-7.6s7.8,6.6,17.2,4.2
					c9.5-2.4,12.5-10,12.5-10s10.1,8.3,19.4,7.1C292.5,275,300,268.9,305.9,262.2z"/>
				<path class="st3" d="M179.8,275.7c1.8,0.9,3.9,1.4,6.2,1.5c-0.6,2.3-1.1,4.5-1.7,6.5c-1.9,0.1-3.7,0-5.3-0.4
					c-5.9-1.5-10.4-12.9-13-21.6c0,0,0,0,0,0c0.2-0.9,0.5-1.8,0.7-2.7C169.7,265,174.6,273,179.8,275.7z"/>
				<path class="st3" d="M191.7,225.9c0,1.8,0,3.6,0,5.4c-3.4-3.1-6.4-7.3-8.6-11.5c0.5-0.8,1-1.6,1.4-2.3
					C186.5,220.3,188.9,223.4,191.7,225.9z"/>
				<path class="st5" d="M181.1,259.5c-10.5,40.2-35.1,63.8-40.8,60.1c-2-1.3-4-6.9-5.7-15.2l0,0c-3.2-15.3-5.8-39.9-7.1-64.4
					c-1.8-32.7,8.6-68.6,25.4-72.7v0c2.6-0.6,5.3-0.5,8.2,0.5C183.2,175.4,191.6,219.3,181.1,259.5z"/>
				<path class="st7" d="M226.4,65.2l4.4,4c0,0,19.4-25.2,27-29.2c7.6-4.1,26.7,2.7,26.7,2.7s-7.8-10-12-12.5
					c-4.2-2.5-12.8-6.2-21.4-2.5C242.4,31.4,226.4,65.2,226.4,65.2z"/>
				<polygon class="st7" points="193,74 163.9,86.6 158.2,75.8 192.1,67.9 				"/>
				<path class="st9" d="M250.3,75.6c-20.4,3.9-20.3,33.3-19.2,42.2c1,8.9,11.1,20.4,27.3,19.4c16.2-1,23.3-15.9,21.6-29.5
					C278.4,94,267.9,72.3,250.3,75.6z"/>
				<path class="st7" d="M253.5,110.4c0,4.6-2.5,8.3-5.6,8.3s-5.6-3.7-5.6-8.3c0-4.6,2.5-8.3,5.6-8.3S253.5,105.8,253.5,110.4z"/>
				<path class="st9" d="M200.2,91.8c17.9,3.4,17.7,29.1,16.9,37c-0.9,7.8-9.8,17.9-24,17c-14.2-0.9-20.4-13.9-18.9-25.9
					C175.7,107.9,184.8,88.9,200.2,91.8z"/>
				<ellipse class="st7" cx="202.4" cy="122.2" rx="4.9" ry="7.3"/>
				<path class="st10" d="M216.2,153.1c0,0,4.1,18.4,8.8,20.8c4.7,2.4,15.5-10.3,15.5-10.3L216.2,153.1z"/>
				<path class="st7" d="M216.2,153.1c0,0,10.9,14.5,14.5,14.9c3.6,0.4,9.7-4.5,9.7-4.5L216.2,153.1z"/>
				<path class="st2" d="M228.1,132.9c-1.2,0.5-13,18.1-11.8,20.3c1.2,2.2,16.7,11.3,34.4,11.5c0,0-0.2-13.7-3.5-21.3
					C243.8,135.7,228.1,132.9,228.1,132.9z"/>
				<path class="st11" d="M234.9,137.3c-3.1,1.6,4.9,13,9,10.1C248.1,144.4,237.9,135.8,234.9,137.3z"/>
				<path class="st11" d="M245.6,148.7c-1.9-0.3-0.6,3.5,0.8,3.5C247.9,152.1,247.1,149,245.6,148.7z"/>
				<circle class="st9" cx="250.7" cy="105.1" r="2.4"/>
				<circle class="st9" cx="204.8" cy="117.4" r="2.4"/>
				<path class="st6" d="M222.3,42c-0.2,0.4-6.2,13.1-17.5,18.8c-11.4,5.7-22.8-0.8-22.8-0.8c10.3-3,25.2-5.4,37.6-15.9
					C220.5,43.4,221.4,42.7,222.3,42z"/>
				<path class="st12" d="M242.2,70.3c0,0,11-4.7,20.4,0c9.4,4.7,11.6,10,11.6,10s-2.8-10.4-12.9-14.3
					C251.2,62.1,242.2,70.3,242.2,70.3z"/>
				<path class="st12" d="M182,89.9c0,0,7.8-7.7,20.2-4.8C202.1,85.1,189.6,76.4,182,89.9z"/>
				<path class="st6" d="M181.1,259.5c-10.5,40.2-35.1,63.8-40.8,60.1c-2-1.3-4-6.9-5.7-15.2l5.4,9.5l4.7-24.3V310
					c0,0,14.5-28.2,21.2-72.6s-13.1-70.2-13.1-70.2v0c2.6-0.6,5.3-0.5,8.2,0.5C183.2,175.4,191.6,219.3,181.1,259.5z"/>
				<g>
					<path class="st1" d="M227.1,385.3c-2.4,1.5-5.3,2.6-8.4,2.7c-0.1-0.6-0.1-1.3-0.2-1.9c3.2-0.1,6-1.3,8.5-3L227.1,385.3z"/>
					<path class="st1" d="M227.6,395.8c-1.9,0.6-3.6,0.8-5.2,0.8c-1.1,0-2.1-0.1-3-0.3c-0.1-0.7-0.1-1.3-0.2-2
						c2.1,0.4,5,0.6,8.2-0.6L227.6,395.8z"/>
					<path class="st1" d="M224.3,330c-4.9,3.4-10,5.1-14,5.8c-0.2-0.7-0.3-1.3-0.5-1.9c4.1-0.7,9.4-2.4,14.4-6.2L224.3,330z"/>
					<path class="st1" d="M213.9,353c-0.1-0.7-0.3-1.4-0.4-2c4.5,0.7,8.6,0.1,11.8-0.9l0.1,2C222.2,353,218.3,353.5,213.9,353z"/>
					<path class="st1" d="M226.3,368.8c-3.4,1.5-6.7,2-9.5,2.1c-0.1-0.6-0.2-1.2-0.3-1.9c2.8,0,6.2-0.6,9.7-2.3L226.3,368.8z"/>
					<path class="st1" d="M280.8,322.3c0,0.7-0.1,1.4-0.1,2.1c-5.2,1.5-10.7,1-14.8,0.2l-0.3-2.1C269.6,323.4,275.4,324,280.8,322.3
						z"/>
					<path class="st1" d="M268,338.8l-0.4-2.4c4.2,2.5,8.8,2.7,12.8,2.2c0,0.6,0,1.3,0,1.9C276.6,341,272.2,340.9,268,338.8z"/>
					<path class="st1" d="M281.1,358.3c-3.8,0.8-7.4,0.3-10.2-0.7l-0.3-2.1c2.7,1,6.4,1.8,10.4,0.8C281,356.9,281,357.6,281.1,358.3
						z"/>
					<path class="st1" d="M273.3,373.4l-0.3-2c3.1,0.6,6.2,0.1,9-0.7c0.1,0.6,0.1,1.2,0.2,1.9C279.4,373.4,276.4,373.8,273.3,373.4z
						"/>
					<path class="st1" d="M283.9,388.4c-2.9,0.8-5.8,0.7-8.2,0.3l-0.3-2c2.4,0.5,5.3,0.7,8.3-0.2
						C283.7,387.1,283.8,387.7,283.9,388.4z"/>
				</g>
				<path class="st11" d="M305.4,395.6c-3.9,2.1,0.3,14.8,7.6,14.8S310.8,392.7,305.4,395.6z"/>
				<path class="st11" d="M289.8,406.3c-4.9,0.9,0.1,15.4,3.6,15.1C296.9,421,296.6,405,289.8,406.3z"/>
				<path class="st11" d="M193.8,425.4c3.3,2.6,14.8-15.7,7.7-17.1C194.3,406.9,189,421.7,193.8,425.4z"/>
				<path class="st11" d="M218.6,413.6c-3.6-0.7-5.6,15.4-2,17.1C220,432.4,223.7,414.6,218.6,413.6z"/>
				<path class="st8" d="M367.4,72.4c0,0,6.6,6.7,0,14.5c-6.6,7.8-16,9.9-16,9.9s12.4,7.6,11.1,14.9c-1.3,7.3-19,16.7-19,16.7
					s11.6,8.4,7.1,16.2c-4.6,7.8-19.5,11.1-19.5,11.1s5.8,7.6,4.9,12.5s-15.2,3.7-15.2,3.7s10.8-0.4,10.4-6
					c-0.4-5.6-5.9-12.5-5.9-12.5s17.4-3.6,21-10.9c3.6-7.3-9.6-16.1-9.6-16.1s19.6-7.3,19.9-15.3c0.3-8-12.5-14.9-12.5-14.9
					S370,91.5,367.4,72.4z"/>
			</g>
			<polygon class="st0" points="364.1,396.5 353.8,385.4 368.1,396.5 376.4,381.4 372.4,397.3 			"/>
			<polygon class="st0" points="165.8,415.9 170.6,408.2 159.8,416.9 149.3,415.1 153.9,418.4 			"/>
		</g>
		<polygon class="st6" points="195.7,67.3 197,73.2 201,72.3 198.3,66.5 		"/>
		<polygon class="st6" points="228.1,70.4 223.5,66.5 220.6,69.9 226.4,72.6 		"/>
		<path class="st12" d="M286.2,135.2c-5.9,1.1,4.6,49,8.9,49.1C299.4,184.4,293.9,133.7,286.2,135.2z"/>
		<path class="st12" d="M295.7,187.8c-2.2,0-0.8,2.7,0.9,2.9C298.3,190.8,299.2,187.8,295.7,187.8z"/>
		<path class="st12" d="M151.9,171.9c4,3.7-9.4,22.8-12.5,20C136.3,189.2,147.9,168.2,151.9,171.9z"/>
		<path class="st12" d="M138.9,194.2c4,2.3-2,7.7-2.4,5.3C136.1,197.1,136.3,192.7,138.9,194.2z"/>
		<path class="st6" d="M146.6,281.8L151,259C151,259,142.9,269.1,146.6,281.8z"/>
		<path class="st6" d="M320.9,74.4c0,0,1.1,12.3,0,23.3C320.9,97.7,329.9,81.7,320.9,74.4z"/>
		<path class="st4" d="M267.3,315.9c-1.5,0.1-2.9,0.1-3.8,0.1c-4.2,0-8.4-5.1-8.4-5.1l-22.8,1.7c0,0-2,5.7-8.4,7.4
			c-1.4,0.4-3.3,0.7-5.3,0.9l5.1-12.1c0,0,18.2,0.8,37.8-3L267.3,315.9z"/>
	</g>
	<g>
		<path class="st6" d="M2.7,95.7L0,97.9l38.8,4.8c5.6,2.2,11.5,3.8,17.6,4.8c2-19.7,23-35.3,48.5-35.3c10.3,0,19.9,2.6,27.8,6.9
			c4.9-7.4,7.7-15.9,7.7-24.8c0-30-31.3-54.3-69.8-54.3C32.1,0,0.8,24.4,0.8,54.3c0,10.8,4,21.1,11.7,30.1l-0.1,0l0.7,0.8
			C12.3,87,7.2,91.9,2.7,95.7z M24.1,30.2h91v4.9h-91V30.2z M24.1,48.6h91v4.9h-91V48.6z M24.1,66.9h48.2v4.9H24.1V66.9z"/>
		<path class="st12" d="M60.2,110.7c0,19,20.1,34.5,44.7,34.5c5.5,0,10.8-0.8,15.9-2.3l1.1-0.3l12.5,11.6v-17.6l0.8-0.6
			c9.1-6.5,14.3-15.7,14.3-25.2c0-19-20.1-34.5-44.7-34.5C80.3,76.2,60.2,91.7,60.2,110.7z"/>
		<rect x="24.1" y="30.2" class="st12" width="91" height="4.9"/>
		<rect x="24.1" y="48.6" class="st12" width="91" height="4.9"/>
		<rect x="24.1" y="66.9" class="st12" width="48.2" height="4.9"/>
	</g>
</g>
</svg>
