<?xml version="1.0" encoding="utf-8"?>
<!-- Generator: Adobe Illustrator 27.0.0, SVG Export Plug-In . SVG Version: 6.00 Build 0)  -->
<svg version="1.1" id="Layer_1" xmlns="http://www.w3.org/2000/svg" xmlns:xlink="http://www.w3.org/1999/xlink" x="0px" y="0px"
	 viewBox="0 0 351.4 298" style="enable-background:new 0 0 351.4 298;" xml:space="preserve">
<style type="text/css">
	.st0{fill:#4F4F4F;}
</style>
<g>
	<path class="st0" d="M210.21,227.39c-37.92,0-75.85,0.02-113.77-0.01c-12.11-0.01-22.13-7.95-25.08-19.65
		c-2.77-10.98,2.36-22.71,12.44-28.4c4.81-2.72,10.05-3.64,15.49-3.37c2.71,0.14,3.44-0.41,2.48-3.27
		C86.51,127.18,71.32,81.64,56.22,36.07c-0.76-2.29-1.92-2.74-4.04-2.73c-13.22,0.07-26.45,0.04-39.67,0.04c-1,0-2,0.02-2.99-0.01
		C3.74,33.23-0.15,29.8,0,25.02c0.15-4.75,3.86-7.86,9.51-7.86c16.72-0.02,33.43-0.02,50.15,0c5.28,0.01,7.72,1.73,9.43,6.76
		c2.84,8.36,5.72,16.72,8.32,25.16c0.8,2.6,1.91,3.47,4.64,3.45c18.71-0.12,37.43-0.14,56.14,0.02c2.96,0.03,4.02-0.85,4.62-3.67
		c4.63-21.64,17.37-36.71,37.87-44.76c34.88-13.7,74.21,8.27,81.08,45.04c0.49,2.65,1.51,3.38,4.13,3.37
		c25.07-0.1,50.15-0.05,75.22-0.07c2.53,0,4.99,0.14,7.11,1.73c3.61,2.71,4.18,6.88,1.46,11.66c-10.17,17.86-20.37,35.7-30.57,53.54
		c-12.55,21.96-25.21,43.85-37.58,65.9c-2.77,4.93-6.14,7.04-11.9,7.03c-57.51-0.16-115.02-0.1-172.53-0.1
		c-4.84,0-8.2,2.14-9.7,6.13c-1.45,3.83-0.46,7.77,2.63,10.52c1.54,1.37,3.3,2.22,5.39,2.26c1.62,0.04,3.24,0.08,4.86,0.08
		c73.85,0,147.7,0,221.56,0.02c1.98,0,4.02,0.05,5.94,0.47c3.99,0.88,6.21,4.13,5.96,8.28c-0.23,3.87-3.2,6.97-7.16,7.36
		c-1.24,0.12-2.49,0.05-3.74,0.05C285.31,227.4,247.76,227.4,210.21,227.39z M329.34,68.69c-1.49,0-2.56,0-3.63,0
		c-19.83,0-39.66,0.06-59.49-0.07c-2.92-0.02-3.98,0.76-4.52,3.75c-4.98,27.31-30.19,48.4-57.96,48.72
		c-30.18,0.34-54.69-19.31-60.98-49.09c-0.59-2.82-1.8-3.39-4.43-3.37c-16.71,0.11-33.42,0.06-50.13,0.06
		c-4.23,0-4.24,0.02-2.92,3.97c11.09,33.26,22.22,66.51,33.2,99.81c0.9,2.73,2.06,3.62,4.92,3.62c47.14-0.09,94.28-0.09,141.42,0
		c2.64,0.01,3.96-0.94,5.2-3.12c19.16-33.65,38.39-67.26,57.6-100.89C328.16,71.14,328.61,70.15,329.34,68.69z M247.02,60.55
		c0-24.87-20.01-44.88-44.91-44.92c-24.36-0.04-44.84,20.46-44.77,44.83c0.07,24.96,20.02,44.97,44.85,45
		C227.08,105.49,247.02,85.51,247.02,60.55z"/>
	<path class="st0" d="M106.04,272.36c0.02-14.32,11.36-25.62,25.62-25.56c14.33,0.07,25.58,11.32,25.6,25.62
		c0.03,14.22-11.38,25.58-25.66,25.58C117.34,298,106.02,286.64,106.04,272.36z M122.31,272.61c0.07,5.2,4.49,9.56,9.54,9.41
		c5.06-0.15,9.47-4.7,9.43-9.7c-0.05-5.11-4.45-9.32-9.69-9.25C126.24,263.13,122.24,267.24,122.31,272.61z"/>
	<path class="st0" d="M229.6,272.4c0-14.34,11.31-25.65,25.57-25.6c14.34,0.05,25.6,11.28,25.67,25.58
		c0.07,14.16-11.38,25.6-25.65,25.63C240.94,298.03,229.59,286.68,229.6,272.4z M245.88,272.39c-0.03,5.25,4.18,9.62,9.29,9.63
		c5.03,0.01,9.54-4.42,9.65-9.47c0.11-5.08-4.24-9.44-9.46-9.48C249.98,263.02,245.92,267.01,245.88,272.39z"/>
	<path class="st0" d="M202.14,68.69c-5.48,0-10.96,0.04-16.44-0.01c-5.54-0.06-9.19-3.37-9.13-8.18c0.06-4.68,3.57-7.95,8.96-8
		c11.08-0.09,22.16-0.08,33.24-0.01c5.5,0.04,9.28,3.53,9.2,8.21c-0.08,4.74-3.81,7.94-9.4,7.98
		C213.09,68.72,207.62,68.69,202.14,68.69z"/>
</g>
</svg>
