<?xml version="1.0" encoding="utf-8"?>
<!-- Generator: Adobe Illustrator 27.0.0, SVG Export Plug-In . SVG Version: 6.00 Build 0)  -->
<svg version="1.1" id="Layer_1" xmlns="http://www.w3.org/2000/svg" xmlns:xlink="http://www.w3.org/1999/xlink" x="0px" y="0px"
	 viewBox="0 0 136.7 225" style="enable-background:new 0 0 136.7 225;" xml:space="preserve">
<style type="text/css">
	.st0{fill:#2D72B5;}
	.st1{fill:#131B5C;}
</style>
<path class="st0" d="M136.6,132c0,29.5-0.1,59,0.1,88.5c0,3.8-1.2,4.5-4.7,4.5c-32-0.1-64.1-0.1-96.1,0c-3.2,0-4.4-0.8-4.4-4.2
	c0.1-35.4,0.1-70.7,0-106.1c0-3.6,1.2-4.4,4.6-4.3c15.2,0.2,30.3,0,45.5,0.2c3.8,0,5-1.1,5-4.9c-0.2-20.6,0-41.2-0.2-61.8
	c0-4,1-5.3,5.1-5.2c13.4,0.3,26.9,0.2,40.3,0c3.7-0.1,4.9,0.8,4.9,4.8C136.5,72.9,136.6,102.5,136.6,132z"/>
<path class="st1" d="M80.3,52.3c0,16.1-0.1,32.1,0.1,48.2c0,2.9-0.4,4.1-3.8,4.1c-24.2-0.2-48.3-0.1-72.5,0c-3.1,0-4-0.8-4-4
	C0.1,68.3,0.1,35.9,0,3.4C0,0.5,1,0,3.6,0C28,0.1,52.3,0.2,76.6,0c3.4,0,3.8,1.2,3.8,4.1C80.3,20.2,80.3,36.3,80.3,52.3z"/>
</svg>
