<?xml version="1.0" encoding="utf-8"?>
<!-- Generator: Adobe Illustrator 27.0.0, SVG Export Plug-In . SVG Version: 6.00 Build 0)  -->
<svg version="1.1" id="Layer_1" xmlns="http://www.w3.org/2000/svg" xmlns:xlink="http://www.w3.org/1999/xlink" x="0px" y="0px"
	 viewBox="0 0 570.25 162" style="enable-background:new 0 0 570.25 162;" xml:space="preserve">
<style type="text/css">
	.st0{fill:#606060;}
</style>
<g>
	<g>
		<g>
			<g>
				<path class="st0" d="M225.27,52.89c-3.25-1.88-7.28-2.82-12.1-2.82s-9.16,0.44-13.03,1.3c-3.85,0.88-7.1,1.99-9.71,3.31
					c-2.61,1.35-4.69,2.79-6.23,4.38c-1.55,1.58-2.32,3.06-2.32,4.47c0,1.41,0.35,2.55,1.05,3.41s1.82,1.3,3.35,1.3
					c1.55,0,3.44-0.79,5.69-2.38c0.05-0.05,0.08-0.12,0.09-0.26c0.03-0.14,0.03-0.32,0.03-0.55c0-0.45-0.05-0.67-0.17-0.67h-0.03
					c-0.65,0.24-1.18,0.36-1.59,0.36c-0.17,0-0.32-0.02-0.45-0.03c-0.65-0.09-0.97-0.39-0.97-0.93c0-0.64,0.36-1.23,1.08-1.74
					c2.03-1.58,5.31-3.18,9.77-4.82c4.47-1.65,8.3-2.46,11.47-2.46s5.87,0.47,8.08,1.4c0.93,0.39,1.68,0.89,2.29,1.53
					c0,0,0,0,0.02,0c0.12,0.14,0.26,0.27,0.38,0.44c0.52,0.65,0.82,1.36,0.93,2.15c0.03,0.21,0.05,0.44,0.05,0.65
					c0,1.05-0.59,2.31-1.77,3.78c-1.18,1.47-2.65,2.87-4.43,4.22c-1.76,1.35-3.81,2.5-6.13,3.47c-2.34,0.97-4.49,1.46-6.51,1.46
					h-0.94c-0.45,0-0.89-0.05-1.29-0.12c-0.39-0.09-0.68-0.3-0.86-0.65c3.44-5.44,6.17-9.65,8.14-12.62
					c0.88-1.32,1.62-2.38,2.21-3.22c-2.34,0.23-4.76,0.61-7.01,1.09c-0.68,0.94-1.67,2.29-2.94,4.08c-0.76,1.09-1.64,2.34-2.62,3.73
					c-3.79,5.44-7.84,11.5-12.12,18.18c-4.32,6.7-6.45,10.56-6.45,11.59c0,0.8,0.64,1.21,1.93,1.21h0.55l0.79,0.06l1.59-0.29
					c0.53,0,1.02-0.26,1.47-0.76c0.03-0.02,0.26-0.39,0.7-1.14c0.44-0.74,1.08-1.76,1.9-3.05c0.82-1.3,1.8-2.9,2.99-4.81
					c1.17-1.9,3.41-5.46,6.73-10.66c1.35,1.96,3.23,2.93,5.67,2.93s5.2-0.59,8.3-1.76c3.09-1.17,5.9-2.68,8.43-4.52
					c2.53-1.85,4.64-4,6.32-6.48c1.68-2.49,2.53-4.91,2.53-7.33C230.13,56.9,228.5,54.76,225.27,52.89z"/>
			</g>
			<g>
				<path class="st0" d="M246.34,91.9c0-0.44,0.52-1.68,1.58-3.76c-0.02-0.14-0.03-0.26-0.05-0.39c-0.09-0.62-0.33-0.94-0.76-0.94
					c-0.26,0-0.45,0.05-0.59,0.17c-0.12,0.11-0.53,0.53-1.18,1.27c-0.67,0.74-1.35,1.46-2.03,2.17c-0.7,0.71-1.5,1.36-2.38,1.99
					c-0.08,0.06-0.17,0.11-0.24,0.17c-0.79,0.52-1.49,0.77-2.08,0.77c-0.65,0-0.99-0.61-0.99-1.79c0-0.39,0.03-0.7,0.11-0.93
					c0.32-1.76,1.05-3.9,2.17-6.38c1.12-2.49,2.15-4.53,3.06-6.13c0.93-1.61,1.53-2.55,1.82-2.84c0.27-0.27,0.42-0.73,0.42-1.33
					c0-1.14-0.83-1.7-2.49-1.7c-0.73,0-1.26,0.11-1.62,0.32c-0.36,0.2-0.8,0.7-1.32,1.47c-0.2-0.59-0.67-1.08-1.4-1.47
					c-0.74-0.39-1.7-0.59-2.87-0.59c-3.05,0-6.38,1.43-9.99,4.25c-1.71,1.35-3.29,2.85-4.73,4.49s-2.59,3.46-3.47,5.46
					c-0.88,1.99-1.32,3.97-1.32,5.95c0,1.98,0.61,3.5,1.79,4.61c0.94,0.89,2.15,1.35,3.62,1.35s3.4-0.82,5.73-2.44
					c2.34-1.64,4.41-3.62,6.22-5.98c-0.44,0.97-0.65,2.11-0.65,3.41s0.41,2.49,1.24,3.55c0.82,1.08,2.12,1.59,3.87,1.59
					c1.12,0,2.32-0.35,3.59-1.06c0.73-0.39,1.47-0.91,2.24-1.55c1.67-1.36,2.9-2.58,3.64-3.62c-0.27,0.14-0.52,0.2-0.68,0.2
					S246.34,92.07,246.34,91.9z M232.43,83.89c-0.91,1.14-2.76,2.9-5.55,5.31c-2.79,2.41-4.47,3.61-5.1,3.61
					c-0.44,0-0.65-0.38-0.65-1.15c0-0.76,0.59-2.17,1.79-4.25c1.18-2.08,2.49-3.84,3.9-5.32c3.97-4.13,7.84-6.2,11.56-6.2
					C235.4,79.94,233.43,82.62,232.43,83.89z"/>
			</g>
			<g>
				<path class="st0" d="M270.33,86.82c-0.24,0-0.47,0.09-0.71,0.29c-0.27,0.26-0.55,0.5-0.82,0.74c-0.97,0.88-1.9,1.73-2.81,2.55
					c-4.29,3.85-7.73,6.89-10.34,9.08c2.05-4.22,5.79-10.92,11.24-20.11c1.85-3.12,2.87-4.84,3.03-5.17
					c0.18-0.33,0.26-0.61,0.26-0.82s-0.11-0.44-0.32-0.67c-0.14-0.14-0.26-0.27-0.38-0.42c-0.12-0.15-0.47-0.3-1.08-0.42
					c-0.61-0.12-1.05-0.2-1.35-0.2c-0.29,0-0.56,0.11-0.8,0.32c-0.15,0.11-0.3,0.23-0.42,0.33c-0.12,0.11-0.27,0.26-0.44,0.47
					c-0.17,0.21-0.3,0.39-0.42,0.55c-0.12,0.15-0.27,0.36-0.45,0.64c-0.18,0.27-0.33,0.49-0.45,0.65c-0.12,0.17-0.27,0.39-0.47,0.7
					c-1.55,2.4-3.69,5.04-6.4,7.93c-2.44,2.61-4.67,4.75-6.67,6.42c-1.44,1.18-2.52,1.96-3.22,2.29c-0.27,0.14-0.52,0.2-0.68,0.2
					c-0.17,0-0.26-0.09-0.26-0.26c0-0.44,0.52-1.68,1.58-3.76c0.68-1.35,1.58-3.05,2.71-5.1c2.85-5.19,4.28-8.1,4.28-8.78
					c0-0.67-0.3-1.26-0.93-1.74c-0.62-0.49-1.14-0.74-1.52-0.74c-0.39,0-0.8,0.35-1.24,1.03s-1.08,1.82-1.9,3.41
					c-0.82,1.59-1.64,2.99-2.41,4.17c-0.83,1.5-1.73,3.06-2.7,4.67s-1.65,2.76-2.03,3.43c-0.76,1.32-1.26,2.67-1.5,4.06
					c-0.11,0.64-0.17,1.29-0.17,1.94c0,1.17,0.29,2.05,0.88,2.62c0.11,0.11,0.23,0.21,0.36,0.3c0.82,0.55,1.67,0.83,2.52,0.83h0.23
					c1.65-0.18,3.37-0.97,5.17-2.4c1.77-1.43,3.72-3.28,5.81-5.57c-3.12,5.91-4.76,8.96-4.9,9.15c-0.12,0.18-0.89,0.97-2.32,2.35
					c-1.41,1.38-2.58,2.67-3.52,3.87c-2.46,3.18-3.69,5.96-3.69,8.33c0,2.02,1,3.03,3,3.03c0.17,0,0.58-0.03,1.18-0.11
					c0.62-0.08,1.4-0.58,2.32-1.49c0.93-0.93,1.7-1.88,2.34-2.88c0.64-1.02,1.23-2.02,1.79-3c0.55-0.99,0.88-1.53,1-1.65
					c4.43-4.78,9.11-9.21,14.01-13.27c0.17-0.14,0.33-0.27,0.49-0.41c1.27-1.06,2.56-2.09,3.87-3.09c0.15-0.14,0.24-0.36,0.29-0.68
					c0.02-0.11,0.03-0.23,0.03-0.35c0.02-0.06,0.02-0.12,0.02-0.18C271.34,87.85,271.01,86.82,270.33,86.82z"/>
			</g>
			<g>
				<path class="st0" d="M311.61,50.19c-1.5-0.35-3.23-0.53-5.19-0.53c-5.11,0-10.66,1.21-16.65,3.62c-2.88,1.17-5.57,2.52-8.01,4
					c-2.44,1.5-4.43,3.23-5.96,5.16c-1.52,1.94-2.29,3.97-2.29,6.1c0,2.13,0.96,3.93,2.88,5.4c1.93,1.47,4.96,2.7,9.11,3.67
					c4.14,0.97,7.31,1.85,9.48,2.65c2.17,0.8,3.26,1.67,3.26,2.61c0,0.74-0.61,1.61-1.85,2.62c-1.23,1-2.79,1.96-4.67,2.87
					s-4.09,1.68-6.64,2.32c-2.55,0.62-4.88,0.94-7.01,0.94c-2.12,0-4.06-0.29-5.84-0.86c-0.35-0.12-0.67-0.23-0.96-0.33
					c-0.27-0.12-0.52-0.24-0.73-0.35c-0.65-0.36-0.99-0.74-0.99-1.12l0.42-0.88c0-0.26-0.2-0.39-0.59-0.39
					c-0.17,0-0.38,0.05-0.65,0.17c-0.97,0.88-1.9,1.73-2.81,2.55c-0.18,0.45-0.27,0.96-0.27,1.5c0,0.73,0.18,1.43,0.55,2.11
					c0.05,0.08,0.09,0.15,0.12,0.23c0.08,0.15,0.17,0.27,0.26,0.41c1.56,2.26,4.64,3.38,9.28,3.38c6.93,0,12.88-1.12,17.9-3.35
					c2.29-1,4.26-2.15,5.96-3.43c1.68-1.29,2.94-2.61,3.78-3.99c0.83-1.36,1.26-2.84,1.26-4.4c0-1.58-0.67-3.11-1.99-4.64
					c-0.58-0.62-1.32-1.24-2.27-1.87c-0.94-0.61-2.14-1.24-3.58-1.93c-1.44-0.69-4.31-1.58-8.61-2.67c-4.16-1.08-6.69-2.09-7.6-3.08
					c-0.33-0.33-0.49-0.79-0.49-1.32s0.74-1.44,2.23-2.75c1.47-1.29,3.32-2.61,5.55-3.96c2.21-1.33,4.84-2.55,7.86-3.61
					c3-1.08,5.84-1.67,8.49-1.82c-0.83,1.05-1.26,1.76-1.26,2.15s0.06,0.68,0.2,0.85c0.12,0.18,0.24,0.26,0.33,0.26
					s0.21-0.05,0.33-0.14c0.14-0.09,0.94-0.17,2.43-0.23c4.28-0.2,6.9-0.7,7.87-1.5c0.09-0.06,0.23-0.17,0.41-0.3
					c0.18-0.12,0.33-0.26,0.45-0.39c0.12-0.12,0.27-0.39,0.47-0.8c0.2-0.39,0.3-1.15,0.3-2.27S314.49,50.87,311.61,50.19z"/>
			</g>
			<g>
				<path class="st0" d="M329.72,73.07c-0.68-0.59-1.35-0.88-2-0.88s-1.14,0.03-1.44,0.06v-0.2c0-0.15-0.11-0.32-0.33-0.52
					c-0.61-0.59-1.52-0.88-2.7-0.88c-2.67,0-5.79,1.43-9.34,4.28c-1.7,1.4-3.28,2.97-4.73,4.72c-1.46,1.74-2.65,3.78-3.58,6.05
					c-0.93,2.29-1.38,4.37-1.38,6.25s0.5,3.35,1.52,4.4s2.37,1.59,4.03,1.59s3.55-0.56,5.6-1.68c2.06-1.12,3.97-2.56,5.75-4.31
					c1.77-1.76,3.4-3.62,4.88-5.61c1.47-2,2.64-3.96,3.49-5.88c0.85-1.93,1.27-3.49,1.27-4.7S330.42,73.67,329.72,73.07z
					 M323.59,80.65c-0.86,1.61-2.15,3.49-3.88,5.67c-1.73,2.17-3.47,3.85-5.25,5.04c-1.76,1.17-3.09,1.76-3.99,1.76
					s-1.33-0.61-1.33-1.82c0.05-2.46,1.46-5.47,4.25-9.04c1.38-1.79,2.93-3.34,4.67-4.64c1.74-1.3,3.41-2.21,4.99-2.75
					c0,1.11,0.38,1.67,1.15,1.67h0.23c0.3,0,0.45,0.29,0.45,0.86C324.88,77.98,324.44,79.07,323.59,80.65z"/>
			</g>
			<g>
				<path class="st0" d="M357.58,49.01c-0.8-0.62-1.71-0.94-2.76-0.94c-3.4,0-8.3,4.55-14.73,13.65c-2.85,4.03-5.41,8.9-7.67,14.64
					c-2.27,5.73-3.41,10.72-3.41,14.97c0,2.17,0.53,3.9,1.59,5.14c1.08,1.24,2.62,1.88,4.67,1.88c2.03,0,4.2-0.55,6.49-1.65
					c2.29-1.11,4.34-2.78,6.17-5.02c0.3-0.39,0.45-1.02,0.45-1.87v-0.65c0-1.59-0.26-2.38-0.79-2.38c-0.52,0-1.87,1.12-4.05,3.35
					c-0.83,0.85-1.8,1.62-2.93,2.32c-1.12,0.7-2.17,1.05-3.15,1.05c-0.97,0-1.8-0.29-2.46-0.86c-0.67-0.58-1-1.23-1-1.94
					c0-0.73,0.08-1.44,0.24-2.14c0.17-0.71,0.26-1.18,0.27-1.46c3.49-3.85,7.11-8.19,10.9-13.03c2.4-3.05,4.53-5.91,6.43-8.63
					s3.52-5.37,4.87-7.96s2.02-4.5,2.02-5.73C358.78,50.53,358.37,49.62,357.58,49.01z M346.55,65.46
					c-4.53,6.45-8.08,11.19-10.66,14.26c1.29-3.91,2.65-7.17,4.09-9.77s3.79-6.05,7.04-10.4c3.23-4.35,5.25-6.54,6.01-6.54
					c0.21,0,0.32,0.17,0.32,0.49C353.35,55.01,351.09,59,346.55,65.46z"/>
			</g>
		</g>
		<g>
			<g>
				<path class="st0" d="M125.45,44.99c-8.58,0-16.39,3.38-22.14,8.87c2.58,3.32,4.61,7.08,5.96,11.13
					c3.69-4.93,9.57-8.13,16.18-8.13c11.12,0,20.16,9.05,20.16,20.16c0,11.12-9.05,20.17-20.16,20.17c-6.61,0-12.5-3.2-16.18-8.13
					c-1.36,4.06-3.4,7.81-5.96,11.13c5.75,5.51,13.56,8.87,22.13,8.87c17.71,0,32.06-14.36,32.06-32.06
					C157.51,59.35,143.16,44.99,125.45,44.99z"/>
			</g>
			<g>
				<path class="st0" d="M105.28,77.04c0,0.53-0.02,1.06-0.05,1.58c-0.02,0.18-0.02,0.35-0.03,0.52c-0.06,1.15-0.2,2.29-0.39,3.41
					c-0.08,0.45-0.17,0.89-0.26,1.33c-0.05,0.26-0.11,0.53-0.18,0.79c-0.17,0.7-0.36,1.4-0.58,2.06h-0.02
					c-0.36,1.17-0.8,2.31-1.29,3.43c-0.09,0.21-0.18,0.41-0.29,0.62c-0.12,0.24-0.23,0.49-0.36,0.73c-0.18,0.36-0.36,0.73-0.58,1.08
					c-0.17,0.32-0.36,0.64-0.55,0.96c-0.17,0.27-0.33,0.55-0.5,0.82h-0.02c-0.27,0.44-0.58,0.88-0.88,1.3
					c-0.3-0.42-0.61-0.86-0.88-1.3H98.4c-0.06-0.11-0.14-0.21-0.2-0.32c-0.12-0.2-0.26-0.39-0.36-0.61
					c-0.18-0.3-0.36-0.59-0.52-0.89c-0.14-0.24-0.26-0.49-0.38-0.73c-0.14-0.23-0.24-0.47-0.36-0.7c-0.15-0.3-0.29-0.61-0.42-0.93
					c-0.5-1.11-0.94-2.24-1.3-3.43c-0.23-0.68-0.41-1.38-0.59-2.08c-0.08-0.33-0.15-0.65-0.23-0.99c-0.02-0.03-0.02-0.05-0.02-0.09
					c-0.06-0.33-0.14-0.68-0.2-1.03h0.02c-0.2-1.12-0.36-2.24-0.42-3.41l-0.03-0.27c-0.02-0.09-0.02-0.18-0.02-0.27
					c-0.05-0.88-0.06-1.76-0.02-2.64c0.02-0.33,0.03-0.65,0.05-0.99c0.06-1.15,0.2-2.29,0.39-3.41c0.05-0.27,0.09-0.55,0.15-0.82
					c0.06-0.35,0.15-0.7,0.23-1.03c0.02-0.08,0.05-0.17,0.06-0.24c0.09-0.38,0.2-0.76,0.3-1.14c0.09-0.32,0.18-0.62,0.27-0.94
					c0.36-1.17,0.8-2.32,1.3-3.43c0.14-0.3,0.27-0.61,0.42-0.93c0.23-0.44,0.44-0.88,0.68-1.32c0.14-0.26,0.27-0.5,0.42-0.76
					c0.05-0.06,0.09-0.15,0.12-0.21c0.2-0.32,0.39-0.65,0.61-0.97c0.27-0.44,0.58-0.88,0.88-1.3c0.3,0.42,0.61,0.86,0.88,1.3h0.02
					c0.17,0.27,0.33,0.55,0.52,0.82c0.15,0.26,0.3,0.52,0.44,0.76c0.05,0.06,0.09,0.15,0.12,0.23c0.2,0.33,0.38,0.68,0.55,1.03
					c0.12,0.24,0.24,0.47,0.36,0.73c0.11,0.2,0.2,0.41,0.29,0.62c0.45,1,0.85,2.03,1.2,3.09v0.02c0.02,0.03,0.02,0.05,0.03,0.08
					c0.12,0.39,0.24,0.79,0.36,1.18c0.11,0.36,0.2,0.74,0.3,1.11c0.17,0.7,0.32,1.41,0.44,2.14c0.2,1.12,0.33,2.26,0.39,3.41
					c0.02,0.17,0.03,0.32,0.03,0.49C105.26,75.96,105.28,76.51,105.28,77.04z"/>
			</g>
			<g>
				<path class="st0" d="M88.24,48.74H58.2c4.47-2.4,9.59-3.75,15.02-3.75C78.65,44.99,83.77,46.33,88.24,48.74z"/>
			</g>
			<g>
				<path class="st0" d="M93.4,52.15c0.67,0.53,1.3,1.11,1.93,1.7c-0.62,0.8-1.21,1.64-1.76,2.49H48.75
					c1.3-1.52,2.73-2.93,4.28-4.19C53.03,52.15,93.4,52.15,93.4,52.15z"/>
			</g>
			<g>
				<path class="st0" d="M46.22,59.76H91.6c-0.7,1.36-1.3,2.76-1.82,4.19H43.96C44.6,62.49,45.37,61.1,46.22,59.76z"/>
			</g>
			<g>
				<path class="st0" d="M41.64,71.54c0.24-1.43,0.59-2.82,1.02-4.19h46.03c-0.36,1.38-0.65,2.78-0.85,4.19H41.64L41.64,71.54z"/>
			</g>
			<g>
				<path class="st0" d="M94.01,70.72c-0.06,0.27-0.11,0.55-0.15,0.82l0,0C93.9,71.26,93.95,71,94.01,70.72z"/>
			</g>
			<g>
				<path class="st0" d="M58.19,105.38h30.06c-4.47,2.38-9.6,3.75-15.03,3.75S62.66,107.76,58.19,105.38z"/>
			</g>
			<g>
				<path class="st0" d="M93.58,97.76c0.53,0.85,1.12,1.67,1.74,2.49c-0.62,0.59-1.26,1.17-1.93,1.7H53.03
					c-1.55-1.26-2.97-2.67-4.28-4.19C48.75,97.76,93.58,97.76,93.58,97.76z"/>
			</g>
			<g>
				<path class="st0" d="M89.78,90.17c0.52,1.43,1.14,2.82,1.82,4.19H46.22c-0.85-1.32-1.61-2.73-2.26-4.19H89.78z"/>
			</g>
			<g>
				<path class="st0" d="M41.64,82.56h46.23c0.2,1.41,0.49,2.81,0.85,4.19H42.66C42.23,85.39,41.88,83.98,41.64,82.56L41.64,82.56z"
					/>
			</g>
			<g>
				<path class="st0" d="M41.23,74.96h46.29c-0.08,1.4-0.08,2.79,0,4.19H41.23V74.96z"/>
			</g>
			<g>
				<path class="st0" d="M93.46,79.14L93.46,79.14c-0.02-0.09-0.02-0.18-0.03-0.27L93.46,79.14z"/>
			</g>
			<g>
				<path class="st0" d="M105.23,78.62c-0.02,0.18-0.02,0.35-0.03,0.52h-0.02C105.22,78.98,105.23,78.81,105.23,78.62z"/>
			</g>
			<g>
				<path class="st0" d="M105.23,75.46c-0.02-0.17-0.02-0.33-0.03-0.49h0.02C105.22,75.11,105.23,75.29,105.23,75.46z"/>
			</g>
		</g>
	</g>
	<rect x="384.7" y="48.94" class="st0" width="3.68" height="64.14"/>
	<g>
		<path class="st0" d="M419.29,103.49V58.51h8.48v44.98H419.29z M423.16,86.04v-8.17h14.38c1.53,0,2.76-0.51,3.71-1.53
			c0.95-1.02,1.42-2.37,1.42-4.04c0-1.71-0.47-3.08-1.41-4.1c-0.94-1.02-2.18-1.53-3.73-1.53h-14.38V58.5h14.17
			c2.85,0,5.33,0.57,7.44,1.72c2.11,1.14,3.76,2.75,4.93,4.81c1.18,2.06,1.76,4.49,1.76,7.27c0,2.76-0.59,5.18-1.76,7.24
			c-1.18,2.06-2.83,3.66-4.95,4.79c-2.12,1.13-4.6,1.7-7.42,1.7L423.16,86.04L423.16,86.04z"/>
		<path class="st0" d="M473.61,103.96c-3.3,0-6.18-0.69-8.65-2.06c-2.46-1.37-4.38-3.3-5.74-5.8s-2.04-5.4-2.04-8.72V74.64
			c0-3.34,0.68-6.25,2.04-8.74c1.36-2.48,3.27-4.41,5.74-5.79c2.46-1.37,5.35-2.06,8.65-2.06s6.18,0.69,8.65,2.06
			c2.46,1.37,4.38,3.3,5.74,5.79c1.36,2.49,2.04,5.4,2.04,8.74v12.75c0,3.32-0.68,6.23-2.04,8.72c-1.36,2.5-3.27,4.43-5.74,5.8
			C479.8,103.28,476.91,103.96,473.61,103.96z M473.61,95.49c2.31,0,4.16-0.72,5.55-2.17c1.39-1.44,2.09-3.35,2.09-5.72V74.42
			c0-2.39-0.7-4.31-2.09-5.74c-1.39-1.43-3.24-2.15-5.55-2.15s-4.16,0.72-5.55,2.15c-1.39,1.43-2.09,3.35-2.09,5.74V87.6
			c0,2.37,0.7,4.28,2.09,5.72C469.45,94.76,471.3,95.49,473.61,95.49z"/>
		<path class="st0" d="M511.91,103.96c-2.15,0-4.24-0.22-6.3-0.65c-2.05-0.43-3.98-1.07-5.77-1.9c-1.79-0.83-3.41-1.84-4.86-3.02
			l3.93-6.99c1.73,1.42,3.73,2.52,6,3.29s4.6,1.16,6.99,1.16c2.76,0,4.91-0.47,6.43-1.41c1.53-0.94,2.29-2.26,2.29-3.98v-0.03
			c0-1.3-0.38-2.29-1.15-2.99c-0.76-0.69-1.77-1.2-3.02-1.53s-2.6-0.61-4.07-0.83c-1.75-0.27-3.53-0.6-5.32-1.01
			c-1.79-0.4-3.44-1.04-4.95-1.92c-1.51-0.88-2.72-2.13-3.63-3.76c-0.92-1.63-1.38-3.81-1.38-6.53v-0.03
			c0-4.39,1.44-7.79,4.33-10.19c2.89-2.4,6.97-3.6,12.25-3.6c2.43,0,4.91,0.41,7.42,1.22c2.52,0.81,4.86,1.98,7.02,3.48l-3.59,7.18
			c-1.73-1.22-3.54-2.15-5.43-2.8c-1.89-0.65-3.7-0.97-5.43-0.97c-2.6,0-4.61,0.43-6.03,1.28c-1.42,0.86-2.13,2.06-2.13,3.6v0.03
			c0,1.44,0.42,2.54,1.27,3.28c0.85,0.74,1.95,1.29,3.31,1.66c1.36,0.36,2.83,0.7,4.39,1.01c1.73,0.33,3.45,0.74,5.17,1.22
			c1.71,0.48,3.28,1.18,4.7,2.09c1.42,0.91,2.56,2.16,3.4,3.74c0.85,1.59,1.27,3.65,1.27,6.19v0.06c0,4.33-1.5,7.69-4.49,10.07
			C521.58,102.76,517.36,103.96,511.91,103.96z"/>
	</g>
</g>
</svg>
