<?xml version="1.0" encoding="utf-8"?>
<!-- Generator: Adobe Illustrator 27.0.0, SVG Export Plug-In . SVG Version: 6.00 Build 0)  -->
<svg version="1.1" id="Layer_1" xmlns="http://www.w3.org/2000/svg" xmlns:xlink="http://www.w3.org/1999/xlink" x="0px" y="0px"
	 viewBox="0 0 395.96 395.96" style="enable-background:new 0 0 395.96 395.96;" xml:space="preserve">
<style type="text/css">
	.st0{fill:#F9FBFE;}
	.st1{fill:#F6F8FC;}
	.st2{fill:#FFFFFF;}
	.st3{fill:#C3E5E0;}
	.st4{fill:#223E60;}
	.st5{fill:#FCFCFC;}
	.st6{fill:#2FB996;}
</style>
<g id="Group_165" transform="translate(-898.036 -255.479)">
	<circle id="Ellipse_19" class="st0" cx="1096.02" cy="453.46" r="197.98"/>
	<circle id="Ellipse_18" class="st1" cx="1095.16" cy="452.61" r="145.92"/>
	<g id="receipt" transform="translate(976.327 335.196)">
		<path id="Path_226" class="st2" d="M159.01,175.05H74.17V73.14h89.06l-1.99,1.64c-1.45,1.2-2.27,2.99-2.24,4.87V175.05z"/>
		<path id="Path_227" class="st3" d="M158.96,87.48v-6.09c0-4.61,3.74-8.35,8.35-8.35H78.1l-2.48,3.83
			c-0.88,1.35-1.34,2.92-1.34,4.52v6.09H61.02c-1.77,0-3.21-1.44-3.21-3.21c0,0,0,0,0,0V62.03c0-1.77,1.44-3.21,3.21-3.21h117.02
			c1.77,0,3.21,1.44,3.21,3.21l0,0v22.22c0,1.77-1.44,3.21-3.21,3.21L158.96,87.48z"/>
		<g id="Group_164" transform="translate(0 0)">
			<path id="Path_228" class="st4" d="M88.41,172.57H82.1c-1.37,0-2.49,1.11-2.49,2.49c0,1.37,1.11,2.49,2.49,2.49h6.31
				c1.37,0,2.49-1.11,2.49-2.49C90.9,173.68,89.79,172.57,88.41,172.57z"/>
			<path id="Path_229" class="st4" d="M103.98,172.57h-6.31c-1.37,0-2.49,1.11-2.49,2.49c0,1.37,1.11,2.49,2.49,2.49h6.31
				c1.37,0,2.49-1.11,2.49-2.49C106.47,173.68,105.35,172.57,103.98,172.57z"/>
			<path id="Path_230" class="st4" d="M119.54,172.57h-6.31c-1.37,0-2.49,1.11-2.49,2.49c0,1.37,1.11,2.49,2.49,2.49h6.31
				c1.37,0,2.49-1.11,2.49-2.49C122.02,173.68,120.91,172.57,119.54,172.57z"/>
			<path id="Path_231" class="st4" d="M135.1,172.57h-6.31c-1.37,0-2.49,1.11-2.49,2.49c0,1.37,1.11,2.49,2.49,2.49h6.31
				c1.37,0,2.49-1.11,2.49-2.49C137.58,173.68,136.47,172.57,135.1,172.57L135.1,172.57z"/>
			<path id="Path_232" class="st4" d="M150.65,172.57h-6.26c-1.37,0-2.49,1.11-2.49,2.49c0,1.37,1.11,2.49,2.49,2.49h6.31
				c1.37,0,2.49-1.11,2.49-2.49c0-1.37-1.11-2.49-2.49-2.49H150.65z"/>
			<path id="Path_233" class="st4" d="M178.04,56.34H61.02c-3.14,0.01-5.68,2.55-5.69,5.69v22.22c0.01,3.14,2.55,5.68,5.69,5.69
				h10.76v85.11c0,1.37,1.11,2.49,2.49,2.49c1.37,0,2.49-1.11,2.49-2.49l0,0V81.39c0-3.24,2.63-5.87,5.87-5.87l0,0h75.59
				c-1.13,1.75-1.74,3.78-1.74,5.87l-0.15,93.66c0,1.37,1.11,2.49,2.49,2.49c1.37,0,2.49-1.11,2.49-2.49l0,0l0.15-85.08h16.6
				c3.14-0.01,5.68-2.55,5.69-5.69V62.03C183.72,58.89,181.18,56.35,178.04,56.34z M178.76,84.28c0,0.4-0.32,0.72-0.72,0.72h-16.6
				v-3.6c0-3.24,2.63-5.87,5.87-5.87l0,0h2.48c1.37,0,2.49-1.11,2.49-2.49c0-1.37-1.11-2.49-2.49-2.49H68.65
				c-1.37,0-2.49,1.11-2.49,2.49c0,1.37,1.11,2.49,2.49,2.49h4.97c-1.15,1.74-1.76,3.78-1.76,5.87V85H61.02
				c-0.4,0-0.72-0.32-0.72-0.72l0,0l0,0V62.03c0-0.4,0.32-0.72,0.72-0.72h117.02c0.4,0,0.72,0.32,0.72,0.72l0,0V84.28z"/>
			<path id="Path_234" class="st4" d="M90.09,103.27h27.94c1.37,0,2.49-1.11,2.49-2.49c0-1.37-1.11-2.49-2.49-2.49H90.09
				c-1.37,0-2.49,1.11-2.49,2.49C87.6,102.15,88.71,103.27,90.09,103.27z"/>
			<path id="Path_235" class="st4" d="M128.78,103.27h13.87c1.37,0,2.49-1.11,2.49-2.49c0-1.37-1.11-2.49-2.49-2.49l0,0h-13.87
				c-1.37,0-2.49,1.11-2.49,2.49C126.29,102.15,127.41,103.27,128.78,103.27z"/>
			<path id="Path_236" class="st4" d="M90.09,117.76h27.94c1.37,0,2.49-1.11,2.49-2.49c0-1.37-1.11-2.49-2.49-2.49H90.09
				c-1.37,0-2.49,1.11-2.49,2.49C87.6,116.65,88.71,117.76,90.09,117.76z"/>
			<path id="Path_237" class="st4" d="M128.78,117.76h13.87c1.37,0,2.49-1.11,2.49-2.49c0-1.37-1.11-2.49-2.49-2.49l0,0h-13.87
				c-1.37,0-2.49,1.11-2.49,2.49C126.29,116.65,127.41,117.76,128.78,117.76z"/>
			<path id="Path_238" class="st4" d="M90.09,132.27h27.94c1.37,0,2.49-1.11,2.49-2.49s-1.11-2.49-2.49-2.49H90.09
				c-1.37,0-2.49,1.11-2.49,2.49S88.71,132.27,90.09,132.27z"/>
			<path id="Path_239" class="st4" d="M128.78,132.27h13.87c1.37,0,2.49-1.11,2.49-2.49s-1.11-2.49-2.49-2.49l0,0h-13.87
				c-1.37,0-2.49,1.11-2.49,2.49S127.41,132.27,128.78,132.27z"/>
		</g>
	</g>
</g>
<g>
	<circle class="st5" cx="231.35" cy="243.54" r="21.59"/>
	<g>
		<path class="st6" d="M229.68,215.17c1.2,0,2.4,0,3.61,0c0.63,0.17,1.29,0.15,1.93,0.25c5.34,0.79,10.12,2.87,14.1,6.52
			c8,7.34,10.97,16.39,8.45,26.98c-1.82,7.66-6.45,13.38-13.31,17.2c-5.87,3.27-12.16,4.13-18.74,2.72c-4.66-1-8.76-3.12-12.29-6.3
			c-4.81-4.34-7.76-9.71-8.78-16.12c-0.12-0.76-0.21-1.53-0.32-2.29c0-1.2,0-2.4,0-3.61c0.12-0.15,0.1-0.33,0.11-0.51
			c0.07-1.13,0.25-2.24,0.49-3.35c1.02-4.7,3.14-8.86,6.37-12.43c4.33-4.79,9.69-7.73,16.09-8.75
			C228.15,215.36,228.92,215.27,229.68,215.17z M228.24,254.6c0.09-0.08,0.18-0.15,0.27-0.24c6.37-5.79,12.73-11.58,19.11-17.36
			c0.27-0.25,0.24-0.38,0.01-0.62c-1.22-1.32-2.44-2.65-3.64-4c-0.28-0.31-0.43-0.3-0.73-0.02c-4.81,4.4-9.65,8.78-14.46,13.17
			c-0.32,0.29-0.49,0.29-0.79-0.02c-2.27-2.3-4.57-4.58-6.84-6.88c-0.3-0.3-0.45-0.28-0.73,0.01c-1.23,1.26-2.48,2.52-3.75,3.75
			c-0.3,0.29-0.35,0.44-0.02,0.77c2.38,2.34,4.73,4.71,7.1,7.07c1.36,1.36,2.72,2.72,4.09,4.08
			C227.97,254.42,228.05,254.57,228.24,254.6z"/>
	</g>
</g>
</svg>
