<?xml version="1.0" encoding="utf-8"?>
<!-- Generator: Adobe Illustrator 27.0.0, SVG Export Plug-In . SVG Version: 6.00 Build 0)  -->
<svg version="1.1" id="Layer_1" xmlns="http://www.w3.org/2000/svg" xmlns:xlink="http://www.w3.org/1999/xlink" x="0px" y="0px"
	 viewBox="0 0 395.96 395.96" style="enable-background:new 0 0 395.96 395.96;" xml:space="preserve">
<style type="text/css">
	.st0{fill:#F9FBFE;}
	.st1{fill:#F6F8FC;}
	.st2{fill:#223E60;}
	.st3{fill:#C3E5E0;}
	.st4{fill:#73C6B9;}
	.st5{fill:#DDD222;}
</style>
<g>
	<g id="Group_165" transform="translate(-898.036 -255.479)">
		<circle id="Ellipse_19" class="st0" cx="1096.02" cy="453.46" r="197.98"/>
		<circle id="Ellipse_18" class="st1" cx="1095.16" cy="452.61" r="145.92"/>
	</g>
	<g>
		<path class="st2" d="M274.57,125.54c0,41.49,0,82.98,0,124.47c-0.42,0.1-0.28,0.46-0.33,0.72c-1.27,6.94-4.66,12.6-10.25,16.94
			c-5.44,4.23-11.69,5.61-18.43,5.6c-31.9-0.03-63.8-0.03-95.7-0.01c-1.7,0-3.39-0.07-5.05-0.29c-13.58-1.86-23.36-13.1-23.4-26.81
			c-0.01-4.39-0.01-8.77,0-13.16c0.01-3.71,2.33-6.02,6.07-6.03c5.68-0.01,11.37-0.05,17.05,0.03c1.39,0.02,1.68-0.37,1.68-1.71
			c-0.04-32.4-0.03-64.81-0.03-97.21c0-1.04-0.08-2.1,0.29-3.1c1.47-4.05,6.06-5.12,9.46-2.15c4.88,4.26,9.73,8.56,14.55,12.88
			c0.67,0.6,1.01,0.6,1.68-0.01c4.76-4.32,9.57-8.59,14.36-12.88c2.9-2.59,5.72-2.61,8.63-0.02c4.72,4.21,9.46,8.42,14.14,12.67
			c0.81,0.73,1.28,0.81,2.14,0.03c4.6-4.2,9.26-8.34,13.92-12.47c3.31-2.94,5.91-2.9,9.19,0.04c4.67,4.19,9.38,8.35,14.02,12.58
			c0.72,0.66,1.1,0.61,1.8-0.01c4.79-4.29,9.62-8.53,14.43-12.79c1.76-1.56,3.73-2.24,6.04-1.43
			C272.8,122.12,273.83,123.7,274.57,125.54z M157.51,139.37c0,0.83,0,1.36,0,1.88c0,28.02,0.01,56.05-0.03,84.07
			c0,1.36,0.34,1.69,1.69,1.68c22.09-0.05,44.17,0.02,66.26-0.09c3.63-0.02,6.9,2.02,6.77,6.79c-0.13,4.83-0.3,9.67,0.15,14.5
			c0.82,8.75,9.93,15.3,18.52,13.35c7.4-1.68,12.36-7.83,12.36-15.47c0.02-35.21,0.01-70.41,0-105.62c0-0.26,0.16-0.6-0.26-0.86
			c-3.07,2.72-6.16,5.44-9.25,8.17c-2.94,2.59-5.67,2.59-8.63-0.04c-4.69-4.18-9.38-8.35-14.03-12.58
			c-0.83-0.75-1.29-0.94-2.24-0.07c-4.62,4.25-9.33,8.41-14.02,12.59c-3.08,2.74-5.82,2.71-8.86-0.01
			c-4.72-4.22-9.46-8.42-14.14-12.68c-0.75-0.69-1.14-0.7-1.9-0.01c-4.65,4.23-9.35,8.39-14.03,12.58
			c-3.16,2.83-5.79,2.88-8.96,0.11C163.85,144.97,160.81,142.28,157.51,139.37z M225.81,261.9c-1.77-2.71-3.07-5.35-3.91-8.23
			c-1.32-4.53-1.09-9.17-1.04-13.79c0.02-1.34-0.35-1.6-1.63-1.6c-28.31,0.04-56.63,0.03-84.94,0.03c-0.3,0-0.6,0.01-0.9,0
			c-0.4-0.02-0.68,0.06-0.66,0.56c0.17,3.77-0.48,7.59,0.49,11.31c1.66,6.38,7.37,11.75,15.86,11.74
			C174.54,261.87,200.02,261.9,225.81,261.9z"/>
		<path class="st3" d="M157.51,139.37c3.3,2.91,6.34,5.61,9.4,8.28c3.17,2.77,5.8,2.73,8.96-0.11c4.68-4.19,9.38-8.35,14.03-12.58
			c0.76-0.69,1.15-0.68,1.9,0.01c4.68,4.26,9.42,8.46,14.14,12.68c3.04,2.72,5.78,2.74,8.86,0.01c4.69-4.17,9.4-8.33,14.02-12.59
			c0.95-0.87,1.41-0.68,2.24,0.07c4.65,4.23,9.34,8.4,14.03,12.58c2.95,2.63,5.69,2.63,8.63,0.04c3.09-2.73,6.18-5.45,9.25-8.17
			c0.42,0.27,0.26,0.6,0.26,0.86c0.01,35.21,0.02,70.41,0,105.62c0,7.64-4.96,13.79-12.36,15.47c-8.59,1.95-17.7-4.59-18.52-13.35
			c-0.45-4.83-0.28-9.67-0.15-14.5c0.13-4.77-3.14-6.81-6.77-6.79c-22.09,0.11-44.17,0.04-66.26,0.09c-1.35,0-1.69-0.32-1.69-1.68
			c0.04-28.02,0.03-56.05,0.03-84.07C157.51,140.72,157.51,140.2,157.51,139.37z M210.39,208.79c9.32,0,18.64,0,27.96,0
			c1.15,0,2.3,0.03,3.43-0.09c2.93-0.29,5.19-3.23,4.78-6.15c-0.46-3.31-2.76-5.11-6.57-5.11c-19.69-0.01-39.37,0-59.06,0
			c-0.69,0-1.4,0.06-2.08,0.19c-3.24,0.58-5.27,3.98-4.28,7.12c0.84,2.66,2.84,4.02,6.06,4.03
			C190.55,208.8,200.47,208.79,210.39,208.79z M197.24,182.55c3.69,0,7.37,0.03,11.06-0.01c2.44-0.02,4.88,0.19,7.31-0.14
			c3.16-0.44,5.3-3.57,4.61-6.66c-0.66-2.95-2.8-4.52-6.28-4.53c-11.06-0.01-22.11-0.01-33.17,0c-0.5,0-1,0.04-1.49,0.09
			c-3.47,0.37-5.74,3.86-4.69,7.19c0.85,2.69,2.89,4.04,6.22,4.05C186.28,182.57,191.76,182.55,197.24,182.55z"/>
		<path class="st4" d="M225.81,261.9c-25.79,0-51.26-0.03-76.73,0.01c-8.49,0.01-14.2-5.36-15.86-11.74
			c-0.97-3.72-0.32-7.54-0.49-11.31c-0.02-0.49,0.26-0.57,0.66-0.56c0.3,0.01,0.6,0,0.9,0c28.31,0,56.63,0.01,84.94-0.03
			c1.28,0,1.65,0.25,1.63,1.6c-0.06,4.62-0.29,9.26,1.04,13.79C222.74,256.54,224.04,259.19,225.81,261.9z"/>
		<path class="st2" d="M210.39,208.79c-9.92,0-19.84,0.01-29.75-0.01c-3.23,0-5.23-1.36-6.06-4.03c-0.99-3.14,1.04-6.54,4.28-7.12
			c0.68-0.12,1.38-0.19,2.08-0.19c19.69-0.01,39.37-0.01,59.06,0c3.82,0,6.11,1.8,6.57,5.11c0.41,2.91-1.86,5.86-4.78,6.15
			c-1.14,0.11-2.29,0.09-3.43,0.09C229.03,208.79,219.71,208.79,210.39,208.79z"/>
		<path class="st2" d="M197.24,182.55c-5.48,0-10.96,0.01-16.43,0c-3.33-0.01-5.37-1.36-6.22-4.05c-1.05-3.33,1.22-6.82,4.69-7.19
			c0.49-0.05,0.99-0.09,1.49-0.09c11.06,0,22.11-0.01,33.17,0c3.49,0,5.62,1.57,6.28,4.53c0.69,3.09-1.45,6.22-4.61,6.66
			c-2.43,0.34-4.87,0.12-7.31,0.14C204.61,182.58,200.92,182.55,197.24,182.55z"/>
	</g>
</g>
<g>
	<circle class="st5" cx="266.6" cy="143.04" r="39.41"/>
	<g>
		<path class="st2" d="M258.81,135.06c0-3.1,0-6.19,0-9.29c0-0.69,0.17-1.29,0.72-1.74c0.39-0.33,0.85-0.44,1.35-0.44
			c3.81,0,7.62-0.01,11.43,0c1.33,0,2.07,0.81,2.07,2.23c0,5.8,0,11.6,0,17.39c0,0.46,0.02,0.91-0.01,1.37
			c-0.01,0.3,0.09,0.38,0.39,0.38c1.78-0.01,3.55-0.01,5.33,0c1.07,0.01,1.83,0.63,2.03,1.66c0.1,0.54-0.05,1.02-0.36,1.46
			c-0.12,0.17-0.28,0.32-0.43,0.47c-4.37,4.37-8.73,8.74-13.1,13.1c-1.12,1.12-2.15,1.12-3.27,0c-4.39-4.39-8.78-8.78-13.17-13.17
			c-0.51-0.51-0.84-1.08-0.73-1.82c0.16-1.04,0.95-1.7,2.04-1.7c1.75-0.01,3.49-0.01,5.24,0.01c0.37,0,0.49-0.09,0.49-0.47
			C258.81,141.35,258.81,138.21,258.81,135.06z"/>
	</g>
</g>
</svg>
