<?xml version="1.0" encoding="utf-8"?>
<!-- Generator: Adobe Illustrator 27.0.0, SVG Export Plug-In . SVG Version: 6.00 Build 0)  -->
<svg version="1.1" id="Layer_1" xmlns="http://www.w3.org/2000/svg" xmlns:xlink="http://www.w3.org/1999/xlink" x="0px" y="0px"
	 viewBox="0 0 395.96 395.96" style="enable-background:new 0 0 395.96 395.96;" xml:space="preserve">
<style type="text/css">
	.st0{fill:#F9FBFE;}
	.st1{fill:#F6F8FC;}
	.st2{fill:#223E60;}
	.st3{fill:#FFFEFE;}
	.st4{fill:#FACDD1;}
	.st5{fill:#E31E26;}
	.st6{fill:#FFFFFF;}
</style>
<g>
	<g id="Group_165" transform="translate(-898.036 -255.479)">
		<circle id="Ellipse_19" class="st0" cx="1096.02" cy="453.46" r="197.98"/>
		<circle id="Ellipse_18" class="st1" cx="1095.16" cy="452.61" r="145.92"/>
	</g>
	<g>
		<g>
			<path class="st2" d="M151.73,266.87c-0.1-0.49-0.57-0.37-0.87-0.47c-6.91-2.21-10.72-7.2-11.05-14.49
				c-0.64-14-1.26-28-1.93-41.99c-0.66-13.84-1.36-27.68-2.05-41.53c-0.01-0.2-0.02-0.41-0.02-0.61c-0.04-1.23,0.32-2.69-0.23-3.62
				c-0.63-1.06-2.23-0.27-3.39-0.45c-2.14-0.34-4.06-2.36-4.08-4.53c-0.04-6.19-0.12-12.38,0.03-18.57
				c0.14-5.92,5.7-11.2,11.69-11.24c8.7-0.06,17.4-0.04,26.09,0.01c1.18,0.01,1.54-0.26,1.5-1.48c-0.08-2.9-0.21-5.8,0.87-8.62
				c2.13-5.61,7.57-9.54,13.53-9.56c6.75-0.03,13.51-0.04,20.26,0c7.8,0.04,14.34,6.57,14.42,14.35c0.01,1.33,0.09,2.67-0.02,3.99
				c-0.09,1.11,0.29,1.33,1.35,1.32c8.44-0.05,16.88-0.03,25.33-0.02c7.36,0.01,12.64,5.28,12.65,12.64
				c0.01,5.53,0.01,11.05,0,16.58c-0.01,3.15-2.02,5.14-5.17,5.16c-2.46,0.02-2.4,0.02-2.52,2.52c-0.46,9.96-0.96,19.92-1.43,29.88
				c-0.34,7.1-0.67,14.2-1.01,21.3c-0.48,10.06-0.95,20.13-1.45,30.19c-0.14,2.75,0.09,5.55-0.71,8.23
				c-1.75,5.89-5.54,9.6-11.68,10.74c-0.1,0.02-0.18,0.19-0.27,0.28C204.94,266.87,178.33,266.87,151.73,266.87z M192,163.73
				c-15.04,0-30.08,0.01-45.12-0.03c-1.09,0-1.38,0.26-1.31,1.34c0.26,4.13,0.43,8.27,0.63,12.41c0.34,7.15,0.67,14.3,1.01,21.45
				c0.48,10.06,0.96,20.12,1.45,30.19c0.36,7.46,0.68,14.92,1.12,22.37c0.24,4.09,1.96,5.59,6.05,5.59c24.09,0,48.19,0,72.28,0
				c0.41,0,0.82,0.02,1.23-0.01c2.67-0.18,4.57-2.03,4.72-4.7c0.31-5.46,0.6-10.93,0.86-16.39c0.46-9.71,0.86-19.41,1.33-29.12
				c0.66-13.84,1.35-27.68,2.07-41.52c0.06-1.22-0.16-1.62-1.5-1.61C221.87,163.75,206.93,163.73,192,163.73z M191.93,153.9
				c17.54,0,35.09-0.01,52.63,0.02c1.09,0,1.48-0.17,1.45-1.38c-0.1-3.42-0.02-6.85-0.04-10.28c-0.01-2.16-0.92-3.09-3.07-3.1
				c-33.96-0.01-67.92-0.01-101.88,0c-2.16,0-3.09,0.92-3.1,3.07c-0.02,3.38,0.06,6.75-0.04,10.13c-0.04,1.28,0.3,1.57,1.57,1.57
				C156.94,153.89,174.44,153.9,191.93,153.9z M191.94,129.35c3.38,0,6.75,0.03,10.13-0.01c1.51-0.02,3.65,0.68,4.37-0.29
				c0.76-1.02,0.27-3.04,0.22-4.61c-0.1-2.77-2.13-4.86-4.9-4.89c-6.55-0.06-13.1-0.06-19.64,0c-2.76,0.03-4.79,2.12-4.9,4.89
				c-0.05,1.23,0.06,2.46-0.03,3.68c-0.08,1.01,0.25,1.27,1.25,1.26C182.94,129.31,187.44,129.35,191.94,129.35z"/>
			<path class="st3" d="M192,163.73c14.94,0,29.88,0.02,44.81-0.04c1.35-0.01,1.57,0.39,1.5,1.61c-0.72,13.84-1.41,27.68-2.07,41.52
				c-0.47,9.7-0.87,19.41-1.33,29.12c-0.26,5.47-0.54,10.93-0.86,16.39c-0.15,2.67-2.06,4.52-4.72,4.7
				c-0.41,0.03-0.82,0.01-1.23,0.01c-24.09,0-48.19,0-72.28,0c-4.09,0-5.8-1.49-6.05-5.59c-0.44-7.45-0.76-14.91-1.12-22.37
				c-0.49-10.06-0.97-20.12-1.45-30.19c-0.34-7.15-0.67-14.3-1.01-21.45c-0.2-4.14-0.37-8.28-0.63-12.41
				c-0.07-1.08,0.22-1.34,1.31-1.34C161.92,163.74,176.96,163.73,192,163.73z M172.29,210.45c0-10.54,0-21.07,0-31.61
				c0-3.13-2-5.28-4.88-5.29c-2.91-0.01-4.94,2.13-4.94,5.23c0,21.07,0,42.15,0,63.22c0,0.56,0.01,1.14,0.16,1.66
				c0.68,2.4,3.06,3.89,5.56,3.53c2.27-0.33,4.09-2.43,4.09-4.83C172.3,231.73,172.29,221.09,172.29,210.45z M187.03,210.39
				c0,10.54,0,21.07,0,31.61c0,3.08,2.06,5.24,4.95,5.23c2.83-0.01,4.87-2.16,4.87-5.16c0.01-21.12,0-42.25,0-63.37
				c0-0.56,0.01-1.11-0.17-1.67c-0.8-2.41-3.13-3.85-5.62-3.45c-2.27,0.36-4.02,2.45-4.02,4.89
				C187.02,189.11,187.03,199.75,187.03,210.39z M211.59,210.3c0,10.54,0,21.07,0,31.61c0,3.12,2,5.3,4.86,5.31
				c2.9,0.02,4.96-2.13,4.96-5.22c0-21.07,0-42.15,0-63.22c0-0.61,0.01-1.21-0.2-1.81c-0.83-2.36-3.03-3.74-5.51-3.4
				c-2.33,0.32-4.1,2.43-4.11,4.96C211.58,189.13,211.59,199.71,211.59,210.3z"/>
			<path class="st4" d="M191.93,153.9c-17.49,0-34.98-0.02-52.48,0.03c-1.27,0-1.61-0.29-1.57-1.57c0.1-3.37,0.02-6.75,0.04-10.13
				c0.01-2.15,0.93-3.07,3.1-3.07c33.96-0.01,67.92-0.01,101.88,0c2.15,0,3.06,0.93,3.07,3.1c0.02,3.43-0.06,6.86,0.04,10.28
				c0.04,1.21-0.36,1.38-1.45,1.38C227.01,153.89,209.47,153.9,191.93,153.9z"/>
			<path class="st4" d="M191.94,129.35c-4.5,0-9-0.03-13.5,0.02c-1,0.01-1.33-0.25-1.25-1.26c0.09-1.22-0.02-2.46,0.03-3.68
				c0.12-2.76,2.14-4.86,4.9-4.89c6.55-0.06,13.1-0.06,19.64,0c2.77,0.03,4.79,2.11,4.9,4.89c0.06,1.58,0.55,3.59-0.22,4.61
				c-0.72,0.97-2.86,0.27-4.37,0.29C198.7,129.38,195.32,129.35,191.94,129.35z"/>
			<path class="st2" d="M172.29,210.45c0,10.64,0.01,21.28-0.01,31.92c0,2.4-1.83,4.5-4.09,4.83c-2.5,0.36-4.87-1.13-5.56-3.53
				c-0.15-0.53-0.16-1.11-0.16-1.66c-0.01-21.07-0.01-42.15,0-63.22c0-3.11,2.03-5.24,4.94-5.23c2.89,0.01,4.88,2.16,4.88,5.29
				C172.3,189.38,172.29,199.92,172.29,210.45z"/>
			<path class="st2" d="M187.03,210.39c0-10.64-0.01-21.28,0.01-31.92c0-2.44,1.75-4.53,4.02-4.89c2.5-0.4,4.82,1.04,5.62,3.45
				c0.18,0.55,0.17,1.11,0.17,1.67c0,21.12,0.01,42.25,0,63.37c0,3-2.04,5.14-4.87,5.16c-2.89,0.01-4.95-2.14-4.95-5.23
				C187.03,231.46,187.03,220.93,187.03,210.39z"/>
			<path class="st2" d="M211.59,210.3c0-10.59-0.01-21.18,0-31.76c0-2.53,1.78-4.64,4.11-4.96c2.48-0.34,4.68,1.04,5.51,3.4
				c0.21,0.6,0.2,1.2,0.2,1.81c0,21.07,0.01,42.15,0,63.22c0,3.09-2.06,5.24-4.96,5.22c-2.86-0.02-4.86-2.19-4.86-5.31
				C211.59,231.37,211.59,220.84,211.59,210.3z"/>
		</g>
		<g>
			<circle class="st5" cx="237.44" cy="255.81" r="30.47"/>
			<g>
				<path class="st6" d="M224.54,270.1c-0.07-0.08-0.18-0.08-0.27-0.12c-1.17-0.51-1.5-2.02-0.64-2.96
					c0.08-0.08,0.16-0.16,0.23-0.24c3.58-3.58,7.16-7.16,10.75-10.74c0.18-0.18,0.17-0.27-0.01-0.44
					c-3.62-3.61-7.23-7.22-10.84-10.84c-0.74-0.74-0.83-1.74-0.23-2.52c0.64-0.84,1.87-0.97,2.67-0.27
					c0.13,0.12,0.26,0.24,0.38,0.37c3.55,3.55,7.1,7.09,10.64,10.65c0.18,0.18,0.27,0.17,0.45,0c3.6-3.61,7.21-7.22,10.82-10.83
					c0.55-0.55,1.19-0.78,1.95-0.55c0.59,0.18,0.98,0.57,1.2,1.15c0.03,0.08,0.01,0.19,0.1,0.25c0,0.24,0,0.48,0,0.73
					c-0.16,0.58-0.56,0.98-0.97,1.39c-3.51,3.5-7.01,7-10.51,10.5c-0.17,0.17-0.16,0.24,0,0.4c3.51,3.5,7.02,7.02,10.53,10.52
					c0.4,0.4,0.79,0.81,0.95,1.38c0,0.24,0,0.48,0,0.73c-0.23,0.71-0.68,1.21-1.4,1.45c-0.3,0-0.6,0-0.89,0
					c-0.5-0.16-0.87-0.51-1.24-0.87c-3.52-3.52-7.04-7.04-10.55-10.57c-0.18-0.18-0.27-0.18-0.45,0
					c-3.53,3.54-7.06,7.07-10.59,10.61c-0.35,0.35-0.71,0.67-1.2,0.83C225.14,270.1,224.84,270.1,224.54,270.1z"/>
			</g>
		</g>
	</g>
</g>
</svg>
